<?xml version="1.0" encoding="utf-8"?>
<!-- Generator: Adobe Illustrator 21.1.0, SVG Export Plug-In . SVG Version: 6.00 Build 0)  -->
<svg version="1.1" id="Layer_1" xmlns="http://www.w3.org/2000/svg" xmlns:xlink="http://www.w3.org/1999/xlink" x="0px" y="0px"
	 viewBox="0 0 25.5 25.4" style="enable-background:new 0 0 25.5 25.4;" xml:space="preserve">
<style type="text/css">
	.st0{fill:#008375;}
</style>
<g id="Alerts" transform="translate(2299.601 -4737.5)">
	<g id="Group_380" transform="translate(287.2 8.5)">
		<path id="Path_462" class="st0" d="M-2564.7,4747c-1.7-1.6-2.6-3.8-2.6-6v-2.3c0-1.9-0.8-3.7-2.2-4.9c-0.7-0.6-1.4-1.1-2.3-1.4
			v-1.1c0-1.2-1-2.2-2.2-2.2c-1.2,0-2.2,1-2.2,2.2v1.1c-1.1,0.4-2.1,1.1-2.8,1.9c-1.1,1.3-1.7,2.9-1.8,4.6v2c0,2.3-0.9,4.5-2.6,6
			c-1.1,0.2-1.9,1.1-1.9,2.2c0,1.2,1,2.2,2.2,2.2h5.4c0.4,1.7,1.9,2.9,3.6,3c1.8,0,3.3-1.2,3.6-3h5.4c1.2,0,2.2-1,2.2-2.2
			C-2562.9,4748.1-2563.7,4747.2-2564.7,4747z M-2574.8,4731.2c0-0.4,0.3-0.7,0.7-0.7s0.8,0.3,0.8,0.7v0.8c-0.5-0.1-0.9-0.1-1.4,0
			h-0.1V4731.2z M-2579.4,4741v-2c-0.1-2.8,2-5.1,4.7-5.5c2.9-0.3,5.4,1.8,5.7,4.7c0,0.1,0,0.3,0,0.5v2.3c0,2.2,0.7,4.3,2,6h-14.6
			C-2580.1,4745.3-2579.4,4743.1-2579.4,4741z M-2574.1,4752.9c-0.9,0-1.8-0.6-2.1-1.5h4.3
			C-2572.3,4752.3-2573.2,4752.9-2574.1,4752.9z M-2565.1,4750h-18c-0.4,0-0.7-0.3-0.7-0.7c0-0.4,0.3-0.7,0.7-0.7c0,0,0,0,0,0h18
			c0.4,0,0.7,0.3,0.7,0.7S-2564.7,4750-2565.1,4750z"/>
		<path id="Path_463" class="st0" d="M-2584.5,4732.7c-0.4-0.2-0.8,0-1,0.4c-0.9,1.8-1.3,3.7-1.3,5.7c0,1.6,0.3,3.1,0.8,4.5
			c0.1,0.3,0.4,0.5,0.7,0.5c0.1,0,0.2,0,0.3-0.1c0.4-0.2,0.6-0.5,0.5-0.9c-0.5-1.3-0.7-2.6-0.7-4c0-1.7,0.4-3.5,1.2-5
			C-2584,4733.3-2584.2,4732.9-2584.5,4732.7z"/>
		<path id="Path_464" class="st0" d="M-2563.7,4732.7c-0.4,0.2-0.5,0.6-0.4,1c0.8,1.6,1.2,3.3,1.2,5c0,1.4-0.3,2.7-0.7,4
			c-0.1,0.4,0,0.8,0.4,0.9c0,0,0.1,0,0.1,0c0.1,0,0.2,0.1,0.3,0.1c0.3,0,0.6-0.2,0.7-0.5c0.6-1.4,0.8-3,0.8-4.5c0-2-0.5-3.9-1.3-5.7
			C-2562.8,4732.7-2563.3,4732.5-2563.7,4732.7z"/>
		<path id="Path_465" class="st0" d="M-2582.7,4735.9c-0.4-0.1-0.8,0.2-0.9,0.6c-0.2,0.7-0.3,1.5-0.3,2.2c0,0.6,0.1,1.2,0.2,1.8
			c0.1,0.4,0.4,0.6,0.7,0.6h0.1c0.4-0.1,0.6-0.5,0.6-0.8c-0.1-0.5-0.1-1-0.1-1.6c0-0.7,0.1-1.3,0.2-1.9c0.2-0.3,0.1-0.6-0.2-0.8
			C-2582.6,4735.9-2582.6,4735.9-2582.7,4735.9z"/>
		<path id="Path_466" class="st0" d="M-2565.4,4741.1L-2565.4,4741.1c0.5,0,0.8-0.3,0.8-0.6c0.1-0.6,0.2-1.2,0.2-1.8
			c0-0.8-0.1-1.5-0.3-2.2c-0.1-0.4-0.5-0.7-0.9-0.6c-0.4,0.1-0.7,0.5-0.6,0.9c0,0,0,0,0,0c0.2,0.6,0.2,1.3,0.2,1.9
			c0,0.6-0.1,1-0.1,1.6C-2566,4740.6-2565.8,4741.1-2565.4,4741.1z"/>
	</g>
</g>
</svg>
