<?xml version="1.0" encoding="utf-8"?>
<!-- Generator: Adobe Illustrator 21.1.0, SVG Export Plug-In . SVG Version: 6.00 Build 0)  -->
<svg version="1.1" id="Layer_1" xmlns="http://www.w3.org/2000/svg" xmlns:xlink="http://www.w3.org/1999/xlink" x="0px" y="0px"
	 viewBox="0 0 24.8 23.3" style="enable-background:new 0 0 24.8 23.3;" xml:space="preserve">
<style type="text/css">
	.st0{fill:#008375;}
</style>
<g id="Appointment" transform="translate(2295.2 -4731.8)">
	<path id="Path_467" class="st0" d="M-2274.1,4733.4h-3.2v-0.8c0-0.4-0.4-0.8-0.8-0.8c-0.4,0-0.8,0.4-0.8,0.8v0.8h-7.7v-0.8
		c0-0.4-0.4-0.8-0.8-0.8s-0.8,0.4-0.8,0.8v0.8h-3.1c-2.1,0-3.9,1.7-3.9,3.8v14c0,2.1,1.7,3.9,3.8,3.9h17.1c2.1,0,3.9-1.7,3.9-3.8
		v-14C-2270.4,4735.2-2272,4733.4-2274.1,4733.4z M-2271.9,4751.2c-0.1,1.2-1.1,2.2-2.3,2.3h-17c-1.2-0.1-2.2-1.1-2.3-2.3v-10h21.6
		V4751.2z M-2271.8,4739.6h-21.6v-2.3h-0.1c0.1-1.2,1.1-2.2,2.3-2.3h3.1v0.8c0,0.4,0.4,0.8,0.8,0.8c0.4,0,0.8-0.4,0.8-0.8v-0.8h7.7
		v0.8c0,0.4,0.4,0.8,0.8,0.8c0.4,0,0.8-0.4,0.8-0.8v-0.8h3.1c1.2,0,2.2,1,2.3,2.3V4739.6z"/>
	<path class="st0" d="M-2288.6,4750.7c-0.3,0.3-0.7,0.5-1.1,0.5c-0.9-0.1-1.5-0.7-1.6-1.6c0-0.4,0.2-0.8,0.5-1.1
		c0.6-0.6,1.6-0.6,2.2,0c0.1,0,0.1,0.1,0.1,0.1C-2287.9,4749.2-2288,4750.2-2288.6,4750.7z"/>
	<path class="st0" d="M-2288.6,4746c-0.3,0.3-0.7,0.5-1.1,0.5c-0.4,0-0.8-0.2-1.1-0.5c-0.1,0-0.1-0.1-0.1-0.1
		c-0.5-0.6-0.5-1.5,0.1-2.1c0.6-0.6,1.6-0.6,2.2,0c0.1,0,0.1,0.1,0.1,0.1C-2287.9,4744.5-2288,4745.5-2288.6,4746z"/>
	<path class="st0" d="M-2283.9,4750.7c-0.3,0.3-0.7,0.5-1.1,0.5c-0.4,0-0.8-0.2-1.1-0.5c-0.1,0-0.1-0.1-0.1-0.1
		c-0.5-0.6-0.5-1.5,0.1-2.1c0.6-0.6,1.6-0.6,2.2,0c0.1,0,0.1,0.1,0.1,0.1C-2283.2,4749.2-2283.3,4750.2-2283.9,4750.7z"/>
	<path class="st0" d="M-2283.9,4746c-0.3,0.3-0.7,0.5-1.1,0.5c-0.4,0-0.8-0.2-1.1-0.5c-0.1,0-0.1-0.1-0.1-0.1
		c-0.5-0.6-0.5-1.5,0.1-2.1c0.6-0.6,1.6-0.6,2.2,0c0.1,0,0.1,0.1,0.1,0.1C-2283.2,4744.5-2283.3,4745.5-2283.9,4746z"/>
	<path class="st0" d="M-2278.8,4749.7c0,0.9-0.7,1.5-1.6,1.5c-0.4,0-0.8-0.2-1.1-0.5c0,0-0.1-0.1-0.1-0.1c-0.5-0.6-0.5-1.5,0.1-2.1
		c0.6-0.6,1.6-0.6,2.2,0C-2279,4748.8-2278.8,4749.2-2278.8,4749.7z"/>
	<path class="st0" d="M-2278.8,4744.9c-0.1,0.9-0.7,1.5-1.6,1.6c-0.4,0-0.9-0.1-1.1-0.5c0,0-0.1-0.1-0.1-0.1
		c-0.5-0.6-0.5-1.5,0.1-2.1c0.6-0.6,1.6-0.6,2.2,0C-2279,4744.1-2278.8,4744.5-2278.8,4744.9z"/>
	<path class="st0" d="M-2274.7,4750.7c-0.3,0.3-0.7,0.5-1.1,0.5c-0.9-0.1-1.5-0.7-1.6-1.6c0-0.4,0.2-0.8,0.5-1.1
		c0.6-0.6,1.6-0.6,2.2,0c0.1,0,0.1,0.1,0.1,0.1C-2274,4749.2-2274.1,4750.2-2274.7,4750.7z"/>
	<path class="st0" d="M-2274.2,4744.9c-0.1,0.9-0.7,1.5-1.6,1.6c-0.4,0-0.8-0.2-1.1-0.5c-0.1,0-0.1-0.1-0.1-0.1
		c-0.5-0.6-0.5-1.5,0.1-2.1c0.6-0.6,1.6-0.6,2.2,0C-2274.4,4744.1-2274.2,4744.5-2274.2,4744.9z"/>
</g>
</svg>
