<?xml version="1.0" encoding="utf-8"?>
<!-- Generator: Adobe Illustrator 21.1.0, SVG Export Plug-In . SVG Version: 6.00 Build 0)  -->
<svg version="1.1" id="Layer_1" xmlns="http://www.w3.org/2000/svg" xmlns:xlink="http://www.w3.org/1999/xlink" x="0px" y="0px"
	 viewBox="0 0 9.6 9.6" style="enable-background:new 0 0 9.6 9.6;" xml:space="preserve">
<style type="text/css">
	.st0{fill:#AD9961;}
</style>
<path class="st0" d="M8.1,0H1.5C0.7,0,0,0.7,0,1.5v6.6c0,0.8,0.7,1.5,1.5,1.5h6.6c0.8,0,1.5-0.7,1.5-1.5V1.5C9.6,0.7,8.9,0,8.1,0z
	 M8.6,8.1c0,0.3-0.2,0.5-0.5,0.5H1.5C1.2,8.6,1,8.4,1,8.1V1.5C1,1.2,1.2,1,1.5,1h6.6c0.3,0,0.5,0.2,0.5,0.5V8.1z"/>
</svg>
