<?xml version="1.0" encoding="utf-8"?>
<!-- Generator: Adobe Illustrator 21.1.0, SVG Export Plug-In . SVG Version: 6.00 Build 0)  -->
<svg version="1.1" id="Layer_1" xmlns="http://www.w3.org/2000/svg" xmlns:xlink="http://www.w3.org/1999/xlink" x="0px" y="0px"
	 viewBox="0 0 74 74" style="enable-background:new 0 0 74 74;" xml:space="preserve">
<g id="Company" transform="translate(-667 908)">
	<path id="Path_714" d="M738.7-836.3v-52.5h-14.3v-11.9h3.6v-7.2h-47.8v7.2h3.6v11.9h-14.3v52.5H667v2.4h74v-2.4H738.7z
		 M683.7-836.3h-11.9v-50.2h11.9V-836.3z M682.5-903.2v-2.4h43v2.4H682.5z M711.2-836.3h-14.3v-15.5h14.3V-836.3z M721.9-836.3h-8.4
		v-17.9h-19.1v17.9h-8.4v-64.5h35.8V-836.3z M736.3-836.3h-11.9v-50.2h11.9V-836.3z"/>
	<path id="Path_715" d="M690.9-897.3v9.6h9.5v-9.6H690.9z M698-890.1h-4.8v-4.8h4.8V-890.1z"/>
	<path id="Path_716" d="M707.6-897.3v9.6h9.5v-9.6H707.6z M714.8-890.1H710v-4.8h4.8V-890.1z"/>
	<path id="Path_717" d="M690.9-882.9v9.6h9.5v-9.6H690.9z M698-875.8h-4.8v-4.8h4.8V-875.8z"/>
	<path id="Path_718" d="M707.6-882.9v9.6h9.5v-9.6H707.6z M714.8-875.8H710v-4.8h4.8V-875.8z"/>
	<path id="Path_719" d="M690.9-868.6v9.5h9.5v-9.5H690.9z M698-861.4h-4.8v-4.8h4.8V-861.4z"/>
	<path id="Path_720" d="M707.6-868.6v9.5h9.5v-9.5H707.6z M714.8-861.4H710v-4.8h4.8V-861.4z"/>
	<rect x="676.5" y="-879.3" width="2.4" height="7.2"/>
	<rect x="676.5" y="-865" width="2.4" height="7.2"/>
	<rect x="676.5" y="-850.7" width="2.4" height="7.2"/>
	<rect x="729.1" y="-879.3" width="2.4" height="7.2"/>
	<rect x="729.1" y="-865" width="2.4" height="7.2"/>
	<rect x="729.1" y="-850.7" width="2.4" height="7.2"/>
</g>
</svg>
