<?xml version="1.0" encoding="utf-8"?>
<!-- Generator: Adobe Illustrator 21.1.0, SVG Export Plug-In . SVG Version: 6.00 Build 0)  -->
<svg version="1.1" id="Layer_1" xmlns="http://www.w3.org/2000/svg" xmlns:xlink="http://www.w3.org/1999/xlink" x="0px" y="0px"
	 viewBox="0 0 26.9 29.7" style="enable-background:new 0 0 26.9 29.7;" xml:space="preserve">
<style type="text/css">
	.st0{fill:#525252;}
</style>
<g>
	<path class="st0" d="M26.5,28.6h-0.8V2.5c0-0.3-0.2-0.5-0.5-0.5H16c-0.3,0-0.5,0.2-0.5,0.5v2.2h-1V2.5c0-0.3-0.2-0.5-0.5-0.5h-2.2
		V0.5c0-0.3-0.2-0.5-0.5-0.5c-0.3,0-0.5,0.2-0.5,0.5V2H8.5C8.3,2,8,2.3,8,2.5v2.2H6.5C6.2,4.7,6,4.9,6,5.2v4.2H1.9
		c-0.3,0-0.5,0.2-0.5,0.5v18.8H0.5c-0.3,0-0.5,0.2-0.5,0.5c0,0.3,0.2,0.5,0.5,0.5h25.9c0.3,0,0.5-0.2,0.5-0.5
		C26.9,28.9,26.8,28.6,26.5,28.6z M9.1,3.1h4.3v1.7H9.1V3.1z M7.5,28.6H7.2v-0.8c0-0.3-0.2-0.5-0.5-0.5c-0.3,0-0.5,0.2-0.5,0.5v0.9
		H5.8v-1.7h1.7V28.6z M10.8,28.7H8.5v-2.2C8.5,26.2,8.3,26,8,26H5.3c-0.3,0-0.5,0.2-0.5,0.5v2.2H2.5V10.4h8.3V28.7z M11.3,9.3H7.2
		V5.7h8.3v9.6h-3.6v-1.7h1.5c0.3,0,0.5-0.2,0.5-0.5c0-0.3-0.2-0.5-0.5-0.5h-1.5V11h1.5c0.3,0,0.5-0.2,0.5-0.5c0-0.3-0.2-0.5-0.5-0.5
		h-1.5V9.8C11.8,9.5,11.6,9.3,11.3,9.3z M20.1,28.6h-8.3V16.3h8.3V28.6z M24.7,28.6h-3.6V15.2c0-0.3-0.2-0.5-0.5-0.5
		c-0.3,0-0.5,0.2-0.5,0.5v0.1h-1v-0.1c0-0.3-0.2-0.5-0.5-0.5c-0.3,0-0.5,0.2-0.5,0.5v0.2h-1.7V3.1h8.3V28.6z"/>
	<path class="st0" d="M13.9,27.6c0.3,0,0.5-0.2,0.5-0.5v-9.3c0-0.3-0.2-0.5-0.5-0.5c-0.3,0-0.5,0.2-0.5,0.5v9.3
		C13.4,27.4,13.7,27.6,13.9,27.6z"/>
	<path class="st0" d="M16,27.6c0.3,0,0.5-0.2,0.5-0.5v-9.3c0-0.3-0.2-0.5-0.5-0.5c-0.3,0-0.5,0.2-0.5,0.5v9.3
		C15.4,27.4,15.7,27.6,16,27.6z"/>
	<path class="st0" d="M17.9,27.6c0.3,0,0.5-0.2,0.5-0.5v-9.3c0-0.3-0.2-0.5-0.5-0.5c0,0,0,0,0,0c-0.3,0-0.5,0.2-0.5,0.5v9.3
		C17.4,27.4,17.7,27.6,17.9,27.6z"/>
	<path class="st0" d="M18.5,6.4L18.5,6.4c0.3,0,0.6-0.2,0.6-0.5V5.2c0-0.3-0.2-0.5-0.5-0.5c-0.3,0-0.5,0.2-0.5,0.5v0.7
		C18.1,6.1,18.3,6.4,18.5,6.4z"/>
	<path class="st0" d="M20.6,6.4c0.3,0,0.5-0.2,0.5-0.5V5.2c0-0.3-0.2-0.5-0.5-0.5c-0.3,0-0.5,0.2-0.5,0.5v0.7
		C20.1,6.1,20.3,6.4,20.6,6.4z"/>
	<path class="st0" d="M22.5,6.4L22.5,6.4c0.3,0,0.6-0.2,0.6-0.5V5.2c0-0.3-0.2-0.5-0.5-0.5c-0.3,0-0.5,0.2-0.5,0.5v0.7
		C22.1,6.1,22.3,6.4,22.5,6.4z"/>
	<path class="st0" d="M18.5,9.7L18.5,9.7c0.3,0,0.6-0.2,0.6-0.5V8.5c0-0.3-0.2-0.5-0.5-0.5c-0.3,0-0.5,0.2-0.5,0.5v0.7
		C18.1,9.4,18.3,9.7,18.5,9.7z"/>
	<path class="st0" d="M20.6,9.7c0.3,0,0.5-0.2,0.5-0.5V8.5c0-0.3-0.2-0.5-0.5-0.5c-0.3,0-0.5,0.2-0.5,0.5v0.7
		C20.1,9.4,20.3,9.7,20.6,9.7z"/>
	<path class="st0" d="M22.5,9.7L22.5,9.7c0.3,0,0.6-0.2,0.6-0.5V8.5c0-0.3-0.2-0.5-0.5-0.5c-0.3,0-0.5,0.2-0.5,0.5v0.7
		C22.1,9.4,22.3,9.7,22.5,9.7z"/>
	<path class="st0" d="M18.5,13L18.5,13c0.3,0,0.6-0.2,0.6-0.5v-0.7c0-0.3-0.2-0.5-0.5-0.5c-0.3,0-0.5,0.2-0.5,0.5v0.7
		C18.1,12.8,18.3,13,18.5,13z"/>
	<path class="st0" d="M20.6,13c0.3,0,0.5-0.2,0.5-0.5v-0.7c0-0.3-0.2-0.5-0.5-0.5c-0.3,0-0.5,0.2-0.5,0.5v0.7
		C20.1,12.8,20.3,13,20.6,13z"/>
	<path class="st0" d="M22.5,13L22.5,13c0.3,0,0.6-0.2,0.6-0.5v-0.7c0-0.3-0.2-0.5-0.5-0.5c-0.3,0-0.5,0.2-0.5,0.5v0.7
		C22.1,12.8,22.3,13,22.5,13z"/>
	<path class="st0" d="M4.7,14.4c0.3,0,0.5-0.2,0.5-0.5v-0.7c0-0.3-0.2-0.5-0.5-0.5c-0.3,0-0.5,0.2-0.5,0.5v0.7
		C4.2,14.1,4.4,14.3,4.7,14.4z"/>
	<path class="st0" d="M6.6,14.4c0.3,0,0.5-0.2,0.5-0.5v-0.7c0-0.3-0.2-0.5-0.5-0.5c-0.3,0-0.5,0.2-0.5,0.5c0,0,0,0,0,0v0.7
		C6.2,14.1,6.4,14.3,6.6,14.4z"/>
	<path class="st0" d="M8.7,14.4c0.3,0,0.5-0.2,0.5-0.5v-0.7c0-0.3-0.2-0.5-0.5-0.5c-0.3,0-0.5,0.2-0.5,0.5v0.7
		C8.1,14.1,8.4,14.4,8.7,14.4z"/>
	<path class="st0" d="M4.7,17.7c0.3,0,0.5-0.2,0.5-0.5v-0.7C5.2,16.2,5,16,4.7,16c-0.3,0-0.5,0.2-0.5,0.5v0.7
		C4.2,17.4,4.4,17.6,4.7,17.7z"/>
	<path class="st0" d="M6.6,17.7c0.3,0,0.5-0.2,0.5-0.5v-0.7c0-0.3-0.2-0.5-0.5-0.5c-0.3,0-0.5,0.2-0.5,0.5c0,0,0,0,0,0.1v0.7
		C6.2,17.4,6.4,17.6,6.6,17.7z"/>
	<path class="st0" d="M8.7,17.7c0.3,0,0.5-0.2,0.5-0.5v-0.7c0-0.3-0.2-0.5-0.5-0.5c-0.3,0-0.5,0.2-0.5,0.5v0.7
		C8.1,17.4,8.4,17.7,8.7,17.7z"/>
	<path class="st0" d="M4.7,21c0.3,0,0.5-0.2,0.5-0.5v-0.7c0-0.3-0.2-0.5-0.5-0.5c-0.3,0-0.5,0.2-0.5,0.5v0.7C4.2,20.8,4.4,21,4.7,21
		z"/>
	<path class="st0" d="M6.6,21c0.3,0,0.5-0.2,0.5-0.5v-0.7c0-0.3-0.2-0.5-0.5-0.5c-0.3,0-0.5,0.2-0.5,0.5c0,0,0,0,0,0.1v0.7
		C6.2,20.7,6.4,21,6.6,21z"/>
	<path class="st0" d="M8.7,21c0.3,0,0.5-0.2,0.5-0.5v-0.7c0-0.3-0.2-0.5-0.5-0.5c-0.3,0-0.5,0.2-0.5,0.5v0.7C8.1,20.8,8.4,21,8.7,21
		z"/>
	<path class="st0" d="M4.6,24.3c0.3,0,0.5-0.2,0.5-0.5v-0.7c0-0.3-0.2-0.5-0.5-0.5c-0.3,0-0.5,0.2-0.5,0.5v0.7
		C4.1,24.1,4.3,24.3,4.6,24.3z"/>
	<path class="st0" d="M6.6,24.3c0.3,0,0.5-0.2,0.5-0.5v-0.7c0-0.3-0.2-0.5-0.5-0.5c-0.3,0-0.5,0.2-0.5,0.5c0,0,0,0,0,0.1v0.7
		C6.2,24.1,6.4,24.3,6.6,24.3z"/>
	<path class="st0" d="M8.7,24.3c0.3,0,0.5-0.2,0.5-0.5v-0.7c0-0.3-0.2-0.5-0.5-0.5c-0.3,0-0.5,0.2-0.5,0.5v0.7
		C8.1,24.1,8.4,24.3,8.7,24.3z"/>
	<path class="st0" d="M22.5,16.3L22.5,16.3c0.3,0,0.6-0.2,0.6-0.5v-0.7c0-0.3-0.2-0.5-0.5-0.5c-0.3,0-0.5,0.2-0.5,0.5v0.7
		C22.1,16.1,22.3,16.3,22.5,16.3z"/>
	<path class="st0" d="M22.5,19.6L22.5,19.6c0.3,0,0.6-0.2,0.6-0.5v-0.7c0-0.3-0.2-0.5-0.5-0.5c-0.3,0-0.5,0.2-0.5,0.5v0.7
		C22.1,19.4,22.3,19.6,22.5,19.6z"/>
	<path class="st0" d="M22.5,23L22.5,23c0.3,0,0.6-0.2,0.6-0.5v-0.7c0-0.3-0.2-0.5-0.5-0.5c-0.3,0-0.5,0.2-0.5,0.5v0.7
		C22.1,22.7,22.3,22.9,22.5,23z"/>
	<path class="st0" d="M22.5,26.3L22.5,26.3c0.3,0,0.6-0.2,0.6-0.5v-0.7c0-0.3-0.2-0.5-0.5-0.5c-0.3,0-0.5,0.2-0.5,0.5v0.7
		C22.1,26,22.3,26.3,22.5,26.3z"/>
	<path class="st0" d="M13.8,7.9c0-0.3-0.2-0.5-0.5-0.5h-4C9,7.4,8.8,7.6,8.8,7.9c0,0.3,0.2,0.5,0.5,0.5h4.1
		C13.5,8.4,13.8,8.2,13.8,7.9z"/>
</g>
</svg>
