<?xml version="1.0" encoding="utf-8"?>
<!-- Generator: Adobe Illustrator 21.1.0, SVG Export Plug-In . SVG Version: 6.00 Build 0)  -->
<svg version="1.1" id="Layer_1" xmlns="http://www.w3.org/2000/svg" xmlns:xlink="http://www.w3.org/1999/xlink" x="0px" y="0px"
	 viewBox="0 0 49 50.6" style="enable-background:new 0 0 49 50.6;" xml:space="preserve">
<style type="text/css">
	.st0{fill:url(#SVGID_1_);}
	.st1{fill:url(#SVGID_2_);}
	.st2{fill:url(#SVGID_3_);}
	.st3{fill:url(#SVGID_4_);}
	.st4{fill:url(#SVGID_5_);}
	.st5{fill:url(#SVGID_6_);}
	.st6{fill:url(#SVGID_7_);}
	.st7{fill:url(#SVGID_8_);}
	.st8{fill:url(#SVGID_9_);}
	.st9{fill:url(#SVGID_10_);}
	.st10{fill:url(#SVGID_11_);}
	.st11{fill:url(#SVGID_12_);}
	.st12{fill:url(#SVGID_13_);}
	.st13{fill:url(#SVGID_14_);}
	.st14{fill:url(#SVGID_15_);}
	.st15{fill:url(#SVGID_16_);}
	.st16{fill:url(#SVGID_17_);}
	.st17{fill:url(#SVGID_18_);}
	.st18{fill:url(#SVGID_19_);}
	.st19{fill:url(#SVGID_20_);}
	.st20{fill:url(#SVGID_21_);}
	.st21{fill:url(#SVGID_22_);}
	.st22{fill:url(#SVGID_23_);}
</style>
<g>
	<linearGradient id="SVGID_1_" gradientUnits="userSpaceOnUse" x1="142.4121" y1="-18.1002" x2="1141.4843" y2="-407.9454">
		<stop  offset="0" style="stop-color:#008375"/>
		<stop  offset="1" style="stop-color:#002A3A"/>
	</linearGradient>
	<path class="st0" d="M48.9,49.9V9.8c0-0.4-0.3-0.6-0.7-0.6c0,0-0.1,0-0.1,0h-1.7V6.6c0-0.4-0.3-0.6-0.7-0.6c0,0-0.1,0-0.1,0h-5.2
		c-0.3,0-0.6,0.3-0.6,0.7c0,0,0,0.1,0,0.1v2.5h-2c-0.4,0-0.6,0.3-0.6,0.7c0,0,0,0.1,0,0.1v13.6h-0.9v-2.6c0-0.4-0.3-0.6-0.7-0.6
		c0,0-0.1,0-0.1,0h-0.9v-1.1c0-0.4-0.4-0.8-0.8-0.8S33,19,33,19.4v1.1h-1c-0.4,0-0.6,0.3-0.6,0.7c0,0,0,0.1,0,0.1v2.5h-3V6.7
		c0-0.3-0.3-0.6-0.7-0.6c0,0-0.1,0-0.1,0h-2.5V0.6c0-0.4-0.3-0.6-0.7-0.6c-0.1,0-0.1,0-0.1,0H14c-0.4,0-0.6,0.3-0.6,0.7
		c0,0,0,0.1,0,0.1v5.1h-2.6c-0.4,0-0.6,0.3-0.6,0.7c0,0.1,0,0.1,0,0.1v22.1h-2v-2.6c0-0.3-0.3-0.6-0.7-0.6c0,0-0.1,0-0.1,0H2.3
		c-0.4,0-0.6,0.3-0.6,0.7c0,0,0,0.1,0,0.1v2.5H0.6c-0.3,0-0.6,0.3-0.6,0.7c0,0.1,0,0.1,0,0.1V50c0,0.4,0.3,0.6,0.7,0.6
		c0,0,0.1,0,0.1,0h47.3C48.7,50.6,49.1,50.2,48.9,49.9z M33,21.9h1.7v1.7H33V21.9z M3.3,27h3.4v1.7H3.3V27z M16.9,35.5h-2.7
		c-0.4,0-0.7,0.4-0.8,0.8v0.1c0,0.3,0.3,0.6,0.7,0.6c0,0,0.1,0,0.1,0h2.7v1.9h-2.7c-0.4,0-0.8,0.4-0.8,0.8s0.4,0.8,0.8,0.8h2.7v1.9
		h-2.7c-0.4,0-0.7,0.4-0.8,0.8v0.1c0,0.3,0.3,0.6,0.7,0.6c0,0,0.1,0,0.1,0h2.7v1.9h-2.7c-0.4,0-0.7,0.4-0.8,0.8v0.1
		c0,0.4,0.3,0.6,0.7,0.6c0,0,0.1,0,0.1,0h2.7v1.6h-5.1V33.6h5.1V35.5z M16.9,32.1h-6.1c-0.4,0-0.6,0.3-0.6,0.7c0,0,0,0.1,0,0.1v16
		H1.6V30.2h0.2c0.1,0.1,0.3,0.2,0.5,0.2h5.1c0.2,0,0.4-0.1,0.6-0.2h2.3c0.1,0.1,0.3,0.2,0.5,0.2h6.1V32.1z M17.6,9.3
		c-0.4,0-0.8,0.4-0.8,0.8v18.5h-1.9V9.9c0-0.4-0.4-0.7-0.8-0.8H14c-0.4,0-0.6,0.3-0.6,0.7c0,0,0,0.1,0,0.1v18.7h-1.5V7.7h2.7
		c0.3,0,0.6-0.3,0.6-0.7c0-0.1,0-0.1,0-0.1V1.8h8.5V7c0,0.4,0.3,0.6,0.7,0.6c0,0,0.1,0,0.1,0H27v15.9h-1.7V10.1
		c0-0.4-0.4-0.7-0.8-0.8h-0.1c-0.3,0-0.6,0.3-0.6,0.7c0,0,0,0.1,0,0.1v13.4h-1.9V10.1c0-0.4-0.4-0.8-0.8-0.8s-0.8,0.4-0.8,0.8v13.4
		h-1.9V10.1C18.4,9.7,18.1,9.3,17.6,9.3z M36.9,48.9h-1.7V27.7c0-0.4-0.4-0.8-0.8-0.8s-0.8,0.4-0.8,0.8v21.2h-1.9V27.7
		c0-0.4-0.3-0.8-0.8-0.8c0,0,0,0,0,0c-0.4,0-0.8,0.3-0.8,0.7c0,0,0,0.1,0,0.1v21.2h-1.9V27.7c0-0.4-0.3-0.8-0.8-0.8c0,0,0,0,0,0
		c-0.4,0-0.8,0.3-0.8,0.7c0,0,0,0.1,0,0.1v21.2h-1.9V27.7c0-0.4-0.4-0.7-0.8-0.8h-0.1c-0.4,0-0.6,0.3-0.6,0.7c0,0.1,0,0.1,0,0.1
		v21.2h-1.3V27.7c0-0.4-0.4-0.8-0.8-0.8s-0.8,0.4-0.8,0.8v21.2h-1.7V25.3h18.3V48.9z M41.4,7.5h3.4v1.7h-3.4V7.5z M47.4,48.9h-8.5
		v-38h8.5V48.9z"/>
	<linearGradient id="SVGID_2_" gradientUnits="userSpaceOnUse" x1="45.7014" y1="38.0233" x2="82.7814" y2="23.5544">
		<stop  offset="0" style="stop-color:#008375"/>
		<stop  offset="1" style="stop-color:#002A3A"/>
	</linearGradient>
	<path class="st1" d="M41.2,41.3c0,0,0.1,0,0.1,0c0.6,0,0.9-0.4,0.8-0.8v-1.6c0-0.4-0.4-0.8-0.8-0.8s-0.8,0.4-0.8,0.8v1.8
		C40.5,41.1,40.8,41.3,41.2,41.3z"/>
	<linearGradient id="SVGID_3_" gradientUnits="userSpaceOnUse" x1="45.7013" y1="32.9233" x2="82.7813" y2="18.4544">
		<stop  offset="0" style="stop-color:#008375"/>
		<stop  offset="1" style="stop-color:#002A3A"/>
	</linearGradient>
	<path class="st2" d="M41.2,36.2c0,0,0.1,0,0.1,0c0.6,0,0.9-0.4,0.8-0.8v-1.6c0-0.4-0.4-0.8-0.8-0.8s-0.8,0.4-0.8,0.8v1.8
		C40.5,36,40.8,36.3,41.2,36.2z"/>
	<linearGradient id="SVGID_4_" gradientUnits="userSpaceOnUse" x1="45.8468" y1="42.9732" x2="84.1325" y2="28.0338">
		<stop  offset="0" style="stop-color:#008375"/>
		<stop  offset="1" style="stop-color:#002A3A"/>
	</linearGradient>
	<path class="st3" d="M41.2,46.4c0,0,0.1,0,0.1,0c0.4,0,0.8-0.2,0.8-0.6c0-0.1,0-0.2,0-0.3v-1.7c0-0.4-0.4-0.8-0.8-0.8
		s-0.8,0.4-0.8,0.8v2C40.5,46.2,40.8,46.4,41.2,46.4z"/>
	<linearGradient id="SVGID_5_" gradientUnits="userSpaceOnUse" x1="45.7014" y1="27.8233" x2="82.7814" y2="13.3544">
		<stop  offset="0" style="stop-color:#008375"/>
		<stop  offset="1" style="stop-color:#002A3A"/>
	</linearGradient>
	<path class="st4" d="M41.2,31.1c0,0,0.1,0,0.1,0c0.6,0,0.9-0.4,0.8-0.8v-1.6c0-0.4-0.4-0.8-0.8-0.8s-0.8,0.4-0.8,0.8v1.8
		C40.5,30.9,40.8,31.1,41.2,31.1z"/>
	<linearGradient id="SVGID_6_" gradientUnits="userSpaceOnUse" x1="45.7073" y1="12.4387" x2="82.7873" y2="-2.0302">
		<stop  offset="0" style="stop-color:#008375"/>
		<stop  offset="1" style="stop-color:#002A3A"/>
	</linearGradient>
	<path class="st5" d="M41.2,15.7c0,0,0.1,0,0.1,0c0.5,0,0.8-0.1,0.8-0.6c0-0.1,0-0.1,0-0.2v-1.6c0-0.4-0.4-0.8-0.8-0.8
		s-0.8,0.4-0.8,0.8v1.8C40.5,15.5,40.8,15.8,41.2,15.7z"/>
	<linearGradient id="SVGID_7_" gradientUnits="userSpaceOnUse" x1="45.7074" y1="17.6387" x2="82.7876" y2="3.1697">
		<stop  offset="0" style="stop-color:#008375"/>
		<stop  offset="1" style="stop-color:#002A3A"/>
	</linearGradient>
	<path class="st6" d="M41.2,20.9c0,0,0.1,0,0.1,0c0.5,0,0.8-0.2,0.8-0.6c0-0.1,0-0.1,0-0.2v-1.6c0-0.4-0.4-0.8-0.8-0.8
		s-0.8,0.4-0.8,0.8v1.8C40.5,20.7,40.8,20.9,41.2,20.9z"/>
	<linearGradient id="SVGID_8_" gradientUnits="userSpaceOnUse" x1="45.7014" y1="22.7234" x2="82.7813" y2="8.2546">
		<stop  offset="0" style="stop-color:#008375"/>
		<stop  offset="1" style="stop-color:#002A3A"/>
	</linearGradient>
	<path class="st7" d="M41.2,26c0,0,0.1,0,0.1,0c0.5,0,0.8-0.3,0.8-0.6c0,0,0-0.1,0-0.2v-1.6c0-0.4-0.4-0.8-0.8-0.8s-0.8,0.4-0.8,0.8
		v1.8C40.5,25.8,40.8,26.1,41.2,26z"/>
	<linearGradient id="SVGID_9_" gradientUnits="userSpaceOnUse" x1="49.1074" y1="12.4386" x2="86.1882" y2="-2.0305">
		<stop  offset="0" style="stop-color:#008375"/>
		<stop  offset="1" style="stop-color:#002A3A"/>
	</linearGradient>
	<path class="st8" d="M44.6,15.7c0,0,0.1,0,0.1,0c0.5,0,0.8-0.1,0.8-0.6c0-0.1,0-0.1,0-0.2v-1.6c0-0.4-0.4-0.8-0.8-0.8
		c-0.4,0-0.8,0.4-0.8,0.8v1.8C43.9,15.5,44.2,15.8,44.6,15.7z"/>
	<linearGradient id="SVGID_10_" gradientUnits="userSpaceOnUse" x1="49.1075" y1="17.6386" x2="86.1885" y2="3.1693">
		<stop  offset="0" style="stop-color:#008375"/>
		<stop  offset="1" style="stop-color:#002A3A"/>
	</linearGradient>
	<path class="st9" d="M44.6,20.9c0,0,0.1,0,0.1,0c0.5,0,0.8-0.2,0.8-0.6c0-0.1,0-0.1,0-0.2v-1.6c0-0.4-0.4-0.8-0.8-0.8
		c-0.4,0-0.8,0.4-0.8,0.8v1.8C43.9,20.7,44.2,20.9,44.6,20.9z"/>
	<linearGradient id="SVGID_11_" gradientUnits="userSpaceOnUse" x1="49.2468" y1="42.9732" x2="87.5334" y2="28.0335">
		<stop  offset="0" style="stop-color:#008375"/>
		<stop  offset="1" style="stop-color:#002A3A"/>
	</linearGradient>
	<path class="st10" d="M44.6,46.4c0,0,0.1,0,0.1,0c0.4,0,0.8-0.2,0.8-0.6c0-0.1,0-0.2,0-0.3v-1.7c0-0.4-0.4-0.8-0.8-0.8
		c-0.4,0-0.8,0.4-0.8,0.8v2C43.9,46.2,44.2,46.4,44.6,46.4z"/>
	<linearGradient id="SVGID_12_" gradientUnits="userSpaceOnUse" x1="49.1015" y1="22.7234" x2="86.1822" y2="8.2542">
		<stop  offset="0" style="stop-color:#008375"/>
		<stop  offset="1" style="stop-color:#002A3A"/>
	</linearGradient>
	<path class="st11" d="M44.6,26c0,0,0.1,0,0.1,0c0.5,0,0.8-0.3,0.8-0.6c0,0,0-0.1,0-0.2v-1.6c0-0.4-0.4-0.8-0.8-0.8
		c-0.4,0-0.8,0.4-0.8,0.8v1.8C43.9,25.8,44.2,26.1,44.6,26z"/>
	<linearGradient id="SVGID_13_" gradientUnits="userSpaceOnUse" x1="49.1014" y1="38.0233" x2="86.1823" y2="23.554">
		<stop  offset="0" style="stop-color:#008375"/>
		<stop  offset="1" style="stop-color:#002A3A"/>
	</linearGradient>
	<path class="st12" d="M44.6,41.3c0,0,0.1,0,0.1,0c0.6,0,0.9-0.4,0.8-0.8v-1.6c0-0.4-0.4-0.8-0.8-0.8c-0.4,0-0.8,0.4-0.8,0.8v1.8
		C43.9,41.1,44.2,41.3,44.6,41.3z"/>
	<linearGradient id="SVGID_14_" gradientUnits="userSpaceOnUse" x1="49.1014" y1="32.9232" x2="86.1822" y2="18.4541">
		<stop  offset="0" style="stop-color:#008375"/>
		<stop  offset="1" style="stop-color:#002A3A"/>
	</linearGradient>
	<path class="st13" d="M44.6,36.2c0,0,0.1,0,0.1,0c0.6,0,0.9-0.4,0.8-0.8v-1.6c0-0.4-0.4-0.8-0.8-0.8c-0.4,0-0.8,0.4-0.8,0.8v1.8
		C43.9,36,44.2,36.3,44.6,36.2z"/>
	<linearGradient id="SVGID_15_" gradientUnits="userSpaceOnUse" x1="49.1014" y1="27.8232" x2="86.1823" y2="13.354">
		<stop  offset="0" style="stop-color:#008375"/>
		<stop  offset="1" style="stop-color:#002A3A"/>
	</linearGradient>
	<path class="st14" d="M44.6,31.1c0,0,0.1,0,0.1,0c0.6,0,0.9-0.4,0.8-0.8v-1.6c0-0.4-0.4-0.8-0.8-0.8c-0.4,0-0.8,0.4-0.8,0.8v1.8
		C43.9,30.9,44.2,31.1,44.6,31.1z"/>
	<linearGradient id="SVGID_16_" gradientUnits="userSpaceOnUse" x1="8.3588" y1="42.2495" x2="44.5354" y2="28.1331">
		<stop  offset="0" style="stop-color:#008375"/>
		<stop  offset="1" style="stop-color:#002A3A"/>
	</linearGradient>
	<path class="st15" d="M4.9,43.1L4.9,43.1c-0.1-0.4-0.5-0.7-0.9-0.8H3.9c-0.3,0-0.6,0.3-0.6,0.7c0,0,0,0.1,0,0.1v1.8
		c0,0.3,0.3,0.6,0.7,0.6c0.1,0,0.1,0,0.1,0c0.6,0,0.9-0.4,0.8-0.8V43.1z"/>
	<linearGradient id="SVGID_17_" gradientUnits="userSpaceOnUse" x1="8.3648" y1="37.1648" x2="44.5418" y2="23.0483">
		<stop  offset="0" style="stop-color:#008375"/>
		<stop  offset="1" style="stop-color:#002A3A"/>
	</linearGradient>
	<path class="st16" d="M4.9,38L4.9,38c-0.1-0.4-0.5-0.7-0.9-0.8H3.9c-0.3,0-0.6,0.3-0.6,0.7c0,0,0,0.1,0,0.1v1.8
		c0,0.3,0.3,0.6,0.7,0.6c0.1,0,0.1,0,0.1,0c0.6,0,0.9-0.2,0.8-0.8V38z"/>
	<linearGradient id="SVGID_18_" gradientUnits="userSpaceOnUse" x1="8.3588" y1="32.1495" x2="44.5358" y2="18.033">
		<stop  offset="0" style="stop-color:#008375"/>
		<stop  offset="1" style="stop-color:#002A3A"/>
	</linearGradient>
	<path class="st17" d="M4.9,33L4.9,33c-0.1-0.4-0.5-0.7-0.9-0.8H3.9c-0.3,0-0.6,0.3-0.6,0.7c0,0,0,0.1,0,0.1v1.8
		c0,0.3,0.3,0.6,0.7,0.6c0.1,0,0.1,0,0.1,0c0.6,0,0.9-0.4,0.8-0.8V33z"/>
	<linearGradient id="SVGID_19_" gradientUnits="userSpaceOnUse" x1="11.8114" y1="42.2058" x2="48.9915" y2="27.6979">
		<stop  offset="0" style="stop-color:#008375"/>
		<stop  offset="1" style="stop-color:#002A3A"/>
	</linearGradient>
	<path class="st18" d="M8.2,43.1c0-0.4-0.3-0.8-0.8-0.8c0,0,0,0,0,0c-0.4,0-0.8,0.3-0.8,0.7c0,0,0,0.1,0,0.1v1.8
		c0,0.3,0.3,0.6,0.7,0.6c0,0,0.1,0,0.1,0c0.6,0,0.9-0.4,0.8-0.8V43.1z"/>
	<linearGradient id="SVGID_20_" gradientUnits="userSpaceOnUse" x1="11.8978" y1="32.1611" x2="48.7404" y2="17.7849">
		<stop  offset="0" style="stop-color:#008375"/>
		<stop  offset="1" style="stop-color:#002A3A"/>
	</linearGradient>
	<path class="st19" d="M8.3,33c0-0.4-0.3-0.8-0.8-0.8c0,0,0,0,0,0c-0.4,0-0.8,0.3-0.8,0.7c0,0,0,0.1,0,0.1v1.8
		c0.1,0.4,0.4,0.7,0.8,0.7c0.6,0,0.9-0.4,0.8-0.8V33z"/>
	<linearGradient id="SVGID_21_" gradientUnits="userSpaceOnUse" x1="11.8175" y1="37.1211" x2="48.9978" y2="22.6131">
		<stop  offset="0" style="stop-color:#008375"/>
		<stop  offset="1" style="stop-color:#002A3A"/>
	</linearGradient>
	<path class="st20" d="M8.2,38c0-0.4-0.3-0.8-0.8-0.8c0,0,0,0,0,0c-0.4,0-0.8,0.3-0.8,0.7c0,0,0,0.1,0,0.1v1.8
		c0,0.3,0.3,0.6,0.7,0.6c0,0,0.1,0,0.1,0c0.6,0,0.9-0.2,0.8-0.8V38z"/>
	<linearGradient id="SVGID_22_" gradientUnits="userSpaceOnUse" x1="22.7675" y1="3.47" x2="65.3041" y2="-13.1281">
		<stop  offset="0" style="stop-color:#008375"/>
		<stop  offset="1" style="stop-color:#002A3A"/>
	</linearGradient>
	<path class="st21" d="M18.5,6.6V4.1c0-0.4-0.4-0.8-0.8-0.8c-0.4,0-0.8,0.4-0.8,0.8v2.8c0.1,0.3,0.4,0.6,0.8,0.6
		c0.4,0.1,0.8-0.2,0.8-0.6C18.5,6.8,18.5,6.7,18.5,6.6z"/>
	<linearGradient id="SVGID_23_" gradientUnits="userSpaceOnUse" x1="26.1641" y1="3.4615" x2="68.7" y2="-13.1363">
		<stop  offset="0" style="stop-color:#008375"/>
		<stop  offset="1" style="stop-color:#002A3A"/>
	</linearGradient>
	<path class="st22" d="M21.1,7.5c0.6,0,0.8-0.4,0.8-0.9V4.1c0-0.4-0.4-0.8-0.8-0.8s-0.8,0.4-0.8,0.8v2.8C20.4,7.3,20.8,7.5,21.1,7.5
		z"/>
</g>
</svg>
