<svg xmlns="http://www.w3.org/2000/svg" viewBox="3440.082 -4954 29.923 29.922">
  <defs>
    <style>
      .cls-1 {
        fill: #fff;
      }
    </style>
  </defs>
  <g id="Company_Services_White" data-name="Company Services_White" transform="translate(3440.082 -4954)">
    <path id="Path_721" data-name="Path 721" class="cls-1" d="M12.108,0H1.785A1.786,1.786,0,0,0,0,1.785V12.108a1.786,1.786,0,0,0,1.785,1.785H12.108a1.786,1.786,0,0,0,1.785-1.785V1.785A1.786,1.786,0,0,0,12.108,0Zm.716,12.108a.717.717,0,0,1-.716.716H1.785a.717.717,0,0,1-.716-.716V1.785a.717.717,0,0,1,.716-.716H12.108a.717.717,0,0,1,.716.716Z" transform="translate(0 0)"/>
    <path id="Path_722" data-name="Path 722" class="cls-1" d="M42.108,0H31.785A1.786,1.786,0,0,0,30,1.785V12.108a1.786,1.786,0,0,0,1.785,1.785H42.108a1.786,1.786,0,0,0,1.785-1.785V1.785A1.786,1.786,0,0,0,42.108,0Zm.716,12.108a.717.717,0,0,1-.716.716H31.785a.717.717,0,0,1-.716-.716V1.785a.717.717,0,0,1,.716-.716H42.108a.717.717,0,0,1,.716.716Z" transform="translate(-13.97 0)"/>
    <path id="Path_723" data-name="Path 723" class="cls-1" d="M12.108,30H1.785A1.786,1.786,0,0,0,0,31.785V42.108a1.786,1.786,0,0,0,1.785,1.785H12.108a1.786,1.786,0,0,0,1.785-1.785V31.785A1.786,1.786,0,0,0,12.108,30Zm.716,12.108a.717.717,0,0,1-.716.716H1.785a.717.717,0,0,1-.716-.716V31.785a.717.717,0,0,1,.716-.716H12.108a.717.717,0,0,1,.716.716Z" transform="translate(0 -13.97)"/>
    <path id="Path_724" data-name="Path 724" class="cls-1" d="M43.358,36.412H37.481V30.534a.534.534,0,0,0-1.069,0v5.878H30.534a.534.534,0,1,0,0,1.069h5.878v5.878a.534.534,0,0,0,1.069,0V37.481h5.878a.534.534,0,1,0,0-1.069Z" transform="translate(-13.97 -13.97)"/>
  </g>
</svg>
