<?xml version="1.0" encoding="utf-8"?>
<!-- Generator: Adobe Illustrator 21.1.0, SVG Export Plug-In . SVG Version: 6.00 Build 0)  -->
<svg version="1.1" id="Layer_1" xmlns="http://www.w3.org/2000/svg" xmlns:xlink="http://www.w3.org/1999/xlink" x="0px" y="0px"
	 viewBox="0 0 22.8 22.8" style="enable-background:new 0 0 22.8 22.8;" xml:space="preserve">
<style type="text/css">
	.st0{fill:#008375;}
</style>
<path class="st0" d="M22.1,16.5c-0.1-0.1-0.1-0.1-0.2-0.2l-2.8-2.8c-0.5-0.5-1.1-0.8-1.8-0.8c-0.7,0-1.3,0.3-1.8,0.8L14,15.1
	c-0.1-0.1-0.2-0.1-0.4-0.2c-0.2-0.1-0.3-0.2-0.5-0.3c-1.6-1-3-2.3-4.2-3.8c-0.5-0.6-1-1.4-1.4-2.1C8,8.3,8.5,7.9,8.8,7.6
	C8.9,7.4,9,7.3,9.2,7.1C9.7,6.7,10,6,10,5.3C10,4.7,9.7,4,9.2,3.6L7.8,2.2C7.6,2,7.5,1.9,7.3,1.7C7,1.4,6.7,1.1,6.4,0.8
	C5.9,0.3,5.3,0,4.6,0C4,0,3.3,0.3,2.9,0.8L1.1,2.5C0.5,3.1,0.1,4,0,4.9C0,6.2,0.2,7.5,0.7,8.7c0.9,2.4,2.2,4.6,3.9,6.5
	c2.2,2.6,4.9,4.8,8,6.2c1.4,0.7,2.9,1.2,4.5,1.3c0,0,0.1,0,0.2,0h0.3c1.1,0,2.1-0.5,2.8-1.3l0,0c0.3-0.3,0.6-0.6,0.9-0.9
	c0.2-0.2,0.5-0.4,0.7-0.7c0.5-0.4,0.8-1,0.8-1.7C22.7,17.6,22.5,17,22.1,16.5z M21,18.8c0,0-0.1,0.1-0.2,0.2
	c-0.2,0.2-0.4,0.4-0.6,0.6c-0.3,0.3-0.7,0.7-1,1c-0.5,0.5-1.1,0.8-1.8,0.8h-0.1c-0.1,0-0.2,0-0.2,0c-1.4-0.1-2.7-0.5-4-1.2
	c-2.9-1.4-5.4-3.4-7.5-5.9C4.1,12.5,2.9,10.4,2,8.2C1.6,7.2,1.4,6.1,1.5,5c0-0.6,0.3-1.1,0.7-1.5l1.7-1.7c0.2-0.2,0.5-0.3,0.7-0.3
	c0.3,0,0.5,0.1,0.7,0.4c0.3,0.3,0.5,0.5,0.8,0.8l2,2c0.2,0.2,0.4,0.5,0.4,0.8c0,0.3-0.2,0.6-0.4,0.8L7.7,6.6C7.2,7,6.9,7.4,6.4,7.8
	C6.1,8.1,6,8.6,6.2,9c0,0,0,0,0,0c0.4,1,1,1.9,1.7,2.7c1.3,1.6,2.8,3,4.5,4.1c0.2,0.1,0.4,0.2,0.6,0.3c0.2,0.1,0.3,0.2,0.5,0.3l0,0
	c0.2,0.1,0.3,0.1,0.5,0.1c0.3,0,0.6-0.1,0.8-0.4l1.8-1.8c0.2-0.2,0.5-0.3,0.7-0.4c0.3,0,0.5,0.1,0.7,0.4l2.8,2.8
	C21.3,17.7,21.4,18.3,21,18.8z"/>
</svg>
