<?xml version="1.0" encoding="utf-8"?>
<!-- Generator: Adobe Illustrator 21.1.0, SVG Export Plug-In . SVG Version: 6.00 Build 0)  -->
<svg version="1.1" id="Layer_1" xmlns="http://www.w3.org/2000/svg" xmlns:xlink="http://www.w3.org/1999/xlink" x="0px" y="0px"
	 viewBox="0 0 14.6 14.6" style="enable-background:new 0 0 14.6 14.6;" xml:space="preserve">
<style type="text/css">
	.st0{fill:#008375;}
</style>
<path class="st0" d="M14.1,10.3c0,0-0.1-0.1-0.1-0.1l-1.7-1.7c-0.3-0.4-0.8-0.5-1.2-0.6c-0.5,0-0.9,0.2-1.2,0.5L8.9,9.4l-0.1,0
	c-0.1,0-0.2-0.1-0.3-0.2c-1-0.6-1.8-1.4-2.5-2.3C5.6,6.5,5.4,6.1,5.2,5.7c0.2-0.2,0.4-0.4,0.6-0.6L6,4.8C6.4,4.5,6.6,4,6.6,3.5
	c0-0.5-0.2-0.9-0.6-1.2L4.9,1.1C4.7,0.9,4.5,0.7,4.3,0.5C4,0.2,3.6,0,3.1,0C2.6,0,2.2,0.2,1.8,0.5L0.8,1.6C0.3,2,0.1,2.6,0,3.2
	c0,0.8,0.1,1.7,0.4,2.4C1,7.2,1.8,8.6,2.9,9.8c1.4,1.7,3.1,3,5,3.9c0.9,0.5,1.9,0.7,2.9,0.9h0.3c0.7,0,1.4-0.3,1.9-0.9
	c0.2-0.2,0.3-0.4,0.5-0.6c0.1-0.1,0.3-0.3,0.4-0.4C14.6,12.1,14.7,11,14.1,10.3z M13.1,11.7C13.1,11.8,13.1,11.8,13.1,11.7
	c-0.2,0.2-0.3,0.3-0.5,0.5c-0.2,0.2-0.4,0.4-0.6,0.6c-0.3,0.3-0.7,0.4-1,0.4h-0.1c-0.8-0.1-1.6-0.3-2.4-0.7
	c-1.8-0.9-3.3-2.1-4.6-3.6c-1-1.1-1.7-2.4-2.2-3.7C1.4,4.6,1.3,4,1.3,3.3c0-0.3,0.1-0.6,0.4-0.8l1.1-1.1C2.9,1.4,3,1.3,3.1,1.3
	c0.1,0,0.2,0.1,0.3,0.2C3.6,1.6,3.7,1.8,3.9,2L4,2c0.1,0.1,0.2,0.2,0.3,0.3l0.9,0.9c0.1,0.1,0.1,0.2,0.2,0.3c0,0.1-0.1,0.2-0.2,0.4
	L4.8,4.2C4.6,4.4,4.3,4.7,4.1,4.9c-0.3,0.2-0.4,0.7-0.2,1c0.3,0.6,0.6,1.2,1.1,1.7c0.8,1,1.8,1.9,2.9,2.6c0.1,0.1,0.3,0.2,0.4,0.2
	c0.1,0,0.2,0.1,0.3,0.2c0.1,0.1,0.3,0.1,0.4,0.1c0.2,0,0.5-0.1,0.6-0.3l1.1-1.1c0.1-0.1,0.2-0.1,0.3-0.2c0.1,0,0.2,0.1,0.3,0.2
	l1.8,1.8C13.2,11.3,13.2,11.6,13.1,11.7z"/>
</svg>
