<?xml version="1.0" encoding="utf-8"?>
<!-- Generator: Adobe Illustrator 21.1.0, SVG Export Plug-In . SVG Version: 6.00 Build 0)  -->
<svg version="1.1" id="Layer_1" xmlns="http://www.w3.org/2000/svg" xmlns:xlink="http://www.w3.org/1999/xlink" x="0px" y="0px"
	 viewBox="0 0 20.6 22" style="enable-background:new 0 0 20.6 22;" xml:space="preserve">
<style type="text/css">
	.st0{fill:#008375;}
</style>
<g>
	<path class="st0" d="M19.8,0c0,0-0.1,0-0.2,0H6.3C3.9,0,2,1.9,2,4.2v1.1H1c-0.5,0-1,0.5-1,1s0.5,1,1,1h1V10H1c-0.5,0-1,0.5-1,1
		s0.5,1,1,1h1v2.7H1c-0.5,0-1,0.5-1,1s0.5,1,1,1h1v1C2,20.1,3.9,22,6.2,22h13.4c0.5,0,1-0.4,1-0.9v-20C20.7,0.6,20.3,0.1,19.8,0z
		 M18.6,19.9H6.3c-1.2,0-2.3-1-2.3-2.2V4.3C4,3,5,2,6.2,2h12.4V19.9z"/>
	<path class="st0" d="M13.5,13.3c-1.8,1.8-4.1,2.5-5.1,1.5L7,13.4l2-2l1.4,1.4l2.7-2.7l-1.4-1.4l2-2l1.4,1.4
		C16.1,9.1,15.4,11.4,13.5,13.3z"/>
</g>
</svg>
