<?xml version="1.0" encoding="utf-8"?>
<!-- Generator: Adobe Illustrator 21.1.0, SVG Export Plug-In . SVG Version: 6.00 Build 0)  -->
<svg version="1.1" id="Layer_1" xmlns="http://www.w3.org/2000/svg" xmlns:xlink="http://www.w3.org/1999/xlink" x="0px" y="0px"
	 viewBox="0 0 15.3 15.2" style="enable-background:new 0 0 15.3 15.2;" xml:space="preserve">
<style type="text/css">
	.st0{fill:#008375;}
</style>
<path class="st0" d="M15.1,1.5c-0.2-0.6-0.7-1-1.2-1.3c-0.6-0.2-1.2-0.2-1.8,0h0c-0.5,0.2-1,0.6-1.4,1H1.5C0.7,1.2,0,1.9,0,2.7v11.1
	c0,0.8,0.7,1.5,1.5,1.5h11.1c0.8,0,1.5-0.7,1.5-1.5v-9c0.5-0.4,0.8-0.9,1.1-1.5C15.3,2.7,15.3,2,15.1,1.5z M10.8,2.8l1.6,1.6
	l-2.3,2.3c-0.9,1-1.9,1.9-2.8,2.8l-0.8,0.8L5,8.7L10.8,2.8z M5.4,11c-0.2,0-0.5,0.1-0.7,0.1c-0.2,0.1-0.5,0.1-0.8,0.2
	c0.1-0.5,0.2-1,0.3-1.5L5.4,11z M12.7,13.7c0,0.1-0.1,0.2-0.2,0.2h-11c-0.1,0-0.2-0.1-0.2-0.2V2.7c0-0.1,0.1-0.2,0.2-0.2h7.9
	L4.7,7.1c-0.6,0.4-1.1,1-1.5,1.6l0,0.1C3,9.3,2.9,9.9,2.8,10.5L2.5,12c0,0.2,0,0.3,0.1,0.5c0.1,0.1,0.2,0.3,0.4,0.3
	c0.1,0,0.2,0,0.3,0c0.6-0.1,1.3-0.3,1.9-0.4c0.4-0.1,0.8-0.2,1.2-0.3c0.1,0,0.1,0,0.2-0.1c0.1,0,0.2-0.1,0.3-0.2l5.9-5.9V13.7z
	 M13.8,2.9L13.8,2.9c-0.1,0.2-0.3,0.5-0.5,0.7l-1.6-1.6c0.2-0.2,0.4-0.3,0.7-0.5c0.5-0.3,1.1-0.1,1.4,0.4C14,2.1,14,2.6,13.8,2.9z"
	/>
</svg>
