<?xml version="1.0" encoding="utf-8"?>
<!-- Generator: Adobe Illustrator 21.1.0, SVG Export Plug-In . SVG Version: 6.00 Build 0)  -->
<svg version="1.1" id="Layer_1" xmlns="http://www.w3.org/2000/svg" xmlns:xlink="http://www.w3.org/1999/xlink" x="0px" y="0px"
	 viewBox="0 0 26 22.9" style="enable-background:new 0 0 26 22.9;" xml:space="preserve">
<style type="text/css">
	.st0{fill:#525252;}
</style>
<g>
	<path class="st0" d="M11,18.7c0,0.5-0.4,0.8-0.9,0.8H4.2c-0.5,0-0.8-0.4-0.8-0.9c0-0.5,0.4-0.8,0.9-0.8h5.9
		C10.6,17.9,11,18.2,11,18.7z"/>
	<path class="st0" d="M19.6,18.7c0,0.5-0.4,0.8-0.9,0.8h-5.9c-0.5,0-0.8-0.4-0.8-0.9c0-0.5,0.4-0.8,0.9-0.8h5.9
		C19.3,17.9,19.6,18.2,19.6,18.7z"/>
	<path class="st0" d="M19.6,4.3c0,0.5-0.4,0.8-0.9,0.8H4.2c-0.5,0-0.8-0.4-0.8-0.9c0-0.5,0.4-0.8,0.9-0.8h14.5
		C19.3,3.4,19.6,3.8,19.6,4.3z"/>
	<path class="st0" d="M19.6,7.2c0,0.5-0.4,0.8-0.9,0.8h-5.9C12.4,8,12,7.6,12,7.1c0-0.5,0.4-0.8,0.9-0.8h5.9
		C19.3,6.3,19.6,6.7,19.6,7.2z"/>
	<path class="st0" d="M19.6,10.1c0,0.5-0.4,0.8-0.9,0.8h-5.9c-0.5,0-0.8-0.4-0.8-0.9c0-0.5,0.4-0.8,0.9-0.8h5.9
		C19.3,9.2,19.6,9.6,19.6,10.1z"/>
	<path class="st0" d="M19.6,12.9c0,0.5-0.4,0.8-0.9,0.8h-5.9c-0.5,0-0.8-0.4-0.8-0.9c0-0.5,0.4-0.8,0.9-0.8h5.9
		C19.3,12.1,19.6,12.5,19.6,12.9z"/>
	<path class="st0" d="M19.6,15.8c0,0.5-0.4,0.8-0.9,0.8h-5.9c-0.5,0-0.8-0.4-0.8-0.9c0-0.5,0.4-0.8,0.9-0.8h5.9
		C19.3,15,19.6,15.4,19.6,15.8z"/>
	<path class="st0" d="M11,15.8c0,0.5-0.4,0.8-0.9,0.8H4.2c-0.5,0-0.8-0.4-0.8-0.9c0-0.5,0.4-0.8,0.9-0.8h5.9
		C10.6,15,11,15.4,11,15.8z"/>
	<path class="st0" d="M10.1,6.3H4.3c-0.5,0-0.8,0.4-0.8,0.8V13c0,0.5,0.4,0.8,0.8,0.8c0,0,0,0,0,0h5.8c0.5,0,0.8-0.4,0.8-0.8V7.1
		C11,6.7,10.6,6.3,10.1,6.3z M9.2,12.2H5.1V8.1h4.1V12.2z"/>
	<path class="st0" d="M24.5,2.9H23V1.4C23,0.6,22.4,0,21.6,0H1.4C0.6,0,0,0.6,0,1.4v18.4c0,1.7,1.4,3.1,3.1,3.2h19.7
		c1.7,0,3.1-1.4,3.2-3.1V4.3C25.9,3.5,25.3,2.9,24.5,2.9z M24.3,19.8c0,0.8-0.6,1.5-1.5,1.5c0,0,0,0,0,0H3.2c-0.8,0-1.5-0.6-1.5-1.4
		V1.7h19.7v17.3c0,0.9,0.8,1.7,1.8,1.7h0c0.4,0,0.8-0.4,0.8-0.8c0-0.5-0.3-0.9-0.8-0.9h-0.1V4.6h1.2V19.8z"/>
</g>
</svg>
