<?xml version="1.0" encoding="utf-8"?>
<!-- Generator: Adobe Illustrator 21.1.0, SVG Export Plug-In . SVG Version: 6.00 Build 0)  -->
<svg version="1.1" id="Layer_1" xmlns="http://www.w3.org/2000/svg" xmlns:xlink="http://www.w3.org/1999/xlink" x="0px" y="0px"
	 viewBox="0 0 15.8 11.4" style="enable-background:new 0 0 15.8 11.4;" xml:space="preserve">
<style type="text/css">
	.st0{fill:#008375;}
</style>
<path class="st0" d="M14.4,0H1.5C0.7,0,0,0.7,0,1.5v8.5c0,0.8,0.7,1.5,1.5,1.5h12.8c0.8,0,1.5-0.7,1.5-1.5V1.5
	C15.8,0.7,15.2,0,14.4,0z M1.5,1.3h12.8c0,0,0,0,0.1,0L8.1,6.1C8,6.3,7.7,6.3,7.6,6.1L1.4,1.3C1.4,1.3,1.5,1.3,1.5,1.3z M1.3,9.2
	V2.9l4,3.1L1.3,9.2z M2.2,10.2l4.2-3.3l0.4,0.3c0.3,0.2,0.7,0.3,1,0.3c0.4,0,0.8-0.1,1.1-0.3l0.4-0.3l4.3,3.3H2.2z M14.5,9.2L10.4,6
	l4.1-3.2V9.2z"/>
</svg>
