<?xml version="1.0" encoding="utf-8"?>
<!-- Generator: Adobe Illustrator 21.1.0, SVG Export Plug-In . SVG Version: 6.00 Build 0)  -->
<svg version="1.1" id="Layer_1" xmlns="http://www.w3.org/2000/svg" xmlns:xlink="http://www.w3.org/1999/xlink" x="0px" y="0px"
	 viewBox="0 0 28 28" style="enable-background:new 0 0 28 28;" xml:space="preserve">
<g>
	<path d="M14,0C6.3,0,0,6.3,0,14s6.3,14,14,14s14-6.3,14-14S21.7,0,14,0z M14,26.7C7,26.7,1.3,21,1.3,14S7,1.3,14,1.3
		S26.7,7,26.7,14S21,26.7,14,26.7z"/>
	<path d="M14.5,10.4v1.2h2.8L16.9,14h-2.4v7.2h-2.4V14h-1.5v-2.4h1.5v-1.4c0-2,0.6-3.4,2.7-3.4h2.5v2.4h-1.8
		C14.7,9.2,14.5,9.8,14.5,10.4z"/>
</g>
</svg>
