<?xml version="1.0" encoding="utf-8"?>
<!-- Generator: Adobe Illustrator 21.1.0, SVG Export Plug-In . SVG Version: 6.00 Build 0)  -->
<svg version="1.1" id="Layer_1" xmlns="http://www.w3.org/2000/svg" xmlns:xlink="http://www.w3.org/1999/xlink" x="0px" y="0px"
	 viewBox="0 0 28 28" style="enable-background:new 0 0 28 28;" xml:space="preserve">
<g>
	<rect x="8.2" y="11.1" width="2.2" height="8.8"/>
	<path d="M10.3,9.2c0,0.6-0.5,1.1-1.1,1.1c-0.6,0-1.1-0.5-1.1-1.1s0.5-1.1,1.1-1.1C9.8,8.1,10.3,8.6,10.3,9.2z"/>
	<path d="M19.8,13.8v6.1l-2.2,0v-5.1c0-0.2-0.5-1.4-1.5-1.5c0,0,0,0,0,0c-1-0.2-2,0.5-2.2,1.5v5.1h-2.2v-8.8H14v1.5
		c0.7-0.9,1.8-1.4,2.9-1.5h0.2C18.6,11,19.8,12.3,19.8,13.8z"/>
	<path d="M14,0C6.3,0,0,6.3,0,14s6.3,14,14,14s14-6.3,14-14S21.7,0,14,0z M14,26.7C7,26.7,1.3,21,1.3,14S7,1.3,14,1.3
		S26.7,7,26.7,14S21,26.7,14,26.7z"/>
</g>
</svg>
