<?xml version="1.0" encoding="utf-8"?>
<!-- Generator: Adobe Illustrator 21.1.0, SVG Export Plug-In . SVG Version: 6.00 Build 0)  -->
<svg version="1.1" id="Layer_1" xmlns="http://www.w3.org/2000/svg" xmlns:xlink="http://www.w3.org/1999/xlink" x="0px" y="0px"
	 viewBox="0 0 28.4 28.9" style="enable-background:new 0 0 28.4 28.9;" xml:space="preserve">
<style type="text/css">
	.st0{fill:#525252;}
</style>
<g>
	<path class="st0" d="M27.9,9.7l-4.7-3.4V2.6c0-0.3-0.2-0.6-0.6-0.6h-5.3l-2.8-2C14.3,0,14,0,13.8,0.1l-2.8,2H5.8
		c-0.3,0-0.6,0.2-0.6,0.6v3.6L0.4,9.7C0.2,9.8,0,10,0,10.3v18.1c0,0.3,0.2,0.5,0.5,0.6h27.3c0.3,0.1,0.5-0.2,0.6-0.6v-18
		C28.3,10,28.2,9.8,27.9,9.7z M23.2,7.7l3.5,2.6l-3.5,2.5V7.7z M14.1,1l1.1,0.8H13L14.1,1z M6.2,3.1H22v10.7l-7.9,5.7l-7.9-5.7V3.1z
		 M5.1,7.5v5.3l-3.6-2.7L5.1,7.5z M1,11.3l10.3,7.5L1,27.1V11.3z M2.2,27.8l10.2-8.2l1.4,1.1c0.1,0.2,0.4,0.2,0.6,0.1c0,0,0,0,0,0
		c0,0,0.1,0,0.1-0.1l1.4-1.1l10.2,8.2H2.2z M27.2,27.1l-10.3-8.2l10.3-7.6V27.1z"/>
	<rect x="9.9" y="6.1" class="st0" width="8.3" height="1.1"/>
	<rect x="9.9" y="9.9" class="st0" width="8.3" height="1.1"/>
	<rect x="9.9" y="13.7" class="st0" width="8.3" height="1.1"/>
</g>
</svg>
