<?xml version="1.0" encoding="utf-8"?>
<!-- Generator: Adobe Illustrator 21.1.0, SVG Export Plug-In . SVG Version: 6.00 Build 0)  -->
<svg version="1.1" id="Layer_1" xmlns="http://www.w3.org/2000/svg" xmlns:xlink="http://www.w3.org/1999/xlink" x="0px" y="0px"
	 viewBox="0 0 15.8 12.1" style="enable-background:new 0 0 15.8 12.1;" xml:space="preserve">
<style type="text/css">
	.st0{fill:#002A3A;}
</style>
<g>
	<path class="st0" d="M10,8.1c-0.3,0-0.6,0.3-0.6,0.6V10c0,0.5-0.4,1-1,1H2.2c-0.5,0-1-0.4-1-1V2.2c0-0.5,0.4-1,1-1h6.3
		c0.5,0,1,0.4,1,1v1.3C9.5,3.7,9.7,4,10,4c0.3,0,0.6-0.3,0.6-0.6V2.2C10.6,1,9.7,0,8.5,0H2.2C1,0,0,1,0,2.2V10c0,1.2,1,2.2,2.2,2.2
		h6.3c1.2,0,2.2-1,2.2-2.2V8.7C10.6,8.4,10.4,8.1,10,8.1z"/>
	<path class="st0" d="M15.7,5.7L13,3c-0.2-0.2-0.6-0.2-0.8,0c-0.2,0.2-0.2,0.6,0,0.8l1.6,1.6H7.1c-0.3,0-0.6,0.3-0.6,0.6
		c0,0.3,0.3,0.6,0.6,0.6h6.8l-1.6,1.6c-0.2,0.2-0.2,0.6,0,0.8l0,0c0.1,0.1,0.3,0.2,0.4,0.2c0.2,0,0.3-0.1,0.4-0.2l2.6-2.6
		C15.9,6.3,15.9,5.9,15.7,5.7z"/>
</g>
</svg>
