<?xml version="1.0" encoding="utf-8"?>
<!-- Generator: Adobe Illustrator 21.1.0, SVG Export Plug-In . SVG Version: 6.00 Build 0)  -->
<svg version="1.1" id="Layer_1" xmlns="http://www.w3.org/2000/svg" xmlns:xlink="http://www.w3.org/1999/xlink" x="0px" y="0px"
	 viewBox="0 0 57.4 57.3" style="enable-background:new 0 0 57.4 57.3;" xml:space="preserve">
<style type="text/css">
	.st0{fill:#86754D;}
</style>
<path class="st0" d="M49.8,28.7l7.5-1.5l-7.6-0.7l7.3-2.3l-7.7,0.1l7-3l-7.6,0.9l6.7-3.8L48,20l6.3-4.4L47,18.1l5.7-5.1l-7,3.2
	l5.3-5.6l-6.6,3.9L49,8.4l-6.1,4.5l3.9-6.6l-5.7,5.2l3.2-7l-5.1,5.7l2.5-7.2l-4.4,6.3L39,1.9l-3.8,6.7L36.1,1l-3,7l0.1-7.6l-2.3,7.3
	L30.2,0l-1.5,7.5L27.2,0l-0.7,7.6l-2.2-7.3L24.3,8l-3-7.1l0.9,7.6l-3.8-6.7L20,9.3l-4.4-6.2l2.5,7.2l-5-5.7l3.2,7l-5.7-5.2l3.9,6.6
	L8.4,8.4l4.6,6.1l-6.6-3.9l5.2,5.6l-7-3.2l5.7,5.1l-7.2-2.5L9.4,20l-7.5-1.7l6.7,3.8l-7.6-0.9l7.1,3l-7.7-0.1l7.3,2.3L0,27.1
	l7.5,1.5L0,30.2l7.6,0.7l-7.3,2.3L8,33.1l-7,3l7.6-0.9L1.8,39l7.5-1.7l-6.2,4.5l7.2-2.5l-5.7,5.1l7-3.2l-5.2,5.7l6.6-4L8.4,49
	l6.1-4.6L10.6,51l5.7-5.2l-3.2,7l5-5.7l-2.5,7.2L20,48l-1.7,7.5l3.8-6.7l-0.9,7.6l3-7L24.2,57l2.3-7.3l0.7,7.6l1.5-7.5l1.5,7.5
	l0.7-7.6l2.3,7.3l-0.1-7.6l3,7l-0.9-7.6l3.8,6.7L37.3,48l4.4,6.3L39.3,47l5.1,5.8l-3.2-7l5.6,5.2l-4-6.6L49,49l-4.5-6.2l6.6,3.9
	l-5.2-5.7l7,3.2L47,39.2l7.2,2.5L48,37.3l7.5,1.7l-6.7-3.8l7.6,0.9l-7-3.1l7.6,0.1l-7.3-2.3l7.6-0.7L49.8,28.7z M28.7,45.4
	L28.7,45.4c-9.3,0-16.8-7.5-16.8-16.7c0-9.2,7.5-16.7,16.7-16.7c9.2,0,16.7,7.5,16.7,16.7C45.4,37.9,37.9,45.4,28.7,45.4z"/>
</svg>
