<?xml version="1.0" encoding="utf-8"?>
<!-- Generator: Adobe Illustrator 21.1.0, SVG Export Plug-In . SVG Version: 6.00 Build 0)  -->
<svg version="1.1" id="Layer_1" xmlns="http://www.w3.org/2000/svg" xmlns:xlink="http://www.w3.org/1999/xlink" x="0px" y="0px"
	 viewBox="0 0 250 34.6" style="enable-background:new 0 0 250 34.6;" xml:space="preserve">
<style type="text/css">
	.st0{fill:#525252;}
</style>
<g id="Group_282" transform="translate(55 -4966)">
	<path id="Path_327" class="st0" d="M58.6,4973.2v4.2c-1.3,0.3-2.7,0.5-4.1,0.5c-2,0-3.4-0.3-4.5-1.6c-0.6-0.8-1-1.8-0.9-2.8
		c0-3.5,3-5,5.8-5c1.1,0,2.1,0.2,3.1,0.5v1.8c-1-0.7-2.1-1.1-3.3-1.1c-2.3,0.1-2.8,1.7-2.8,3.3c0,1.9,0.7,3.4,3.1,3.4
		c0.4,0,0.7-0.1,0.9-0.1v-3.2h2.6L58.6,4973.2z"/>
	<path id="Path_328" class="st0" d="M127.3,4968.5l3,6.2l2.9-6.2h2.3l0.3,9h-2.5l-0.1-5.9l-2.9,5.9h-1.2l-2.8-6v6h-1.8l0.6-9H127.3z
		"/>
	<path id="Path_329" class="st0" d="M157.8,4973.5c0,0,2.3-0.4,2.3-2.5c0-0.7-0.3-1.3-0.8-1.8c-0.8-0.7-1.8-0.7-3-0.7h-3.8v9.1h2.6
		v-3.8h0.6l2.3,3.8h2.6L157.8,4973.5z M155.7,4972.7h-0.9v-2.9h0.9c1,0,1.7,0.3,1.7,1.4C157.4,4972.4,156.8,4972.7,155.7,4972.7z"/>
	<path id="Path_330" class="st0" d="M-48.8,4968.6h-2l-4.3,8.9h2.1l0.8-2.3h3.3l0.7,2.3h2.9L-48.8,4968.6z M-51.6,4974l1.2-3.1
		l1.1,3.1H-51.6z"/>
	<path id="Path_331" class="st0" d="M-36.6,4972.4c0.4-0.1,0.8-0.3,1.1-0.6c0.4-0.3,0.6-0.8,0.6-1.2c0-0.5-0.2-1.1-0.6-1.5
		c-0.9-0.4-1.9-0.6-2.9-0.5h-3.7v9.1h3.2c2.1,0,2.8-0.2,3.4-0.6c0.8-0.5,1.2-1.3,1.2-2.2C-34.2,4973.5-35.3,4972.4-36.6,4972.4z
		 M-39.6,4969.7h1.2c0.3,0.1,0.8,0.2,0.8,1.2c0,1.4-0.7,1.4-1.9,1.4h-0.2v-2.6H-39.6z M-38.1,4976.2c-0.2,0.1-0.2,0.1-1.5,0.1h-0.1
		v-2.9h0.3c1.2,0,1.5,0,1.9,0.2c0.3,0.1,0.5,0.5,0.5,1.1C-37,4975.8-37.4,4976.1-38.1,4976.2z"/>
	<path id="Path_332" class="st0" d="M-28.2,4968.6v5c0,1.4,0,2.5,2.1,2.5c2.2,0,2.2-1,2.2-3.1v-4.4h1.9v4.9c0,1-0.1,2.8-1.7,3.6
		c-0.9,0.5-2,0.7-3,0.6c-3.8,0-3.8-2.4-3.8-4.1v-5.1h2.3V4968.6z"/>
	<path id="Path_333" class="st0" d="M-4.1,4970.1c-1.2-1.5-2.9-1.6-5.3-1.6h-3.4v9.1h3.1c1.2,0.1,2.4-0.1,3.5-0.4
		c1.9-0.6,3.1-2.4,3-4.4C-3.1,4971.9-3.5,4970.9-4.1,4970.1z M-9.7,4976.3h-0.6v-6.7H-9c1.1,0,3.1,0,3.1,3.2
		C-5.9,4976.3-7.8,4976.3-9.7,4976.3z"/>
	<path id="Path_334" class="st0" d="M3,4968.6v3.4h3.7v-3.4h2.5v8.9H6.7v-3.9H3v3.9H0.5v-8.9H3z"/>
	<path id="Path_335" class="st0" d="M19.1,4968.6H17l-4.3,8.9h2.1l0.9-2.3H19l0.8,2.3h2.9L19.1,4968.6z M16.2,4974l1.2-3.1l1.1,3.1
		H16.2z"/>
	<path id="Path_336" class="st0" d="M31.4,4972.4c0.4-0.1,0.8-0.3,1.1-0.6c0.4-0.3,0.6-0.8,0.6-1.2c0-0.5-0.2-1.1-0.6-1.5
		c-0.9-0.4-1.9-0.6-2.9-0.5h-3.7v9.1h3.2c2.1,0,2.8-0.2,3.4-0.6c0.8-0.5,1.2-1.3,1.2-2.2C33.8,4973.5,32.7,4972.4,31.4,4972.4z
		 M28.5,4969.7h1.2c0.3,0.1,0.8,0.2,0.8,1.2c0,1.4-0.7,1.4-1.9,1.4h-0.2v-2.6H28.5z M30,4976.2c-0.2,0.1-0.2,0.1-1.6,0.1h-0.1v-2.9
		h0.3c1.2,0,1.5,0,1.9,0.2c0.3,0.1,0.5,0.5,0.5,1.1C31.1,4975.8,30.7,4976.1,30,4976.2z"/>
	<rect id="Rectangle_116" x="37.7" y="4968.6" class="st0" width="2.6" height="8.9"/>
	<path id="Path_337" class="st0" d="M81.4,4969.9c-1.2-1-2.7-1.6-4.3-1.6c-2.6,0-5.3,1.4-5.3,4.8c0,2.8,2,4.5,5,4.5
		c3.1,0,5.6-1.7,5.6-4.8C82.5,4971.7,82.1,4970.7,81.4,4969.9z M77.3,4976.4c-1.7,0-2.7-1.4-2.7-3.6c0-1.7,0.7-3.1,2.4-3.1
		c1.9,0,2.7,1.7,2.7,3.6C79.7,4975.5,78.7,4976.4,77.3,4976.4z"/>
	<path id="Path_338" class="st0" d="M91.5,4972.4c0.4-0.1,0.8-0.3,1.1-0.6c0.4-0.3,0.7-0.8,0.6-1.2c0-0.5-0.2-1.1-0.6-1.5
		c-0.9-0.4-1.9-0.6-2.9-0.5H86v9.1h3.2c2.1,0,2.8-0.2,3.4-0.6c0.8-0.5,1.2-1.3,1.2-2.2C93.8,4973.5,92.8,4972.4,91.5,4972.4z
		 M88.6,4969.7h1.2c0.3,0.1,0.8,0.2,0.8,1.2c0,1.4-0.7,1.4-1.9,1.4h-0.2L88.6,4969.7L88.6,4969.7z M90.1,4976.2
		c-0.2,0.1-0.2,0.1-1.6,0.1h-0.1v-2.9h0.3c1.2,0,1.5,0,1.9,0.2c0.3,0.1,0.5,0.5,0.5,1.1C91.2,4975.8,90.7,4976.1,90.1,4976.2z"/>
	<path id="Path_339" class="st0" d="M102.7,4968.6h-2.1l-4.3,8.9h2.1l0.9-2.3h3.2l0.8,2.3h2.9L102.7,4968.6z M99.8,4974l1.2-3.1
		l1.1,3.1H99.8z"/>
	<path id="Path_340" class="st0" d="M112,4968.6v7.5h4.2v1.5h-6.8v-8.9h2.6V4968.6z"/>
	<path id="Path_341" class="st0" d="M65.2,4968.6v7.5h4.2v1.5h-6.8v-8.9h2.6V4968.6z"/>
	<path id="Path_342" class="st0" d="M145.2,4968.6h-2.1l-4.3,8.9h2.1l0.9-2.3h3.2l0.8,2.3h2.9L145.2,4968.6z M142.3,4974l1.2-3.1
		l1.2,3.1H142.3z"/>
	<path id="Path_343" class="st0" d="M169.2,4972.3l3.5-3.6v-0.1h-2.6l-3.4,4.4l3.1,4.7h3.2L169.2,4972.3z M164,4968.6v8.9h2.6v-8.9
		H164z"/>
	<path id="Path_344" class="st0" d="M183,4968.6v1.2h-4.5v2.3h3.9v1.4h-3.9v2.6h4.6v1.5H176v-8.9h7V4968.6z"/>
	<path id="Path_345" class="st0" d="M195,4968.6v1.2h-3.3v7.7h-2.6v-7.7h-3.3v-1.2H195z"/>
	<path id="Path_346" class="st0" d="M72.2,4998.8v1.8h2.3v-1.8H72.2z M57.8,4998.8v1.8h2.3v-1.8H57.8z M54.8,4998.8v1.8h2.3v-1.8
		H54.8z M-26.6,4998.8v1.8h2.3v-1.8H-26.6z M-29.6,4998.8v1.8h2.3v-1.8H-29.6z"/>
	<path id="Path_347" class="st0" d="M0.5,4986.1v7.4c0,1.2-0.5,2-1.9,2h-1.8c-0.6,0-1.2-0.1-1.7-0.3v-0.7c0-2.3-1.9-3.3-4.1-3.3
		c-1.7,0-3.6,0.6-4,2.9c-0.1,0.9-0.8,1.3-2,1.3v0.2l0.1,1.1c0.1,0,0.1,0,0.2,0l0,0c0.7,0,1.4-0.2,2.1-0.5c0.3,0.7,1.2,1.9,3.5,1.9
		c2.1,0,2.9-0.6,3.5-1.7c0.7,0.3,1.4,0.4,2.2,0.4h3c2.2,0,3.2-1,3.2-3.2v-7.5L0.5,4986.1L0.5,4986.1z M-8.8,4996.9H-9
		c-0.8,0-1.5-0.8-1.5-2.3c0-1.7,0.7-2.3,1.6-2.3c1,0,1.6,0.8,1.6,2.3C-7.3,4996-7.6,4996.9-8.8,4996.9z"/>
	<path id="Path_348" class="st0" d="M8.7,4996.8c-0.8,0-2-0.3-2-2.4v-8.3h2.6v8.4c0,0.9,0.3,0.9,0.6,0.9h6.3l0.1,1.4H8.7z"/>
	<path id="Path_349" class="st0" d="M29.8,4995.5H23l2.4-4.5c-0.7-0.9-3.1-1.8-4.6-1.8c-1.8,0-3.5,0.6-4.9,1.7
		c0.7,1.5,1.8,3.1,2.6,4.6H16l0.1,1.4H31L29.8,4995.5z M20.9,4995.1l-2.3-4.3c0.7-0.3,1.5-0.5,2.3-0.5c0.7,0,1.4,0.1,2.1,0.4
		L20.9,4995.1z"/>
	<path id="Path_350" class="st0" d="M29.6,4995.5c1.4,0,1.9-0.8,1.9-2.2v-7.2h2.6v7.5c0,2.2-1,3.2-3.2,3.2L29.6,4995.5z"/>
	<rect id="Rectangle_117" x="37.8" y="4986.1" class="st0" width="2.6" height="10.7"/>
	<path id="Path_351" class="st0" d="M-22.9,4996.3c-2,0.3-4.1,0.5-6.1,0.5c-2.6,0-4.7-1.2-4.7-3.8v-4h2.6v4c0,1.7,0.6,2.5,2.3,2.5
		c1.1,0,2.2-0.1,3.2-0.2c-0.9-4.1-1.6-6.1-1.6-6.1h3.7c1.9,0,3.8,0.7,4.2,2.7l0.6,2.8c0.2,0.8,0.8,0.9,1.5,0.9h2.6l0.1,1.4h-3.6
		c-1.1,0-2.6-0.1-3-2.1l-0.6-2.7c-0.3-1.4-0.6-2-1.5-2h-1.1L-22.9,4996.3z"/>
	<path id="Path_352" class="st0" d="M61.3,4996.3c-2,0.3-4.1,0.5-6.1,0.5c-2.6,0-4.7-1.2-4.7-3.8v-4h2.6v4c0,1.7,0.6,2.5,2.3,2.5
		c1.1,0,2.2-0.1,3.2-0.2c-0.9-4.1-1.6-6.1-1.6-6.1h3.9c1.9,0,3.8,0.7,4.2,2.7l0.6,2.8c0.2,0.8,0.8,0.9,1.5,0.9h2l0.2,1.4h-3.1
		c-1.1,0-2.6-0.1-3-2.1l-0.6-2.7c-0.3-1.4-0.6-2-1.5-2H60L61.3,4996.3z"/>
	<path id="Path_353" class="st0" d="M75.8,4996.8c-0.9,0-1.8-0.2-2.6-0.6c-0.5,0.4-2.1,0.6-3.9,0.6l-0.2-1.4c2.3,0,2.5-0.5,2.5-1.9
		v-4.6h2.6v4.4c0,0.6-0.1,1.1-0.2,1.7c0.5,0.4,1.1,0.5,1.8,0.4h3l0.3,1.4H75.8z"/>
	<path id="Path_354" class="st0" d="M87.6,4988.8c-1.6,0-3.6,0.7-5.4,3.4v-6.2h-2.6v9.5H77l-0.7,1.4h11.9c0.6,0,1.2-0.1,1.8-0.4
		c0.3-0.2,0.5-0.3,0.6-0.5c0.8-0.9,1.1-2,1-3.1C91.6,4990.1,90.2,4988.8,87.6,4988.8z M87,4995.5h-4.9c1.1-3.4,3.2-5.5,5.3-5.5
		c1.2,0,1.6,1.1,1.6,2.8S88.3,4995.5,87,4995.5z"/>
	<path id="Path_355" class="st0" d="M155.1,4995.7l-6-0.1v-5c-1.2-0.3-2.5-0.4-3.7-0.4c-2,0-3.7,1-3.7,3.3s1.3,3.3,3,3.3h1.9
		c0,1-0.3,2-1.7,2h-1.7v1.3h2.2c2.4,0,3.6-1,3.7-3.3h7.2L155.1,4995.7z M146.6,4995.6h-0.9c-0.8,0-1.5-0.6-1.5-2.1
		c0-1.6,0.7-2.3,1.6-2.3c0.4,0,0.6,0.1,0.8,0.1L146.6,4995.6L146.6,4995.6z"/>
	<path id="Path_356" class="st0" d="M102.1,4995.5v-4.9c-1.2-0.3-2.5-0.4-3.8-0.4c-2,0-3.7,1-3.7,3.3s1.3,3.3,3,3.3h1.9
		c0,1-0.3,2-1.7,2h-1.7H96v1.4h2.2c2.4,0,3.6-1,3.7-3.3h4.4l0.1-1.4H102.1z M99.5,4995.6h-0.9c-0.8,0-1.5-0.6-1.5-2.1
		c0-1.6,0.7-2.3,1.6-2.3c0.4,0,0.6,0.1,0.8,0.1V4995.6z"/>
	<path id="Path_357" class="st0" d="M105.1,4995.5c1.4,0,1.9-0.7,1.9-2v-4.5h2.6v4.6c0,2.2-1,3.2-3.2,3.2L105.1,4995.5z"/>
	<path id="Path_358" class="st0" d="M113.4,4986.1v10.7h2.6v-10.7H113.4z M115.5,4983.9c-0.3,0-0.8-0.1-0.8-0.6
		c0-0.2,0.2-0.4,0.4-0.4c0.3,0,0.4,0.2,0.5,0.4l0.7-0.7c-0.2-0.5-0.7-0.8-1.2-0.7c-0.1,0-0.2,0-0.3,0c-0.7,0-1.2,0.7-1.2,1.4
		c0,0.2,0.1,0.4,0.2,0.6h-0.5l-0.4,1.1h3.1l0.4-1L115.5,4983.9L115.5,4983.9z"/>
	<path id="Path_359" class="st0" d="M136.5,4990.8c-0.8-1-2-1.6-3.3-1.6c-0.1,0-0.2,0-0.4,0c-1.7,0-3.1,1.5-3.1,3.2
		c0,2.2,1.2,3.2,3,3.2h0.3c0.4-0.1,0.7-0.2,1-0.3v2.2c-0.9,0.1-2.9,0.2-3.9,0.2c-1.5,0-2.8-0.4-2.8-2.5v-5h-2.6v4.9
		c0,3.1,2.1,3.8,4.5,3.8c0.8,0,7.1-0.4,7.4-0.4h0.1v-6.1C136.8,4991.9,136.7,4991.3,136.5,4990.8z M133.2,4994.3
		c-0.7,0-1.1-0.7-1.1-2.1s0.4-2.1,1.1-2.1c0.7,0,1.1,0.7,1.1,2.1C134.3,4993.6,133.9,4994.3,133.2,4994.3z"/>
	<path id="Path_360" class="st0" d="M147.4,4995.6h7.7c1,0,1.5-0.7,1.5-2v-3l2.6-0.2v3.5c0,0.5-0.1,0.9-0.2,1.4
		c0.4,0.3,1.1,0.3,2.7,0.3c1,0,1.6-0.8,1.6-2.2v-3.5l2.6-0.2v4.2c0,0.5-0.1,0.9-0.2,1.4c1,0.3,2.1,0.5,3.2,0.4c1,0,1.7-0.7,1.7-2
		v-4.3l2.6-0.2v4.6c0,2.2-1.4,3.2-3.6,3.2c-1.6,0.1-3.1-0.1-4.6-0.7c-1,0.6-2.1,0.8-3.2,0.7c-1.3,0-2.5-0.1-3.7-0.5
		c-0.5,0.3-1.1,0.4-1.7,0.4h-8.6L147.4,4995.6z"/>
	<rect id="Rectangle_118" x="130.4" y="4986.1" class="st0" width="2.3" height="1.8"/>
	<rect id="Rectangle_119" x="83.7" y="4986.1" class="st0" width="2.3" height="1.8"/>
	<rect id="Rectangle_120" x="133.6" y="4986.1" class="st0" width="2.3" height="1.8"/>
	<rect id="Rectangle_121" x="106.1" y="4998.8" class="st0" width="2.3" height="1.8"/>
</g>
</svg>
