<?xml version="1.0" encoding="utf-8"?>
<!-- Generator: Adobe Illustrator 21.1.0, SVG Export Plug-In . SVG Version: 6.00 Build 0)  -->
<svg version="1.1" id="Layer_1" xmlns="http://www.w3.org/2000/svg" xmlns:xlink="http://www.w3.org/1999/xlink" x="0px" y="0px"
	 viewBox="0 0 127 36.3" style="enable-background:new 0 0 127 36.3;" xml:space="preserve">
<style type="text/css">
	.st0{fill:#022A3A;}
</style>
<g>
	<path class="st0" d="M2.6,5.9h2.9l0.7,2h2.5L5.5,0H3.8L0,7.9h1.8L2.6,5.9z M4.1,2l1,2.7H3L4.1,2z"/>
	<path class="st0" d="M17.1,7.3c0.7-0.4,1.1-1.1,1.1-1.9c0-0.4-0.2-1.8-2.1-2.1c0.4-0.1,0.7-0.3,1-0.5c0.3-0.3,0.5-0.7,0.5-1.1
		c0-0.5-0.2-0.9-0.6-1.2c-0.8-0.4-1.7-0.6-2.6-0.5h-3.2v7.9h2.8C15.2,8,16.2,7.8,17.1,7.3z M13.5,1c0.4,0,0.7,0,1.1,0
		c0.2,0,0.7,0.1,0.7,1.1c0,1.1-0.7,1.1-1.6,1.1h-0.2V1z M13.5,4.2h0.2c1,0,1.3,0,1.6,0.2c0.3,0.1,0.5,0.5,0.5,1
		c0,0.9-0.4,1.2-0.9,1.3c-0.5,0.1-0.9,0.1-1.4,0V4.2z"/>
	<path class="st0" d="M24.6,8c0.9,0,1.9-0.2,2.7-0.6c1.4-0.7,1.4-2.2,1.5-3.1V0h-1.6v3.8c0,1.7,0,2.6-1.9,2.6c-1.8,0-1.8-1-1.8-2.1
		V0h-2.3v4.4C21.2,5.9,21.2,8,24.6,8z"/>
	<path class="st0" d="M43.7,1.3C42.6,0,41.1,0,39,0h-3v7.9h2.8c1,0,2-0.1,3-0.3c0.4-0.1,0.7-0.3,1-0.6C44.6,5.6,45,3.1,43.7,1.3z
		 M38.8,6.8h-0.5V1.1h1.1c1,0,2.7,0,2.7,2.7C42.1,6.8,40.5,6.8,38.8,6.8z"/>
	<polygon class="st0" points="49.9,4.4 53.1,4.4 53.1,7.9 55.4,7.9 55.4,0 53.1,0 53.1,3.1 49.9,3.1 49.9,0 47.7,0 47.7,7.9 
		49.9,7.9 	"/>
	<path class="st0" d="M61.1,5.9h2.9l0.7,2h2.5L64,0h-1.7l-3.8,7.8h1.8L61.1,5.9z M62.6,2l1,2.7h-2.1L62.6,2z"/>
	<path class="st0" d="M74.9,3.3c0.4-0.1,0.7-0.3,1-0.5c0.3-0.3,0.5-0.7,0.5-1.1c0-0.5-0.2-0.9-0.6-1.2c-0.8-0.4-1.7-0.6-2.6-0.5
		h-3.2v7.9H73c1,0.1,2-0.1,3-0.5C76.6,6.9,77,6.2,77,5.4C77,5,76.8,3.7,74.9,3.3z M72.2,1c0.4,0,0.7,0,1.1,0c0.2,0,0.7,0.1,0.7,1.1
		c0,1.1-0.7,1.1-1.6,1.1h-0.2V1z M73.6,6.8c-0.5,0.1-0.9,0.1-1.4,0V4.2h0.2c1,0,1.3,0,1.6,0.2c0.3,0.1,0.5,0.5,0.5,1
		C74.5,6.4,74.1,6.7,73.6,6.8z"/>
	<rect x="80.4" y="0" class="st0" width="2.3" height="7.8"/>
	<path class="st0" d="M5.4,20.8c1.2,0,2.3-0.1,3.5-0.4v-3.6l0,0H6.6v2.8c-0.3,0.1-0.6,0.1-0.8,0.1c-2.1,0-2.7-1.4-2.7-3
		c0-1.5,0.5-2.8,2.5-2.9c1.1,0,2.1,0.4,3,1V13c-0.9-0.2-1.8-0.4-2.8-0.4c-2.5,0-5.1,1.3-5.1,4.3c0,0.9,0.3,1.8,0.8,2.5
		C2.5,20.4,3.9,20.9,5.4,20.8z"/>
	<polygon class="st0" points="73,20.6 75.2,20.6 74.9,12.8 72.9,12.8 70.3,18.1 67.7,12.8 65.8,12.8 65.3,20.6 66.9,20.6 66.9,15.4 
		69.3,20.6 70.3,20.6 72.9,15.5 	"/>
	<path class="st0" d="M96.3,15c0-0.6-0.2-1.2-0.7-1.6c-0.8-0.5-1.7-0.7-2.6-0.6h-3.4v7.8h2.1v-3.2h0.6l2,3.3h2.3l-2.4-3.5
		C94.4,17.1,96.3,16.8,96.3,15z M92.6,16.3h-0.8v-2.5h0.8c0.8,0,1.4,0.2,1.4,1.1C94,16,93.5,16.3,92.6,16.3z"/>
	<path class="st0" d="M29.7,16.5c0.1-0.9-0.3-1.9-0.9-2.6c-0.8-0.9-2-1.3-3.2-1.3c-0.2,0-0.4,0-0.5,0c-2.3,0-4.6,1.2-4.6,4.2
		c0,2.5,1.7,3.9,4.4,3.9C27.5,20.7,29.7,19.2,29.7,16.5z M25.2,19.6c-1.5,0-2.4-1.3-2.4-3.2c0-1.5,0.6-2.7,2.1-2.7
		c1.6,0,2.4,1.4,2.4,3.2C27.3,18.8,26.4,19.6,25.2,19.6z"/>
	<path class="st0" d="M38.7,20c0.7-0.4,1.1-1.1,1.1-1.9c0-0.4-0.2-1.8-2.1-2.1c0.4-0.1,0.7-0.3,1-0.5c0.3-0.3,0.5-0.7,0.5-1.1
		c0-0.5-0.2-0.9-0.6-1.2c-0.8-0.4-1.7-0.6-2.6-0.5h-3.2v7.9h2.8C36.8,20.7,37.8,20.5,38.7,20z M35.1,13.7c0.4,0,0.7,0,1.1,0
		c0.2,0,0.7,0.1,0.7,1.1c0,1.2-0.7,1.2-1.6,1.2h-0.2V13.7z M35.1,17h0.2c1,0,1.3,0,1.6,0.2c0.4,0.2,0.6,0.6,0.5,1
		c0,0.9-0.4,1.2-0.9,1.3c-0.4,0.1-0.9,0.1-1.4,0V17z"/>
	<path class="st0" d="M47.5,12.8h-1.8L42,20.6h1.8l0.8-2h2.9l0.8,2h2.5L47.5,12.8z M45,17.5l1.1-2.7l1,2.7H45z"/>
	<polygon class="st0" points="53.4,12.8 53.4,20.6 59.3,20.6 59.3,19.3 55.6,19.3 55.6,12.8 	"/>
	<polygon class="st0" points="12.3,12.8 12.3,20.6 18.2,20.6 18.2,19.3 14.6,19.3 14.6,12.8 	"/>
	<path class="st0" d="M80.5,18.6h2.9l0.7,2h2.6l-3.2-7.8h-1.8l-3.8,7.8h1.8L80.5,18.6z M82,14.8l1,2.7h-2.1L82,14.8z"/>
	<polygon class="st0" points="107.5,12.8 105.2,12.8 102.2,16.5 104.9,20.6 107.7,20.6 104.4,15.9 	"/>
	<rect x="99.9" y="12.8" class="st0" width="2.3" height="7.8"/>
	<polygon class="st0" points="116.7,19.3 112.7,19.3 112.7,17 116.1,17 116.1,15.9 112.7,15.9 112.7,14 116.5,14 116.5,12.8 
		110.4,12.8 110.4,20.6 116.7,20.6 	"/>
	<polygon class="st0" points="118.9,12.8 118.9,14 121.8,14 121.8,20.6 124.1,20.6 124.1,14 127,14 127,12.8 	"/>
	<rect x="55.4" y="35.1" class="st0" width="1.5" height="1.1"/>
	<rect x="53.3" y="35.1" class="st0" width="1.5" height="1.1"/>
	<rect x="64" y="35.1" class="st0" width="1.5" height="1.1"/>
	<rect x="5.3" y="35.1" class="st0" width="1.5" height="1.1"/>
	<rect x="3.4" y="35.1" class="st0" width="1.5" height="1.1"/>
	<path class="st0" d="M23,27h-1.7v4.8c0,0.9-0.3,1.3-1.2,1.3h-0.4c-0.4,0-0.8-0.1-1.1-0.2v-0.4c0-1.5-1.2-2.2-2.7-2.2
		c-1.2-0.2-2.4,0.7-2.6,1.9C13.3,32.8,12.8,33,12,33h-0.5c-0.4,0-0.8,0-0.9-0.6l-0.4-1.9c-0.3-1.2-1.5-1.7-2.7-1.7H4.9
		c0,0,0.4,1.4,1,4C5.3,33,4.5,33,3.8,33c-1.1,0-1.5-0.5-1.5-1.6v-2.6H0.7v2.5c0,1.6,1.4,2.5,3.1,2.5c1.3,0,2.7-0.1,4-0.3l-0.9-3.9
		h0.8c0.6,0,0.8,0.3,1,1.2L9,32.6c0.3,1.2,1.3,1.3,2,1.3h1.2v0c0.5,0,1-0.1,1.4-0.3c0.4,0.8,1.4,1.3,2.3,1.2c1.4,0,1.9-0.4,2.3-1.1
		c0.5,0.2,0.9,0.3,1.4,0.3h1.3c0.2,0,0.4,0,0.5,0c1-0.1,1.7-1.1,1.6-2.1V27z M15.9,34L15.9,34c-0.7,0-1-0.6-1-1.5
		c0-1.1,0.5-1.5,1-1.5c0.7,0,1,0.6,1,1.5C16.9,33.4,16.6,34,15.9,34z"/>
	<path class="st0" d="M40.6,27h-1.7v4.6c0,0.8-0.3,1.4-1.2,1.4h-3.2l1.6-2.9c-0.9-0.7-1.9-1.1-3-1.1c-1.2,0-2.3,0.4-3.2,1.1
		c0.5,0.9,1.2,2,1.7,3h-4.2c-0.2,0-0.4,0-0.4-0.6V27h-1.7v5.4c0,1.4,0.8,1.5,1.3,1.5v0h11.8l0,0c0.2,0,0.3,0,0.5,0
		c1-0.1,1.7-1.1,1.6-2.1V27z M33.1,32.8l-1.5-2.7c0.5-0.2,1-0.3,1.5-0.3c0.5,0,0.9,0.1,1.4,0.3L33.1,32.8z"/>
	<rect x="43.1" y="27" class="st0" width="1.7" height="6.9"/>
	<path class="st0" d="M73.8,28.8c-1.5,0-2.9,0.9-3.6,2.2v-4h-1.7v6.1h-1.7l0,0h-0.5c-0.4,0-0.8-0.1-1.2-0.3c0.1-0.4,0.1-0.7,0.1-1.1
		v-2.8h-1.7v2.9c0,0.9-0.2,1.2-1.5,1.2l0,0h-0.5c-0.4,0-0.8,0-0.9-0.6l-0.4-1.9c-0.3-1.2-1.5-1.7-2.7-1.7h-2.5c0,0,0.4,1.4,1,4
		C55.2,33,54.5,33,53.8,33c-1.1,0-1.5-0.5-1.5-1.6v-2.6h-1.7v2.5c0,1.6,1.4,2.5,3.1,2.5c1.3,0,2.7-0.1,4-0.3l-1-3.9h0.8
		c0.6,0,0.8,0.3,1,1.2l0.4,1.7c0.3,1.2,1.3,1.3,2,1.3h1.2c0.9,0.1,1.8-0.1,2.6-0.4c0.5,0.3,1.1,0.4,1.7,0.4v0h1.8l0,0h6
		c0.4,0,0.8-0.1,1.2-0.3c0.2-0.1,0.3-0.2,0.4-0.3c0.5-0.5,0.7-1.3,0.7-2c0-0.2,0-0.5,0-0.7C76.2,29.4,75,28.6,73.8,28.8z M73.3,33
		h-3.1c0.7-2.2,2.1-3.6,3.4-3.6c0.8,0,1,0.8,1,1.9C74.7,32.3,74.2,33,73.3,33z"/>
	<path class="st0" d="M87.2,28.9h-1.7v2.9c0,0.8-0.3,1.3-1.2,1.3h-1.2v-3.2c-0.8-0.1-1.6-0.2-2.4-0.3c-1.3,0-2.5,0.7-2.5,2.2
		c0,0.1,0,0.2,0,0.3c0.1,1,0.9,1.9,2,1.8h1.2c0,0.7-0.2,1.3-1.1,1.3h-1V36h1.4c1.5,0,2.3-0.6,2.4-2.1h2l0,0c0.2,0,0.3,0,0.5,0
		c1-0.1,1.7-1.1,1.6-2.1V28.9z M81.5,33h-0.6c-0.6,0-1-0.4-1-1.3c0-1,0.5-1.5,1-1.5c0.2,0,0.3,0,0.5,0V33z"/>
	<path class="st0" d="M90.7,25.1C90.7,25.1,90.7,25.1,90.7,25.1c0-0.2,0.1-0.3,0.3-0.3c0.1,0,0.3,0.1,0.3,0.3l0.5-0.4
		c-0.2-0.3-0.5-0.4-0.8-0.4c0,0-0.1,0-0.1,0c-0.5,0-0.8,0.4-0.8,0.9c0,0.2,0.1,0.3,0.1,0.4h-0.4l-0.3,0.7h2l0.3-0.7h-0.6
		C91,25.5,90.7,25.4,90.7,25.1z"/>
	<rect x="89.9" y="27" class="st0" width="1.7" height="6.9"/>
	<path class="st0" d="M102.7,29c-0.1,0-0.2,0-0.3,0c-1.1,0.1-2,1-1.9,2.1c0,0.1,0,0.2,0,0.3c0.1,1,1,1.8,2,1.8h0.2
		c0.2,0,0.5-0.1,0.7-0.2v1.4c-0.8,0.1-1.7,0.1-2.5,0.1c-1,0-1.8-0.3-1.8-1.6v-3.2h-1.7v3.2c0,2,1.4,2.5,2.9,2.5
		c0.6,0,4.6-0.3,4.8-0.3v-3.9c0-0.4-0.1-0.8-0.2-1.1C104.3,29.3,103.5,28.9,102.7,29z M102.7,32.3c-0.5,0-0.8-0.5-0.8-1.4
		c0-0.9,0.3-1.4,0.8-1.4c0.5,0,0.8,0.5,0.8,1.4C103.5,31.8,103.2,32.3,102.7,32.3z"/>
	<path class="st0" d="M125.2,31.8c0,0.8-0.4,1.3-1.1,1.3c-0.7,0-1.4,0-2.1-0.3c0.1-0.3,0.1-0.6,0.1-0.8v-2.6l-1.7,0.1v2.3
		c0,0.8-0.3,1.4-1,1.4c-0.6,0.1-1.2,0-1.8-0.2c0.1-0.3,0.1-0.6,0.1-0.9v-2.3l-1.7,0.1v1.9c0,0.8-0.3,1.3-1,1.3h-2.5v-3.2
		c-0.8-0.1-1.6-0.2-2.4-0.3c-1.3,0-2.5,0.7-2.5,2.2c0,0.1,0,0.2,0,0.3c0,1.1,0.9,1.9,2,1.8h1.2c0,0.7-0.2,1.3-1.1,1.3h-1.1V36h1.4
		c1.5,0,2.3-0.6,2.4-2h3.2c0.4,0,0.8-0.1,1.1-0.3c0.8,0.2,1.6,0.3,2.4,0.3c0.7,0.1,1.5-0.1,2.1-0.5c1,0.4,2,0.5,3,0.4
		c1.5,0,2.3-0.8,2.3-2.1v-3l-1.7,0.1V31.8z M111.1,33h-0.6c-0.6,0-1-0.4-1-1.3c0-1,0.5-1.5,1-1.5c0.2,0,0.4,0,0.5,0V33z"/>
	<rect x="101" y="27" class="st0" width="1.5" height="1.1"/>
	<rect x="71.2" y="27" class="st0" width="1.5" height="1.1"/>
	<rect x="103" y="27" class="st0" width="1.5" height="1.1"/>
	<rect x="85.1" y="35.1" class="st0" width="1.5" height="1.1"/>
</g>
</svg>
