<?xml version="1.0" encoding="utf-8"?>
<!-- Generator: Adobe Illustrator 21.1.0, SVG Export Plug-In . SVG Version: 6.00 Build 0)  -->
<svg version="1.1" id="Layer_1" xmlns="http://www.w3.org/2000/svg" xmlns:xlink="http://www.w3.org/1999/xlink" x="0px" y="0px"
	 viewBox="0 0 72.7 70.8" style="enable-background:new 0 0 72.7 70.8;" xml:space="preserve">
<style type="text/css">
	.st0{fill:#525252;}
	.st1{fill:#86754D;}
</style>
<g id="Group_282" transform="translate(55 -4966)">
	<path id="Path_327" class="st0" d="M-30.2,4926.9v4.2c-1.3,0.3-2.7,0.5-4.1,0.5c-2,0-3.4-0.3-4.5-1.6c-0.6-0.8-1-1.8-0.9-2.8
		c0-3.5,3-5,5.8-5c1.1,0,2.1,0.2,3.1,0.5v1.8c-1-0.7-2.1-1.1-3.3-1.1c-2.3,0.1-2.8,1.7-2.8,3.3c0,1.9,0.7,3.4,3.1,3.4
		c0.4,0,0.7-0.1,0.9-0.1v-3.2h2.6L-30.2,4926.9z"/>
	<path id="Path_328" class="st0" d="M38.6,4922.2l3,6.2l2.9-6.2h2.3l0.3,9h-2.5l-0.1-5.9l-2.9,5.9h-1.2l-2.8-6v6h-1.8l0.6-9H38.6z"
		/>
	<path id="Path_329" class="st0" d="M69,4927.2c0,0,2.3-0.4,2.3-2.5c0-0.7-0.3-1.3-0.8-1.8c-0.8-0.7-1.8-0.7-3-0.7h-3.8v9h2.6v-3.8
		h0.6l2.3,3.8h2.6L69,4927.2z M66.9,4926.4H66v-2.9h0.9c1,0,1.7,0.3,1.7,1.4C68.6,4926.1,68,4926.4,66.9,4926.4z"/>
	<path id="Path_330" class="st0" d="M-137.5,4922.3h-2l-4.3,8.9h2.1l0.8-2.3h3.3l0.7,2.3h2.9L-137.5,4922.3z M-140.3,4927.7l1.2-3.1
		l1.1,3.1H-140.3z"/>
	<path id="Path_331" class="st0" d="M-125.4,4926.1c0.4-0.1,0.8-0.3,1.1-0.6c0.4-0.3,0.6-0.8,0.6-1.2c0-0.5-0.2-1.1-0.6-1.5
		c-0.9-0.4-1.9-0.6-2.9-0.5h-3.7v9h3.2c2.1,0,2.8-0.2,3.4-0.6c0.8-0.5,1.2-1.3,1.2-2.2C-123,4927.1-124.1,4926.1-125.4,4926.1z
		 M-128.4,4923.4h1.2c0.3,0.1,0.8,0.2,0.8,1.2c0,1.4-0.7,1.4-1.9,1.4h-0.2V4923.4z M-126.8,4929.9c-0.2,0.1-0.2,0.1-1.5,0.1h-0.1
		v-2.9h0.3c1.2,0,1.5,0,1.9,0.2c0.3,0.1,0.5,0.5,0.5,1.1C-125.8,4929.5-126.2,4929.8-126.8,4929.9z"/>
	<path id="Path_332" class="st0" d="M-117,4922.3v5c0,1.4,0,2.5,2.1,2.5c2.2,0,2.2-1,2.2-3.1v-4.4h1.9v4.9c0,1-0.1,2.8-1.7,3.6
		c-0.9,0.5-2,0.7-3,0.6c-3.8,0-3.8-2.4-3.8-4.1v-5.1H-117z"/>
	<path id="Path_333" class="st0" d="M-92.8,4923.8c-1.2-1.5-2.9-1.6-5.3-1.6h-3.4v9.1h3.1c1.2,0.1,2.4-0.1,3.5-0.4
		c1.9-0.6,3.1-2.4,3-4.4C-91.9,4925.6-92.2,4924.6-92.8,4923.8z M-98.5,4930h-0.6v-6.6h1.2c1.1,0,3.1,0,3.1,3.2
		C-94.7,4930-96.6,4930-98.5,4930z"/>
	<path id="Path_334" class="st0" d="M-85.8,4922.3v3.4h3.7v-3.4h2.5v8.9H-82v-3.9h-3.7v3.9h-2.5v-8.9H-85.8z"/>
	<path id="Path_335" class="st0" d="M-69.7,4922.3h-2.1l-4.3,8.9h2.1l0.9-2.3h3.2l0.8,2.3h2.9L-69.7,4922.3z M-72.6,4927.7l1.2-3.1
		l1.1,3.1H-72.6z"/>
	<path id="Path_336" class="st0" d="M-57.4,4926.1c0.4-0.1,0.8-0.3,1.1-0.6c0.4-0.3,0.6-0.8,0.6-1.2c0-0.5-0.2-1.1-0.6-1.5
		c-0.9-0.4-1.9-0.6-2.9-0.5h-3.7v9h3.2c2.1,0,2.8-0.2,3.4-0.6c0.8-0.5,1.2-1.3,1.2-2.2C-55,4927.1-56.1,4926.1-57.4,4926.1z
		 M-60.3,4923.4h1.2c0.3,0.1,0.8,0.2,0.8,1.2c0,1.4-0.7,1.4-1.9,1.4h-0.2V4923.4z M-58.7,4929.9c-0.2,0.1-0.2,0.1-1.6,0.1h-0.1v-2.9
		h0.3c1.2,0,1.5,0,1.9,0.2c0.3,0.1,0.5,0.5,0.5,1.1C-57.7,4929.5-58.1,4929.8-58.7,4929.9z"/>
	<rect id="Rectangle_116" x="-51" y="4922.3" class="st0" width="2.6" height="8.9"/>
	<path id="Path_337" class="st0" d="M-7.4,4923.6c-1.2-1-2.7-1.6-4.3-1.6c-2.6,0-5.3,1.5-5.3,4.8c0,2.8,2,4.5,5,4.5
		c3.1,0,5.6-1.7,5.6-4.8C-6.3,4925.4-6.7,4924.4-7.4,4923.6z M-11.4,4930.1c-1.7,0-2.7-1.4-2.7-3.6c0-1.7,0.7-3.1,2.4-3.1
		c1.9,0,2.7,1.7,2.7,3.6C-9.1,4929.2-10.1,4930.1-11.4,4930.1z"/>
	<path id="Path_338" class="st0" d="M2.7,4926.1c0.4-0.1,0.8-0.3,1.1-0.6c0.4-0.3,0.7-0.8,0.6-1.2c0-0.5-0.2-1.1-0.6-1.5
		c-0.9-0.4-1.9-0.6-2.9-0.5h-3.7v9h3.2c2.1,0,2.8-0.2,3.4-0.6c0.8-0.5,1.2-1.3,1.2-2.2C5.1,4927.1,4,4926.1,2.7,4926.1z
		 M-0.2,4923.4H1c0.3,0.1,0.8,0.2,0.8,1.2c0,1.4-0.7,1.4-1.9,1.4h-0.2V4923.4z M1.3,4929.9c-0.2,0.1-0.2,0.1-1.6,0.1h-0.1v-2.9H0
		c1.2,0,1.5,0,1.9,0.2c0.3,0.1,0.5,0.5,0.5,1.1C2.4,4929.5,2,4929.8,1.3,4929.9z"/>
	<path id="Path_339" class="st0" d="M13.9,4922.3h-2.1l-4.3,8.9h2.1l0.9-2.3h3.2l0.8,2.3h2.9L13.9,4922.3z M11,4927.7l1.2-3.1
		l1.1,3.1H11z"/>
	<path id="Path_340" class="st0" d="M23.3,4922.3v7.5h4.2v1.5h-6.8v-8.9H23.3z"/>
	<path id="Path_341" class="st0" d="M-23.6,4922.3v7.5h4.2v1.5h-6.8v-8.9H-23.6z"/>
	<path id="Path_342" class="st0" d="M56.4,4922.3h-2.1l-4.3,8.9h2.1l0.9-2.3h3.2l0.8,2.3h2.9L56.4,4922.3z M53.5,4927.7l1.2-3.1
		l1.2,3.1H53.5z"/>
	<path id="Path_343" class="st0" d="M80.4,4926l3.5-3.6l0-0.1h-2.6l-3.4,4.4l3.1,4.7h3.2L80.4,4926z M75.2,4922.3v8.9h2.6v-8.9H75.2
		z"/>
	<path id="Path_344" class="st0" d="M94.3,4922.3v1.2h-4.5v2.3h3.9v1.4h-3.9v2.6h4.6v1.5h-7.1v-8.9H94.3z"/>
	<path id="Path_345" class="st0" d="M106.2,4922.3v1.2h-3.3v7.7h-2.6v-7.7H97v-1.2H106.2z"/>
	<path id="Path_346" class="st0" d="M-16.5,4952.5v1.8h2.3v-1.8H-16.5z M-31,4952.5v1.8h2.3v-1.8H-31z M-34,4952.5v1.8h2.3v-1.8H-34
		z M-115.4,4952.5v1.8h2.3l0-1.8H-115.4z M-118.4,4952.5v1.8h2.3v-1.8H-118.4z"/>
	<path id="Path_347" class="st0" d="M-88.3,4939.8v7.4c0,1.2-0.5,2-1.9,2h-1.8c-0.6,0-1.2-0.1-1.7-0.3v-0.7c0-2.3-1.9-3.3-4.1-3.3
		c-1.7,0-3.6,0.6-4,2.9c-0.1,0.9-0.8,1.3-2,1.3l0,0.2l0.1,1.1c0.1,0,0.1,0,0.2,0h0c0.7,0,1.4-0.2,2.1-0.5c0.3,0.7,1.2,1.9,3.5,1.9
		c2.1,0,2.9-0.6,3.5-1.7c0.7,0.3,1.4,0.4,2.2,0.4h3c2.2,0,3.2-1,3.2-3.2v-7.5H-88.3z M-97.6,4950.6h-0.1c-0.8,0-1.5-0.8-1.5-2.3
		c0-1.7,0.7-2.3,1.6-2.3c1,0,1.6,0.8,1.6,2.3C-96.1,4949.7-96.4,4950.6-97.6,4950.6z"/>
	<path id="Path_348" class="st0" d="M-80,4950.5c-0.8,0-2-0.3-2-2.4v-8.3h2.6v8.4c0,0.9,0.3,0.9,0.6,0.9h6.3l0.1,1.4H-80z"/>
	<path id="Path_349" class="st0" d="M-59,4949.1h-6.8l2.4-4.5c-0.7-0.9-3.1-1.8-4.6-1.8c-1.8,0-3.5,0.6-4.9,1.7
		c0.7,1.5,1.8,3.1,2.6,4.6h-2.5l0.1,1.3h14.8L-59,4949.1z M-67.9,4948.8l-2.3-4.3c0.7-0.3,1.5-0.5,2.3-0.5c0.7,0,1.4,0.1,2.1,0.4
		L-67.9,4948.8z"/>
	<path id="Path_350" class="st0" d="M-59.2,4949.1c1.4,0,1.9-0.8,1.9-2.2v-7.2h2.6v7.5c0,2.2-1,3.2-3.2,3.2L-59.2,4949.1z"/>
	<rect id="Rectangle_117" x="-50.9" y="4939.8" class="st0" width="2.6" height="10.7"/>
	<path id="Path_351" class="st0" d="M-111.6,4950c-2,0.3-4.1,0.5-6.1,0.5c-2.6,0-4.7-1.2-4.7-3.8v-4h2.6v4c0,1.7,0.6,2.5,2.3,2.5
		c1.1,0,2.2-0.1,3.2-0.2c-0.9-4.1-1.6-6.1-1.6-6.1h3.7c1.9,0,3.8,0.7,4.2,2.7l0.6,2.8c0.2,0.8,0.8,0.9,1.5,0.9h2.6l0.1,1.4h-3.6
		c-1.1,0-2.6-0.1-3-2.1l-0.6-2.7c-0.3-1.4-0.6-2-1.5-2h-1.1L-111.6,4950z"/>
	<path id="Path_352" class="st0" d="M-27.5,4950c-2,0.3-4.1,0.5-6.1,0.5c-2.6,0-4.7-1.2-4.7-3.8v-4h2.6v4c0,1.7,0.6,2.5,2.3,2.5
		c1.1,0,2.2-0.1,3.2-0.2c-0.9-4.1-1.6-6.1-1.6-6.1h3.9c1.9,0,3.8,0.7,4.2,2.7l0.6,2.8c0.2,0.8,0.8,0.9,1.5,0.9h2l0.2,1.4h-3.1
		c-1.1,0-2.6-0.1-3-2.1l-0.6-2.7c-0.3-1.4-0.6-2-1.5-2h-1.2L-27.5,4950z"/>
	<path id="Path_353" class="st0" d="M-13,4950.5c-0.9,0-1.8-0.2-2.6-0.6c-0.5,0.4-2.1,0.6-3.9,0.6l-0.2-1.4c2.3,0,2.5-0.5,2.5-1.9
		v-4.6h2.6v4.4c0,0.6-0.1,1.1-0.2,1.7c0.5,0.4,1.1,0.5,1.8,0.4h3l0.3,1.4L-13,4950.5z"/>
	<path id="Path_354" class="st0" d="M-1.2,4942.5c-1.6,0-3.6,0.7-5.4,3.4v-6.2h-2.6v9.5h-2.6l-0.7,1.3h11.9c0.6,0,1.2-0.1,1.8-0.4
		c0.3-0.2,0.5-0.3,0.6-0.5c0.8-0.9,1.1-2,1-3.1C2.8,4943.7,1.4,4942.5-1.2,4942.5z M-1.8,4949.1h-4.9c1.1-3.4,3.2-5.5,5.3-5.5
		c1.2,0,1.6,1.1,1.6,2.8S-0.4,4949.1-1.8,4949.1z"/>
	<path id="Path_355" class="st0" d="M66.3,4949.3l-6-0.1v-5c-1.2-0.3-2.5-0.4-3.7-0.4c-2,0-3.7,1-3.7,3.3c0,2.3,1.3,3.3,3,3.3h1.9
		c0,1-0.3,2-1.7,2h-1.7v1.3h2.2c2.4,0,3.6-1,3.7-3.3h7.2L66.3,4949.3z M57.8,4949.2h-0.9c-0.8,0-1.5-0.6-1.5-2.1
		c0-1.6,0.7-2.3,1.6-2.3c0.4,0,0.6,0.1,0.8,0.1V4949.2z"/>
	<path id="Path_356" class="st0" d="M13.3,4949.1v-4.9c-1.2-0.3-2.5-0.4-3.8-0.4c-2,0-3.7,1-3.7,3.3c0,2.3,1.3,3.3,3,3.3h1.9
		c0,1-0.3,2-1.7,2H7.4l-0.1,0v1.4h2.2c2.4,0,3.6-1,3.7-3.3h4.4l0.1-1.3H13.3z M10.7,4949.2H9.8c-0.8,0-1.5-0.6-1.5-2.1
		c0-1.6,0.7-2.3,1.6-2.3c0.4,0,0.6,0.1,0.8,0.1V4949.2z"/>
	<path id="Path_357" class="st0" d="M16.3,4949.1c1.4,0,1.9-0.7,1.9-2v-4.5h2.6v4.6c0,2.2-1,3.2-3.2,3.2L16.3,4949.1z"/>
	<path id="Path_358" class="st0" d="M24.6,4939.8v10.7h2.6v-10.7H24.6z M26.7,4937.6c-0.3,0-0.8-0.1-0.8-0.6c0-0.2,0.2-0.4,0.4-0.4
		c0.3,0,0.4,0.2,0.5,0.4l0.7-0.7c-0.2-0.5-0.7-0.8-1.2-0.7c-0.1,0-0.2,0-0.3,0c-0.7,0.1-1.2,0.7-1.2,1.4c0,0.2,0.1,0.4,0.2,0.6h-0.5
		l-0.4,1.2h3.1l0.4-1H26.7z"/>
	<path id="Path_359" class="st0" d="M47.7,4944.5c-0.8-1-2-1.6-3.3-1.6c-0.1,0-0.2,0-0.4,0c-1.7,0-3.1,1.5-3.1,3.2
		c0,2.2,1.2,3.2,3,3.2h0.3c0.4-0.1,0.7-0.2,1-0.3v2.2c-0.9,0.1-2.9,0.2-3.9,0.2c-1.5,0-2.8-0.4-2.8-2.5v-5h-2.6v4.9
		c0,3.1,2.1,3.8,4.5,3.8c0.8,0,7.1-0.4,7.4-0.4H48v-6.1C48,4945.6,47.9,4945,47.7,4944.5z M44.4,4948c-0.7,0-1.1-0.7-1.1-2.1
		c0-1.4,0.4-2.1,1.1-2.1c0.7,0,1.1,0.7,1.1,2.1C45.5,4947.3,45.1,4948,44.4,4948z"/>
	<path id="Path_360" class="st0" d="M58.6,4949.2h7.7c1,0,1.5-0.7,1.5-2v-3l2.6-0.2v3.5c0,0.5-0.1,0.9-0.2,1.4
		c0.4,0.3,1.1,0.3,2.7,0.3c1,0,1.6-0.8,1.6-2.2v-3.5l2.6-0.2v4.2c0,0.5-0.1,0.9-0.2,1.4c1,0.3,2.1,0.5,3.2,0.4c1,0,1.7-0.7,1.7-2
		v-4.3l2.6-0.2v4.6c0,2.2-1.4,3.2-3.6,3.2c-1.6,0.1-3.1-0.1-4.6-0.7c-1,0.6-2.1,0.8-3.2,0.7c-1.3,0-2.5-0.1-3.7-0.5
		c-0.5,0.3-1.1,0.4-1.7,0.4h-8.6L58.6,4949.2z"/>
	<rect id="Rectangle_118" x="41.7" y="4939.8" class="st0" width="2.3" height="1.8"/>
	<rect id="Rectangle_119" x="-5.1" y="4939.8" class="st0" width="2.3" height="1.8"/>
	<rect id="Rectangle_120" x="44.8" y="4939.8" class="st0" width="2.3" height="1.8"/>
	<rect id="Rectangle_121" x="17.4" y="4952.5" class="st0" width="2.3" height="1.8"/>
</g>
<path class="st1" d="M60.3,36.1l8.5-1.8l-8.7-0.8l8.3-2.6L59.7,31l8-3.5l-8.7,1l7.6-4.4l-8.5,2l7.2-5.1l-8.3,2.8l6.5-5.8l-7.7,3.7
	l5.9-6.4l-7.5,4.5l5.2-7.1l-7,5.3l4.5-7.6l-6.5,6l3.6-8l-5.7,6.7l2.8-8.3l-5.1,7.2l1.9-8.6L43.7,13l1-8.7l-3.5,7.9l0.1-8.8l-2.6,8.4
	L37.8,3l-1.7,8.6L34.4,3l-0.8,8.8L31,3.4l0.1,8.8L27.6,4l1,8.7l-4.3-7.7l1.9,8.6l-5.1-7.2l2.8,8.3l-5.7-6.5l3.6,8l-6.5-6l4.5,7.6
	l-7-5.3l5.2,7.1l-7.5-4.5l5.9,6.4L8.7,18l6.5,5.8L7,21l7.2,5.1l-8.5-2l7.6,4.4l-8.6-1l8,3.5l-8.7-0.1l8.3,2.6l-8.7,0.8l8.5,1.8
	l-8.5,1.8l8.7,0.8l-8.3,2.6l8.7-0.1l-8.1,3.4l8.6-1l-7.6,4.4l8.5-2L6.9,51l8.3-2.8L8.6,54l7.9-3.6l-5.9,6.5l7.5-4.5l-5.2,7.1l7-5.3
	l-4.5,7.6l6.4-6l-3.6,8l5.7-6.6l-2.8,8.3l5.1-7.2l-1.9,8.6l4.3-7.7l-1,8.7l3.4-8.1l-0.1,8.8l2.6-8.4l0.8,8.8l1.7-8.6l1.7,8.6
	l0.8-8.8l2.6,8.4L41,59.7l3.4,8.1l-1-8.7l4.3,7.7l-1.9-8.6l5.1,7.2L48,57l5.7,6.7l-3.6-8l6.4,6l-4.5-7.6l7,5.3l-5.2-7.1l7.5,4.5
	l-5.9-6.5l7.9,3.6l-6.5-5.8l8.3,2.8l-7.2-5.1l8.5,2l-7.6-4.4l8.7,1l-8-3.5l8.7,0.1L60,38.5l8.7-0.8L60.3,36.1z M55.2,36.1
	c0.1,10.6-8.5,19.2-19,19.2c-10.6,0.1-19.3-8.4-19.4-19c-0.1-10.6,8.4-19.3,19-19.4c10.6-0.1,19.3,8.4,19.4,19V36.1z"/>
<rect x="-81.6" y="-162.1" class="st1" width="28.3" height="26.6"/>
</svg>
