<?xml version="1.0" encoding="utf-8"?>
<!-- Generator: Adobe Illustrator 21.1.0, SVG Export Plug-In . SVG Version: 6.00 Build 0)  -->
<svg version="1.1" id="Layer_1" xmlns="http://www.w3.org/2000/svg" xmlns:xlink="http://www.w3.org/1999/xlink" x="0px" y="0px"
	 viewBox="0 0 33.6 33.6" style="enable-background:new 0 0 33.6 33.6;" xml:space="preserve">
<style type="text/css">
	.st0{fill:#E5E9EA;}
</style>
<path class="st0" d="M16.8,0C7.5,0,0,7.5,0,16.8s7.5,16.8,16.8,16.8s16.8-7.5,16.8-16.8S26.1,0,16.8,0z M22.2,17.5L15,24.8
	C14.8,25,14.5,25,14.3,25c-0.2,0-0.4-0.1-0.6-0.2c-0.4-0.3-0.4-0.9-0.1-1.3l6.6-6.6l-6.6-6.6c-0.2-0.1-0.3-0.4-0.3-0.6
	c0-0.2,0.1-0.5,0.2-0.7c0.2-0.2,0.4-0.3,0.6-0.3c0.2,0,0.5,0.1,0.6,0.2L15,9l7.2,7.2c0.2,0.2,0.3,0.4,0.3,0.6
	C22.4,17.2,22.3,17.4,22.2,17.5z"/>
</svg>
