<?xml version="1.0" encoding="utf-8"?>
<!-- Generator: Adobe Illustrator 21.1.0, SVG Export Plug-In . SVG Version: 6.00 Build 0)  -->
<svg version="1.1" id="Layer_1" xmlns="http://www.w3.org/2000/svg" xmlns:xlink="http://www.w3.org/1999/xlink" x="0px" y="0px"
	 viewBox="0 0 33.6 33.6" style="enable-background:new 0 0 33.6 33.6;" xml:space="preserve">
<style type="text/css">
	.st0{fill:#E5E9EA;}
</style>
<path class="st0" d="M16.8,33.6c9.3,0,16.8-7.5,16.8-16.8S26.1,0,16.8,0S0,7.5,0,16.8S7.5,33.6,16.8,33.6z M11.5,16.1l7.2-7.2
	c0.2-0.2,0.4-0.3,0.7-0.3c0.2,0,0.4,0.1,0.6,0.2c0.4,0.3,0.4,0.9,0.1,1.3l-6.6,6.6l6.6,6.6c0.2,0.1,0.3,0.4,0.3,0.6
	c0,0.2-0.1,0.5-0.2,0.7c-0.2,0.2-0.4,0.3-0.6,0.3c-0.2,0-0.5-0.1-0.6-0.2l-0.1,0l-7.2-7.2c-0.2-0.2-0.3-0.4-0.3-0.6
	C11.2,16.5,11.3,16.3,11.5,16.1z"/>
</svg>
