<?xml version="1.0" encoding="utf-8"?>
<svg class="logo" id="ADGM-abbreviated" version="1.2" baseProfile="tiny" xmlns="http://www.w3.org/2000/svg" xmlns:xlink="http://www.w3.org/1999/xlink"
	 x="0px" y="0px" viewBox="0 0 199.63141 56.69202" xml:space="preserve">
<g id="text">
<path fill="#002A3A" d="M80.32782,13.47263l-13.99902,29.694h0.43402h4.88599l2.70001-6.02301h14.479l2.65497,6.02301h5.06403
	h0.41095l-13.88599-29.694H80.32782z M76.02182,33.30661l5.62198-12.62799l5.53302,12.62799H76.02182z"/>
<path fill="#002A3A" d="M113.21283,13.47241h-12.11401v29.69501h12.11401c4.685,0,8.45599-1.36099,11.289-4.10501
	c2.83295-2.72198,4.23895-6.314,4.23895-10.798c0-4.44-1.40601-8.03198-4.23895-10.73199
	C121.66882,14.8334,117.89783,13.47241,113.21283,13.47241 M120.73083,35.9834c-1.89606,1.91901-4.43903,2.87802-7.60706,2.87802
	h-6.961V17.75641h6.961c3.16803,0,5.711,0.95901,7.60706,2.87701c1.89697,1.91898,2.85596,4.48499,2.85596,7.67499
	C123.58679,31.49942,122.62781,34.06442,120.73083,35.9834"/>
<polygon fill="#002A3A" points="195.99445,13.47211 193.29541,13.47211 182.96539,36.09512 172.63641,13.47211 169.8924,13.47211 
	166.2774,43.16711 171.18542,43.16711 173.2384,24.15912 181.6944,43.16711 184.28241,43.16711 192.8714,24.20313 
	194.94641,43.16711 199.63141,43.16711 "/>
<path fill="#002A3A" d="M162.92804,26.66891h-0.32104h-0.21497h-9.36804l-3.97095,3.97101h8.84595
	c-0.15601,2.164-1.026,4.03799-2.60999,5.62201c-1.98596,1.91901-4.39502,2.87799-7.22797,2.87799
	c-2.96704,0-5.44403-1.026-7.40704-3.056c-1.98596-2.03-2.96698-4.61798-2.96698-7.78598c0-3.14603,1.00403-5.73401,3.01202-7.76401
	c2.00696-2.03,4.48395-3.05701,7.40594-3.05701c3.36902,0,6.42603,1.629,8.45605,4.23901h0.00195
	c0.07703,0.09598,0.13,0.16199,0.15399,0.19299l3.367-3.367l-0.05396-0.06601l0.00098,0.009
	c-1.38202-1.72198-3.09497-3.07199-5.16602-4.064c-2.164-1.004-4.43896-1.517-6.849-1.517c-4.328,0-7.987,1.45001-10.95398,4.37201
	c-2.98901,2.923-4.48401,6.604-4.48401,11.022c0,4.439,1.47198,8.12,4.39502,11.043c2.922,2.922,6.58099,4.37299,10.99896,4.37299
	c4.35004,0,7.98602-1.47299,10.88702-4.44101c2.83301-2.83298,4.23798-6.33499,4.23798-10.552
	c0-0.758-0.02197-1.33798-0.08899-1.73999C162.98102,26.78793,162.92804,26.66891,162.92804,26.66891"/>
</g><!-- end text -->
<g id="sun">
<path fill="#84754E" d="M49.26801,28.34702l7.42599-1.48499l-7.543-0.70401l7.23199-2.25L48.811,23.996l6.95599-2.99899
	l-7.52301,0.88602l6.604-3.70502l-7.38898,1.66l6.181-4.379L46.465,17.88901l5.689-5.00101l-6.883,3.16101l5.13501-5.56601
	l-6.51199,3.867l4.52698-6.07199l-6.078,4.522l3.86902-6.51199l-5.56702,5.134l3.16202-6.88101l-4.99899,5.689L41.23499,3.056
	l-4.37997,6.17902L38.521,1.84601l-3.707,6.60501l0.88-7.522L32.69601,7.884l0.09198-7.573l-2.255,7.23199L29.83401,0
	l-1.48602,7.42902L26.862,0l-0.70099,7.543l-2.255-7.23199l0.09,7.573l-2.99701-6.95499l0.884,7.522l-3.70898-6.60501l1.664,7.38901
	L15.45999,3.056l2.42502,7.17401l-4.99802-5.689l3.16299,6.88101l-5.56699-5.134l3.866,6.51199l-6.07401-4.522l4.52301,6.07199
	l-6.51001-3.867l5.133,5.56601L4.54001,12.888l5.69098,5.00101l-7.17697-2.42999l6.17999,4.379l-7.38901-1.66l6.60501,3.70502
	l-7.521-0.88602L7.88199,23.996L0.311,23.90802l7.229,2.25L0,26.86203l7.42599,1.48499L0,29.83401l7.54001,0.698L0.311,32.789
	l7.57098-0.09299l-6.95297,2.99701l7.521-0.88l-6.60501,3.707l7.38901-1.664L3.05402,41.233l7.17697-2.42599l-5.69098,5
	l6.88098-3.16299l-5.133,5.56799l6.51001-3.866l-4.52301,6.07401l6.07401-4.526l-3.866,6.513l5.56699-5.13699l-3.16299,6.88501
	l4.99802-5.69l-2.42502,7.17899l4.37802-6.185l-1.664,7.388L21.883,48.246l-0.884,7.51901l2.99701-6.953l-0.09,7.57199l2.255-7.233
	l0.70099,7.54102l1.48599-7.42401l1.48602,7.42401l0.69897-7.54102l2.255,7.233l-0.09198-7.57199l2.99799,6.953l-0.88-7.51901
	l3.707,6.60101l-1.66599-7.388l4.37997,6.185l-2.42697-7.17899l4.99899,5.69l-3.16202-6.88501l5.56702,5.13699l-3.86902-6.513
	l6.078,4.526l-4.52698-6.07401l6.51199,3.866L45.271,40.64401l6.883,3.16299l-5.689-5l7.17502,2.42599l-6.181-4.37698l7.38898,1.664
	l-6.604-3.707l7.52301,0.88L48.811,32.69601L56.383,32.789L49.151,30.53201l7.543-0.698L49.26801,28.34702z M28.34702,43.207
	c-8.19302,0-14.85901-6.66498-14.85901-14.85898c0-8.19299,6.66599-14.858,14.85901-14.858
	c8.19299,0,14.85797,6.66501,14.85797,14.858C43.20499,36.54202,36.54001,43.207,28.34702,43.207"/>
</g><!-- end sun -->
</svg>