<?xml version="1.0" encoding="utf-8"?>
<!-- Generator: Adobe Illustrator 21.1.0, SVG Export Plug-In . SVG Version: 6.00 Build 0)  -->
<svg version="1.1" id="Layer_1" xmlns="http://www.w3.org/2000/svg" xmlns:xlink="http://www.w3.org/1999/xlink" x="0px" y="0px"
	 viewBox="0 0 26 26.9" style="enable-background:new 0 0 26 26.9;" xml:space="preserve">
<style type="text/css">
	.st0{fill:#525252;}
</style>
<g>
	<path class="st0" d="M25,1.5h-5.2V0.8c0-0.4-0.3-0.8-0.8-0.8s-0.8,0.3-0.8,0.8v0.8h-4.7V0.8c0-0.4-0.3-0.8-0.8-0.8
		c-0.4,0-0.8,0.3-0.8,0.8v0.8H7.7V0.8C7.7,0.3,7.3,0,6.9,0S6.2,0.3,6.2,0.8v0.8H0.8C0.3,1.5,0,1.8,0,2.2v18C0,20.6,0.3,21,0.7,21
		c0,0,0,0,0,0h4.8c1,4.1,5.1,6.6,9.1,5.7c2.8-0.7,5-2.9,5.7-5.7h4.8c0.4,0,0.8-0.3,0.8-0.7c0,0,0,0,0,0V2.3
		C25.9,1.8,25.5,1.5,25,1.5z M1.4,3.1H6v0.8c0,0.4,0.3,0.8,0.8,0.8s0.8-0.3,0.8-0.8V3.1H12v0.8c0,0.4,0.3,0.8,0.8,0.8
		c0.4,0,0.8-0.3,0.8-0.8V3.1h4.7v0.8c0,0.4,0.3,0.8,0.8,0.8s0.8-0.3,0.8-0.8V3.1h4.5v3.2H1.4V3.1z M12.9,25.3L12.9,25.3
		c-3.3,0-6-2.7-6-6c0-3.3,2.7-6,6-6s6,2.7,6,6C18.8,22.6,16.2,25.3,12.9,25.3z M24.2,19.5h-3.8v-0.1c0-4.2-3.4-7.6-7.6-7.6
		c-4.2,0-7.6,3.4-7.6,7.6v0.1H1.3V7.9h22.9V19.5z"/>
	<path class="st0" d="M15.3,22.2c-0.2,0.1-0.4,0.2-0.6,0.2c-0.2,0-0.4,0-0.6-0.2l-1.8-1.8c-0.1-0.2-0.2-0.4-0.2-0.6v-4.2
		c0-0.4,0.3-0.8,0.8-0.8c0.4,0,0.8,0.3,0.8,0.8v3.9l1.6,1.5C15.6,21.4,15.6,21.9,15.3,22.2z"/>
</g>
</svg>
