<?xml version="1.0" encoding="utf-8"?>
<!-- Generator: Adobe Illustrator 21.1.0, SVG Export Plug-In . SVG Version: 6.00 Build 0)  -->
<svg version="1.1" id="Layer_1" xmlns="http://www.w3.org/2000/svg" xmlns:xlink="http://www.w3.org/1999/xlink" x="0px" y="0px"
	 viewBox="0 0 19.4 22.8" style="enable-background:new 0 0 19.4 22.8;" xml:space="preserve">
<style type="text/css">
	.st0{fill:#008375;}
</style>
<g>
	<path class="st0" d="M14.7,5c0.1-1.8-0.8-3.4-2.3-4.4C11.6,0.2,10.7,0,9.8,0H9.7c0,0,0,0,0,0C8.8,0,7.9,0.2,7.1,0.7
		C5.6,1.6,4.7,3.3,4.8,5c0,0.4-0.3,3.9,1.5,5.9c0.8,0.9,2,1.5,3.3,1.5h0.3c1.3,0,2.5-0.5,3.3-1.5C15.1,8.8,14.7,5.2,14.7,5z M12,9.9
		c-0.6,0.6-1.4,1-2.3,1h0c-0.8,0-1.7-0.3-2.3-1C6,8.3,6.3,5.2,6.3,5.2v0c0.2-3.2,2.4-3.6,3.4-3.6h0c1.2,0,3.2,0.5,3.4,3.5
		c0,0,0,0.1,0,0.1C13.2,5.7,13.3,8.4,12,9.9z"/>
	<path class="st0" d="M19.4,18l0-0.1c0-1-0.1-3.2-2.2-3.9l-0.1,0c-1.4-0.4-2.6-1-3.8-1.7C13,12,12.5,12,12.3,12.4
		c-0.3,0.3-0.2,0.8,0.2,1.1l0,0c1.3,0.9,2.8,1.5,4.3,2c1,0.4,1.1,1.4,1.1,2.5c0,0,0,0.1,0,0.1c0,0.4,0,0.9-0.1,1.3
		c-2.5,1.3-5.3,1.9-8.1,1.9c-2.8,0-5.6-0.6-8.1-1.9c-0.1-0.4-0.1-0.9-0.1-1.3v-0.1c0-1.1,0.1-2.1,1.1-2.5c1.5-0.4,3-1.1,4.3-2
		c0.4-0.2,0.5-0.7,0.2-1.1c-0.1-0.2-0.3-0.3-0.5-0.3c-0.2,0-0.4,0-0.6,0.1c0,0,0,0,0,0C4.9,13,3.6,13.6,2.3,14l-0.1,0
		C0.1,14.7,0,16.9,0,17.9c0,0,0,0.1,0,0.1c0,0.7,0.1,1.5,0.2,2.2c0.1,0.2,0.2,0.3,0.3,0.4c2.6,1.5,5.6,2.3,8.7,2.3
		c0.2,0,0.3,0,0.5,0c0.2,0,0.3,0,0.5,0c3,0,6-0.8,8.7-2.3c0.1-0.1,0.2-0.2,0.3-0.4C19.4,19.5,19.5,18.7,19.4,18l-0.2,0L19.4,18z"/>
</g>
</svg>
