<?xml version="1.0" encoding="utf-8"?>
<!-- Generator: Adobe Illustrator 21.1.0, SVG Export Plug-In . SVG Version: 6.00 Build 0)  -->
<svg version="1.1" id="Layer_1" xmlns="http://www.w3.org/2000/svg" xmlns:xlink="http://www.w3.org/1999/xlink" x="0px" y="0px"
	 viewBox="0 0 24 23.8" style="enable-background:new 0 0 24 23.8;" xml:space="preserve">
<style type="text/css">
	.st0{fill:#525252;}
</style>
<path class="st0" d="M23.8,3l-3-2.8C20.7,0.1,20.5,0,20.3,0H2.1C1,0,0,0.9,0,2v19.7c0,1.1,0.9,2.1,2,2.1h19.9c1.1,0,2.1-0.9,2.1-2
	V3.5C24,3.3,23.9,3.2,23.8,3z M16.8,1.4h1.5v3.5c0,0.4-0.3,0.7-0.7,0.7h-0.7V1.4z M14,1.4h1.4v4.2H14V1.4z M5.4,1.4h7.1v4.2H6.1
	c-0.4,0-0.7-0.3-0.7-0.7V1.4z M18.1,22.4H5.5v-7h12.6V22.4z M18.2,11.9V14H5.5v-2.1c0-0.4,0.3-0.7,0.7-0.7c0,0,0,0,0,0h11.3
	C17.9,11.2,18.2,11.5,18.2,11.9C18.2,11.9,18.2,11.9,18.2,11.9z M22.3,21.7c0,0.4-0.3,0.7-0.7,0.7c0,0,0,0,0,0h-2.1V11.9
	c0-1.2-0.9-2.1-2-2.1H6.2c-1.1,0-2.1,0.9-2.1,2v10.6H2c-0.4,0-0.7-0.3-0.7-0.7c0,0,0,0,0,0V2c0-0.4,0.3-0.7,0.7-0.7c0,0,0,0,0,0h2.1
	v3.5c0,1.2,0.9,2.1,2,2.1h11.3c1.2,0,2.1-0.9,2.1-2.1V1.3H20l2.4,2.4V21.7z"/>
</svg>
