<?xml version="1.0" encoding="utf-8"?>
<!-- Generator: Adobe Illustrator 21.1.0, SVG Export Plug-In . SVG Version: 6.00 Build 0)  -->
<svg version="1.1" id="Layer_1" xmlns="http://www.w3.org/2000/svg" xmlns:xlink="http://www.w3.org/1999/xlink" x="0px" y="0px"
	 viewBox="0 0 21.3 21.3" style="enable-background:new 0 0 21.3 21.3;" xml:space="preserve">
<style type="text/css">
	.st0{fill:#008375;}
</style>
<path class="st0" d="M21.1,20l-5-5c1.5-1.8,2.3-4.1,2.1-6.5C18,6,16.9,3.8,15.1,2.2C13.2,0.6,10.9-0.2,8.5,0C6,0.2,3.8,1.3,2.2,3.1
	C-1.1,6.9-0.7,12.7,3.1,16c3.4,2.9,8.4,3,11.8,0.1l5,5c0.1,0.1,0.3,0.2,0.6,0.2c0.2,0,0.4-0.1,0.5-0.2C21.4,20.8,21.4,20.3,21.1,20z
	 M9.1,16.7c-4.2,0-7.5-3.4-7.5-7.5c0-4.2,3.4-7.5,7.5-7.5c4.2,0,7.6,3.4,7.6,7.5C16.7,13.3,13.3,16.7,9.1,16.7z"/>
</svg>
