<?xml version="1.0" encoding="utf-8"?>
<!-- Generator: Adobe Illustrator 21.1.0, SVG Export Plug-In . SVG Version: 6.00 Build 0)  -->
<svg version="1.1" id="Layer_1" xmlns="http://www.w3.org/2000/svg" xmlns:xlink="http://www.w3.org/1999/xlink" x="0px" y="0px"
	 viewBox="0 0 22.6 22.6" style="enable-background:new 0 0 22.6 22.6;" xml:space="preserve">
<style type="text/css">
	.st0{fill:#008375;}
</style>
<g>
	<path class="st0" d="M21.3,8.8l-1.5-0.2c-0.1-0.5-0.3-0.9-0.6-1.4L20.2,6c0.4-0.6,0.4-1.4-0.2-2l-1.4-1.4c-0.3-0.3-0.7-0.4-1.1-0.4
		c0,0,0,0,0,0c-0.3,0-0.6,0.1-0.9,0.3l-1.2,0.9C15,3.1,14.5,2.9,14,2.7l-0.2-1.5C13.6,0.5,13,0,12.2,0h-2c0,0,0,0,0,0
		C9.5,0,8.9,0.5,8.8,1.3L8.5,2.8C8,2.9,7.6,3.1,7.2,3.4L5.9,2.5C5.3,2,4.5,2.1,4,2.6L2.6,4C2,4.6,2,5.4,2.4,6l0.9,1.2
		C3.1,7.7,2.9,8.1,2.7,8.6L1.3,8.9C0.5,9,0,9.6,0,10.4v2c0,0.8,0.5,1.4,1.3,1.5l1.5,0.3c0.1,0.5,0.3,0.9,0.6,1.4l-0.9,1.2
		c-0.4,0.6-0.4,1.4,0.2,2L4,20c0.3,0.3,0.7,0.5,1.1,0.5h0c0.3,0,0.6-0.1,0.9-0.3l1.2-0.9c0.4,0.2,0.9,0.4,1.3,0.5l0.2,1.5
		c0.1,0.7,0.8,1.3,1.5,1.3h2c0.8,0,1.4-0.5,1.5-1.3l0.3-1.5c0.5-0.2,0.9-0.3,1.4-0.6l1.2,0.9c0.6,0.4,1.5,0.3,2-0.2l1.4-1.4
		c0.5-0.5,0.6-1.3,0.2-2l-0.9-1.2c0.2-0.5,0.4-0.9,0.6-1.4l1.5-0.2c0.7-0.1,1.3-0.8,1.3-1.5v-2C22.6,9.6,22.1,8.9,21.3,8.8z
		 M21,12.3l-1.9,0.3c-0.3,0-0.5,0.3-0.6,0.6c-0.2,0.7-0.4,1.3-0.8,1.9c-0.2,0.3-0.2,0.6,0,0.9l1.2,1.6l-1.4,1.4l-1.6-1.1
		c-0.3-0.2-0.6-0.2-0.8,0c-0.6,0.4-1.2,0.6-1.9,0.8c-0.3,0.1-0.5,0.3-0.6,0.6l-0.3,1.9l-1.9,0l-0.3-2c-0.1-0.3-0.3-0.5-0.6-0.6
		c-0.7-0.2-1.3-0.4-1.9-0.8c-0.1-0.1-0.2-0.1-0.4-0.1c-0.2,0-0.3,0.1-0.5,0.2l-1.6,1.2l-1.4-1.3L4.9,16c0.2-0.2,0.2-0.6,0-0.9
		c-0.4-0.6-0.6-1.2-0.8-1.9c-0.1-0.3-0.3-0.5-0.6-0.6l-2-0.3l0-1.9l1.9-0.3C3.8,10,4,9.8,4.1,9.5c0.2-0.7,0.4-1.3,0.8-1.9
		C5,7.3,5,7,4.8,6.7L3.7,5.1L5,3.8l1.6,1.1c0.2,0.2,0.6,0.2,0.8,0c0.6-0.4,1.2-0.6,1.9-0.8C9.7,4.1,9.9,3.8,10,3.5l0.3-1.9l1.9,0
		l0.3,1.9c0,0.3,0.3,0.6,0.6,0.6c0.7,0.2,1.3,0.5,2,0.8c0.3,0.1,0.6,0.1,0.8,0l1.6-1.2l1.4,1.4l-1.1,1.6c-0.2,0.2-0.2,0.6,0,0.9
		c0.4,0.6,0.6,1.2,0.8,1.9c0.1,0.3,0.3,0.5,0.6,0.6l1.9,0.3V12.3z"/>
	<path class="st0" d="M11.3,6.3c-2.7,0-5,2.2-5,5c0,2.7,2.2,5,5,5c2.7,0,5-2.2,5-5C16.3,8.6,14,6.3,11.3,6.3z M11.4,14.7L11.4,14.7
		c-2,0-3.5-1.5-3.5-3.4c0-1.9,1.5-3.4,3.4-3.4s3.4,1.5,3.4,3.4C14.7,13.2,13.2,14.7,11.4,14.7z"/>
</g>
</svg>
