<?xml version="1.0" encoding="utf-8"?>
<!-- Generator: Adobe Illustrator 21.1.0, SVG Export Plug-In . SVG Version: 6.00 Build 0)  -->
<svg version="1.1" id="Layer_1" xmlns="http://www.w3.org/2000/svg" xmlns:xlink="http://www.w3.org/1999/xlink" x="0px" y="0px"
	 viewBox="0 0 28 28" style="enable-background:new 0 0 28 28;" xml:space="preserve">
<g>
	<path d="M19.2,11.2c0,0.1,0,0.2,0,0.4c0,3.8-2.7,8.1-7.7,8.1c-1.5,0-2.9-0.5-4.1-1.3c0.2,0,0.4,0,0.6,0c1.2,0,2.4-0.4,3.4-1.2
		c-1.2-0.1-2.2-0.9-2.5-2c0.2,0,0.3,0.1,0.5,0.1c0.2,0,0.5,0,0.7-0.1c-1.3-0.3-2.2-1.5-2.2-2.8v0c0.4,0.2,0.8,0.4,1.2,0.4
		C8,11.7,7.6,10.1,8.3,8.8c1.3,1.8,3.3,2.9,5.6,3.1c-0.1-0.2-0.1-0.4-0.1-0.7v-0.1c0-1.5,1.2-2.7,2.7-2.8c0.8,0,1.5,0.4,2,0.9
		c0.6-0.1,1.2-0.3,1.7-0.7C20,9.3,19.6,9.8,19,10.2c0.5-0.1,1.1-0.2,1.5-0.4C20.2,10.3,19.8,10.8,19.2,11.2z"/>
	<path d="M14,0C6.3,0,0,6.3,0,14s6.3,14,14,14s14-6.3,14-14S21.7,0,14,0z M14,26.7C7,26.7,1.3,21,1.3,14S7,1.3,14,1.3
		S26.7,7,26.7,14S21,26.7,14,26.7z"/>
</g>
</svg>
