<?xml version="1.0" encoding="utf-8"?>
<!-- Generator: Adobe Illustrator 21.1.0, SVG Export Plug-In . SVG Version: 6.00 Build 0)  -->
<svg version="1.1" id="Layer_1" xmlns="http://www.w3.org/2000/svg" xmlns:xlink="http://www.w3.org/1999/xlink" x="0px" y="0px"
	 viewBox="0 0 29.1 32.9" style="enable-background:new 0 0 29.1 32.9;" xml:space="preserve">
<style type="text/css">
	.st0{fill:#525252;}
</style>
<g>
	<path class="st0" d="M29,27V0.5C29,0.3,28.9,0,28.6,0h-25C3.4,0,3.2,0.2,3.2,0.4v7.7h1.1V1h23.8v25.5h-5c-0.2,0-0.5,0.1-0.5,0.4v5
		H4.3v-8.3H3.2v8.8c0,0.2,0.2,0.5,0.4,0.5H23c0.1,0,0.3,0,0.4-0.1l5.6-5.6C29,27.2,29,27.1,29,27C29,27.1,29,27.1,29,27z M23.5,31.3
		v-3.6h3.6L23.5,31.3z"/>
	<path class="st0" d="M29.1,27.1C29.1,27.1,29,27.1,29.1,27.1C29,27.1,29.1,27.1,29.1,27.1z"/>
	<path class="st0" d="M10.8,19.8V9.3c0-0.2-0.2-0.5-0.4-0.5H7c-0.2,0-0.5,0.1-0.5,0.4v3.4H3.7c-0.2,0-0.5,0.1-0.5,0.4v2.3H0.5
		c-0.2,0-0.5,0.1-0.5,0.4v4.5c0,0.2,0.2,0.5,0.4,0.5H7v0.1h5.5v-1H10.8z M3.1,19.9H0.8v-3.3h2.3V19.9z M6.3,19.8H4.1v-6.1h2.3V19.8z
		 M9.7,19.9H7.4V9.9h2.3V19.9z"/>
	<path class="st0" d="M25.3,3.3H13.5c-0.2,0-0.5,0.2-0.5,0.4v9.5c0,0.2,0.1,0.5,0.4,0.5h11.7c0.2,0,0.5-0.2,0.5-0.4V3.9
		C25.7,3.6,25.5,3.4,25.3,3.3z M16.8,12.6h-2.7v-5h2.7V12.6z M16.8,6.6h-2.7V4.3h2.7V6.6z M17.9,4.3h6.7v2.3h-6.7V4.3z M24.7,12.6
		H18v-5h6.7V12.6z"/>
	<rect x="13.5" y="15.4" class="st0" width="11.7" height="1.1"/>
	<rect x="13.5" y="18.3" class="st0" width="11.7" height="1.1"/>
	<rect x="13.5" y="21" class="st0" width="11.7" height="1.1"/>
	<rect x="5.8" y="3.2" class="st0" width="3.4" height="1.1"/>
	<rect x="5.8" y="6.1" class="st0" width="5" height="1.1"/>
	<rect x="5.8" y="23.7" class="st0" width="3.9" height="1.1"/>
	<rect x="11.3" y="23.7" class="st0" width="3.9" height="1.1"/>
	<rect x="16.8" y="23.7" class="st0" width="3.9" height="1.1"/>
	<rect x="5.8" y="26.5" class="st0" width="3.9" height="1.1"/>
	<rect x="11.3" y="26.5" class="st0" width="3.9" height="1.1"/>
	<rect x="16.8" y="26.5" class="st0" width="3.9" height="1.1"/>
	<rect x="5.8" y="29.3" class="st0" width="3.9" height="1.1"/>
	<rect x="11.3" y="29.3" class="st0" width="3.9" height="1.1"/>
	<rect x="16.8" y="29.3" class="st0" width="3.9" height="1.1"/>
</g>
</svg>
