<?xml version="1.0" encoding="utf-8"?>
<!-- Generator: Adobe Illustrator 21.1.0, SVG Export Plug-In . SVG Version: 6.00 Build 0)  -->
<svg version="1.1" id="Layer_1" xmlns="http://www.w3.org/2000/svg" xmlns:xlink="http://www.w3.org/1999/xlink" x="0px" y="0px"
	 viewBox="0 0 45.1 51" style="enable-background:new 0 0 45.1 51;" xml:space="preserve">
<style type="text/css">
	.st0{fill:url(#SVGID_1_);}
	.st1{fill:url(#SVGID_2_);}
	.st2{fill:url(#SVGID_3_);}
	.st3{fill:url(#SVGID_4_);}
	.st4{fill:url(#SVGID_5_);}
	.st5{fill:url(#SVGID_6_);}
	.st6{fill:url(#SVGID_7_);}
	.st7{fill:url(#SVGID_8_);}
	.st8{fill:url(#SVGID_9_);}
	.st9{fill:url(#SVGID_10_);}
	.st10{fill:url(#SVGID_11_);}
	.st11{fill:url(#SVGID_12_);}
	.st12{fill:url(#SVGID_13_);}
	.st13{fill:url(#SVGID_14_);}
	.st14{fill:url(#SVGID_15_);}
	.st15{fill:url(#SVGID_16_);}
	.st16{fill:url(#SVGID_17_);}
	.st17{fill:url(#SVGID_18_);}
</style>
<g>
	<linearGradient id="SVGID_1_" gradientUnits="userSpaceOnUse" x1="-111.6624" y1="547.1791" x2="72.8237" y2="-162.9348">
		<stop  offset="0" style="stop-color:#008375"/>
		<stop  offset="1" style="stop-color:#002A3A"/>
	</linearGradient>
	<path class="st0" d="M45,41.9V0.8c0-0.4-0.2-0.7-0.6-0.8H5.7C5.3,0,5,0.2,4.9,0.6v12h1.7V1.5h36.9v39.6h-7.7
		c-0.4,0-0.7,0.2-0.8,0.6v7.8H6.7V36.6H5v13.6c0,0.4,0.2,0.7,0.6,0.8h30.1c0.2,0,0.4,0,0.6-0.2l8.6-8.6c0-0.1,0-0.1,0.1-0.2
		C45,42,45,42,45,41.9z M36.5,48.5v-5.6h5.6L36.5,48.5z"/>
	<linearGradient id="SVGID_2_" gradientUnits="userSpaceOnUse" x1="44.8734" y1="42.7157" x2="45.1167" y2="41.7792">
		<stop  offset="0" style="stop-color:#008375"/>
		<stop  offset="1" style="stop-color:#002A3A"/>
	</linearGradient>
	<path class="st1" d="M45.1,42C45.1,42,45,42,45.1,42C45,42.1,45,42.1,45.1,42z"/>
	<linearGradient id="SVGID_3_" gradientUnits="userSpaceOnUse" x1="-39.0726" y1="216.0315" x2="28.97" y2="-45.8744">
		<stop  offset="0" style="stop-color:#008375"/>
		<stop  offset="1" style="stop-color:#002A3A"/>
	</linearGradient>
	<path class="st2" d="M16.7,30.7V14.4c0-0.4-0.2-0.7-0.6-0.8h-5.3c-0.4,0-0.7,0.2-0.8,0.6v5.3H5.8c-0.4,0-0.7,0.2-0.8,0.6v3.6H0.8
		c-0.4,0-0.7,0.2-0.8,0.6v7c0,0.4,0.2,0.7,0.6,0.8h10.2v0.2h8.6v-1.6H16.7z M4.8,30.8H1.3v-5.2h3.5V30.8z M9.8,30.7H6.3v-9.4h3.5
		V30.7z M15,30.8h-3.5V15.4H15V30.8z"/>
	<linearGradient id="SVGID_4_" gradientUnits="userSpaceOnUse" x1="-16.3578" y1="191.6878" x2="46.7115" y2="-51.0751">
		<stop  offset="0" style="stop-color:#008375"/>
		<stop  offset="1" style="stop-color:#002A3A"/>
	</linearGradient>
	<path class="st3" d="M39.2,5.2H21c-0.4,0-0.7,0.2-0.8,0.6v14.7c0,0.4,0.2,0.7,0.6,0.8H39c0.4,0,0.7-0.2,0.8-0.6V6
		C39.8,5.6,39.6,5.3,39.2,5.2z M26.1,19.6h-4.2v-7.7h4.2V19.6z M26.1,10.2h-4.2V6.7h4.2V10.2z M27.7,6.7h10.4v3.5H27.7V6.7z
		 M38.3,19.6H27.9v-7.7h10.4V19.6z"/>
	<linearGradient id="SVGID_5_" gradientUnits="userSpaceOnUse" x1="15.8366" y1="79.3592" x2="35.1738" y2="4.9276">
		<stop  offset="0" style="stop-color:#008375"/>
		<stop  offset="1" style="stop-color:#002A3A"/>
	</linearGradient>
	<rect x="21" y="23.8" class="st4" width="18.1" height="1.7"/>
	<linearGradient id="SVGID_6_" gradientUnits="userSpaceOnUse" x1="15.8366" y1="83.8592" x2="35.1738" y2="9.4276">
		<stop  offset="0" style="stop-color:#008375"/>
		<stop  offset="1" style="stop-color:#002A3A"/>
	</linearGradient>
	<rect x="21" y="28.3" class="st5" width="18.1" height="1.7"/>
	<linearGradient id="SVGID_7_" gradientUnits="userSpaceOnUse" x1="15.8366" y1="88.0594" x2="35.1738" y2="13.6278">
		<stop  offset="0" style="stop-color:#008375"/>
		<stop  offset="1" style="stop-color:#002A3A"/>
	</linearGradient>
	<rect x="21" y="32.5" class="st6" width="18.1" height="1.7"/>
	<linearGradient id="SVGID_8_" gradientUnits="userSpaceOnUse" x1="4.8268" y1="31.9211" x2="14.0417" y2="-3.5484">
		<stop  offset="0" style="stop-color:#008375"/>
		<stop  offset="1" style="stop-color:#002A3A"/>
	</linearGradient>
	<rect x="9" y="5" class="st7" width="5.2" height="1.7"/>
	<linearGradient id="SVGID_9_" gradientUnits="userSpaceOnUse" x1="4.6349" y1="41.8711" x2="15.8115" y2="-1.1492">
		<stop  offset="0" style="stop-color:#008375"/>
		<stop  offset="1" style="stop-color:#002A3A"/>
	</linearGradient>
	<rect x="9" y="9.4" class="st8" width="7.7" height="1.7"/>
	<linearGradient id="SVGID_10_" gradientUnits="userSpaceOnUse" x1="4.7654" y1="65.3973" x2="14.608" y2="27.5116">
		<stop  offset="0" style="stop-color:#008375"/>
		<stop  offset="1" style="stop-color:#002A3A"/>
	</linearGradient>
	<rect x="9" y="36.7" class="st9" width="6" height="1.7"/>
	<linearGradient id="SVGID_11_" gradientUnits="userSpaceOnUse" x1="13.2654" y1="65.3973" x2="23.108" y2="27.5116">
		<stop  offset="0" style="stop-color:#008375"/>
		<stop  offset="1" style="stop-color:#002A3A"/>
	</linearGradient>
	<rect x="17.5" y="36.7" class="st10" width="6" height="1.7"/>
	<linearGradient id="SVGID_12_" gradientUnits="userSpaceOnUse" x1="21.8655" y1="65.3973" x2="31.7081" y2="27.5116">
		<stop  offset="0" style="stop-color:#008375"/>
		<stop  offset="1" style="stop-color:#002A3A"/>
	</linearGradient>
	<rect x="26.1" y="36.7" class="st11" width="6" height="1.7"/>
	<linearGradient id="SVGID_13_" gradientUnits="userSpaceOnUse" x1="4.7654" y1="69.7972" x2="14.608" y2="31.9115">
		<stop  offset="0" style="stop-color:#008375"/>
		<stop  offset="1" style="stop-color:#002A3A"/>
	</linearGradient>
	<rect x="9" y="41.1" class="st12" width="6" height="1.7"/>
	<linearGradient id="SVGID_14_" gradientUnits="userSpaceOnUse" x1="13.2654" y1="69.7972" x2="23.108" y2="31.9115">
		<stop  offset="0" style="stop-color:#008375"/>
		<stop  offset="1" style="stop-color:#002A3A"/>
	</linearGradient>
	<rect x="17.5" y="41.1" class="st13" width="6" height="1.7"/>
	<linearGradient id="SVGID_15_" gradientUnits="userSpaceOnUse" x1="21.8655" y1="69.7972" x2="31.7081" y2="31.9115">
		<stop  offset="0" style="stop-color:#008375"/>
		<stop  offset="1" style="stop-color:#002A3A"/>
	</linearGradient>
	<rect x="26.1" y="41.1" class="st14" width="6" height="1.7"/>
	<linearGradient id="SVGID_16_" gradientUnits="userSpaceOnUse" x1="4.7654" y1="74.097" x2="14.608" y2="36.2113">
		<stop  offset="0" style="stop-color:#008375"/>
		<stop  offset="1" style="stop-color:#002A3A"/>
	</linearGradient>
	<rect x="9" y="45.4" class="st15" width="6" height="1.7"/>
	<linearGradient id="SVGID_17_" gradientUnits="userSpaceOnUse" x1="13.2654" y1="74.097" x2="23.108" y2="36.2113">
		<stop  offset="0" style="stop-color:#008375"/>
		<stop  offset="1" style="stop-color:#002A3A"/>
	</linearGradient>
	<rect x="17.5" y="45.4" class="st16" width="6" height="1.7"/>
	<linearGradient id="SVGID_18_" gradientUnits="userSpaceOnUse" x1="21.8655" y1="74.097" x2="31.7081" y2="36.2113">
		<stop  offset="0" style="stop-color:#008375"/>
		<stop  offset="1" style="stop-color:#002A3A"/>
	</linearGradient>
	<rect x="26.1" y="45.4" class="st17" width="6" height="1.7"/>
</g>
</svg>
