<?xml version="1.0" encoding="utf-8"?>
<!-- Generator: Adobe Illustrator 21.1.0, SVG Export Plug-In . SVG Version: 6.00 Build 0)  -->
<svg version="1.1" id="Layer_1" xmlns="http://www.w3.org/2000/svg" xmlns:xlink="http://www.w3.org/1999/xlink" x="0px" y="0px"
	 viewBox="0 0 33.6 24" style="enable-background:new 0 0 33.6 24;" xml:space="preserve">
<g>
	<polygon points="22,11.9 13.5,16.3 13.5,7.4 	"/>
	<path d="M33.2,5.2C33,2.6,31,0.5,28.3,0.4c-7.7-0.5-15.4-0.5-23.1,0C2.6,0.5,0.5,2.6,0.4,5.2c-0.5,4.5-0.5,9.1,0,13.6
		c0.2,2.6,2.3,4.7,4.9,4.8c4.4,0.2,8.5,0.4,12.4,0.4c3.8,0,7.4-0.1,10.8-0.4c2.6-0.2,4.7-2.2,4.9-4.8C33.7,14.3,33.7,9.7,33.2,5.2z
		 M31.9,18.7c-0.1,2-1.7,3.6-3.7,3.7c-3.3,0.2-6.9,0.4-10.7,0.4c-3.8,0-7.9-0.1-12.3-0.4c-2-0.1-3.6-1.7-3.7-3.7
		c-0.5-4.4-0.5-8.9,0-13.3c0.1-2,1.7-3.6,3.7-3.7c3.8-0.2,7.6-0.4,11.4-0.4s7.7,0.1,11.6,0.4c2,0.1,3.6,1.7,3.7,3.7
		C32.4,9.8,32.4,14.3,31.9,18.7z"/>
</g>
</svg>
