<?xml version="1.0" encoding="utf-8"?>
<!-- Generator: Adobe Illustrator 22.0.1, SVG Export Plug-In . SVG Version: 6.00 Build 0)  -->
<svg version="1.1" id="Layer_1" xmlns="http://www.w3.org/2000/svg" xmlns:xlink="http://www.w3.org/1999/xlink" x="0px" y="0px"
	 viewBox="0 0 151.2 41.3" style="enable-background:new 0 0 151.2 41.3;" xml:space="preserve">
<style type="text/css">
	.st0{fill:#45969F;}
</style>
<title>Asset 1</title>
<g>
	<path class="st0" d="M150.9,2.5c-0.3-0.3-0.6-0.6-1-0.8c-0.6-0.3-1.2-0.6-1.8-0.9c-0.8-0.3-1.5-0.5-2.3-0.6
		c-0.8-0.2-1.7-0.2-2.5-0.2c-1.6,0-3.3,0.2-4.8,0.7c-1.5,0.4-2.9,1.1-4.2,2c-1.2,0.9-2.3,1.9-3.2,3.1c-0.9,1.3-1.6,2.7-2,4.2
		c-0.5,1.3-0.6,2.8-0.4,4.2c0.2,1.1,0.7,2.1,1.3,3c0.7,0.9,1.5,1.6,2.4,2.3c1,0.7,2,1.2,3,1.8l3,1.6c0.9,0.5,1.8,1.1,2.5,1.8
		c0.7,0.7,1.2,1.5,1.5,2.3c0.3,1,0.3,2.2,0,3.2c-0.3,1.2-0.8,2.2-1.5,3.2c-0.7,0.9-1.5,1.7-2.4,2.4c-1,0.6-2,1.1-3.1,1.5
		c-1.2,0.3-2.4,0.5-3.6,0.5c-1.3,0-2.7-0.2-3.9-0.6c-0.9-0.3-1.8-0.7-2.7-1.2c-0.6-0.3-1.1-0.7-1.7-1.2c-0.3-0.3-0.7-0.5-1.1-0.5
		c-0.1,0-0.2,0-0.3,0.1c1-1.4,1.7-2.9,2.1-4.6c0.4-1.3,0.5-2.7,0.3-4.1c-0.2-1.1-0.7-2.1-1.3-3c-0.7-0.9-1.5-1.6-2.4-2.2
		c-1-0.6-2-1.2-3-1.8c-1-0.6-2-1.1-3-1.7c-0.9-0.5-1.8-1.1-2.5-1.8c-0.7-0.7-1.2-1.5-1.5-2.4c-0.3-1-0.3-2.2,0-3.2
		c0.2-0.9,0.6-1.7,1.1-2.4c0.5-0.8,1.1-1.4,1.9-2c0.8-0.6,1.7-1,2.6-1.3c1.1-0.3,2.2-0.5,3.3-0.5c1.1,0,2.2,0.1,3.2,0.5
		c0.8,0.2,1.5,0.6,2.2,1c0.5,0.3,1,0.6,1.5,1c0.2,0.2,0.6,0.4,0.9,0.5c0.1,0,0.3-0.1,0.4-0.1c0.1-0.1,0.2-0.2,0.3-0.4
		c0.1-0.2,0.2-0.4,0.3-0.6c0.1-0.2,0.2-0.5,0.2-0.7c0.1-0.2,0.1-0.5,0.2-0.7c0-0.2,0-0.3,0-0.5c0-0.1,0-0.2,0-0.4
		c-0.1-0.2-0.1-0.3-0.2-0.4c-0.3-0.3-0.6-0.6-1-0.8c-0.6-0.3-1.2-0.6-1.9-0.9c-0.8-0.3-1.5-0.5-2.3-0.6c-0.8-0.2-1.7-0.2-2.5-0.2
		c-1.7,0-3.3,0.2-4.9,0.7c-1.5,0.4-2.9,1.1-4.2,2c-1.2,0.8-2.3,1.9-3.2,3.1c-0.9,1.3-1.6,2.7-2,4.2c-0.4,1.3-0.5,2.8-0.3,4.1
		c0.2,1.1,0.7,2.1,1.3,3c0.7,0.9,1.5,1.6,2.4,2.3c1,0.7,2,1.2,3,1.8l3,1.6c0.9,0.5,1.8,1.1,2.5,1.8c0.7,0.7,1.2,1.5,1.5,2.3
		c0.3,1,0.3,2.2,0,3.2c-0.3,1.2-0.8,2.2-1.5,3.2c-0.7,0.9-1.5,1.7-2.4,2.4c-1,0.6-2,1.1-3.1,1.5c-1.2,0.3-2.4,0.5-3.6,0.5
		c-1.3,0-2.7-0.2-3.9-0.6c-0.9-0.3-1.8-0.7-2.7-1.2c-0.6-0.3-1.2-0.7-1.7-1.2c-0.3-0.3-0.7-0.5-1.1-0.5c-0.1,0-0.3,0-0.4,0.1
		c-0.1,0.1-0.3,0.2-0.4,0.3c-0.1,0.2-0.2,0.4-0.3,0.6c-0.1,0.3-0.2,0.6-0.3,0.9c-0.1,0.4-0.2,0.8-0.2,1.2H84l4.3-16h14.2
		c0.2,0,0.3,0,0.5-0.1c0.1-0.1,0.3-0.2,0.4-0.3c0.1-0.1,0.2-0.3,0.3-0.5c0.2-0.5,0.3-1,0.4-1.5c0-0.2,0-0.3,0-0.5
		c0-0.1-0.1-0.2-0.2-0.3c-0.1-0.1-0.3-0.1-0.4-0.1H89.2L93,4h16.5c0.1,0,0.3,0,0.4-0.1c0.2-0.1,0.3-0.2,0.4-0.3
		c0.1-0.1,0.2-0.3,0.3-0.5c0.1-0.2,0.2-0.5,0.3-0.7c0.1-0.2,0.1-0.5,0.1-0.8c0-0.2,0-0.4,0-0.5c0-0.1-0.1-0.3-0.2-0.4
		c-0.1-0.1-0.2-0.1-0.4-0.1H91.8c-0.5,0-0.9,0.2-1.3,0.4c-0.5,0.4-0.9,0.9-1,1.5l-0.3,1.2c0,0,0,0,0-0.1c-0.4-0.4-0.8-0.8-1.3-1.1
		c-0.7-0.5-1.5-0.9-2.2-1.2c-0.9-0.4-1.9-0.7-2.9-0.9c-1.1-0.2-2.3-0.4-3.4-0.4c-2.5,0-5,0.5-7.4,1.5c-2,0.8-3.9,2-5.6,3.4
		c0-0.1,0-0.2,0-0.3c0-0.1,0-0.3-0.1-0.4C66.3,4,66.2,3.8,66,3.7c-0.4-0.4-0.8-0.8-1.3-1.1c-0.7-0.5-1.5-0.9-2.2-1.2
		c-0.9-0.4-1.9-0.7-2.9-0.9c-1.1-0.2-2.3-0.4-3.4-0.4c-2.5,0-5,0.5-7.4,1.5c-2.4,1-4.6,2.4-6.5,4.2c-2.1,1.9-3.9,4.2-5.3,6.6
		c-1.6,2.8-2.8,5.7-3.6,8.8c-0.7,2.3-1,4.6-1.1,7L29.7,1.2c0-0.2-0.1-0.3-0.1-0.4c-0.1-0.1-0.2-0.2-0.4-0.3
		c-0.2-0.1-0.5-0.1-0.7-0.1c-0.3,0-0.7,0-1,0c-0.3,0-0.7,0-1,0c-0.3,0-0.5,0.1-0.8,0.1c-0.2,0-0.4,0.1-0.5,0.3
		C25,0.9,24.8,1,24.8,1.2L0.4,39.5C0.2,39.7,0.1,40,0,40.3c0,0.2,0,0.3,0.1,0.4c0.2,0.1,0.4,0.2,0.6,0.2C1,41,1.4,41,1.8,41
		c0.3,0,0.7,0,1-0.1c0.2,0,0.4-0.1,0.6-0.2c0.3-0.1,0.5-0.4,0.7-0.6l6.6-10.7h17.7l1,10.7c0,0.1,0,0.2,0.1,0.4
		c0,0.1,0.1,0.2,0.3,0.2c0.2,0.1,0.4,0.1,0.6,0.1c0.3,0,0.7,0,1,0c0.4,0,0.7,0,1.1,0c0.2,0,0.5-0.1,0.7-0.2c0.2-0.1,0.3-0.3,0.3-0.4
		c0-0.2,0-0.5,0-0.8l-0.6-6.3c0.3,1,0.6,1.9,1.1,2.8c1,1.7,2.4,3.1,4.2,3.9c2,0.9,4.3,1.4,6.5,1.3c1.5,0,3-0.1,4.5-0.5
		c1.3-0.3,2.5-0.7,3.8-1.1c1-0.4,1.9-0.8,2.9-1.3c0.5-0.3,1-0.6,1.5-1c0.2-0.1,0.3-0.2,0.4-0.4c0.9,1.2,2.1,2.3,3.5,3
		c2,0.9,4.3,1.4,6.5,1.3c1.5,0,3-0.2,4.4-0.5c1.3-0.3,2.5-0.6,3.8-1.1c1-0.4,2-0.8,2.9-1.3c0.4-0.2,0.9-0.5,1.3-0.8l-0.4,1.3
		c-0.2,0.8-0.2,1.3,0.2,1.5c0.3,0.3,0.6,0.4,1,0.4h18.9c0.2,0,0.3,0,0.4-0.1c0.2-0.1,0.3-0.2,0.4-0.3c0.1-0.1,0.2-0.3,0.3-0.5
		c0.2,0.1,0.3,0.2,0.5,0.2c2,0.8,4.2,1.2,6.4,1.2c1.8,0,3.7-0.3,5.4-0.8c1.7-0.5,3.3-1.2,4.7-2.2c1.1-0.8,2.2-1.8,3.1-2.8
		c-0.1,0.2-0.2,0.5-0.2,0.7c-0.1,0.4-0.2,0.8-0.2,1.2c0,0.3,0.1,0.6,0.3,0.8c0.3,0.3,0.6,0.6,1,0.9c0.6,0.4,1.3,0.7,2,1
		c2,0.8,4.2,1.2,6.3,1.2c1.8,0,3.7-0.3,5.4-0.8c1.7-0.5,3.3-1.2,4.7-2.2c1.4-1,2.7-2.2,3.7-3.6c1-1.4,1.8-3.1,2.2-4.8
		c0.4-1.3,0.5-2.7,0.3-4.1c-0.2-1.1-0.7-2.1-1.3-3c-0.7-0.9-1.5-1.6-2.4-2.2c-1-0.6-2-1.2-3-1.8c-1-0.6-2-1.1-3-1.7
		c-0.9-0.5-1.8-1.1-2.5-1.8c-0.7-0.7-1.2-1.5-1.5-2.4c-0.3-1.1-0.3-2.2,0-3.2c0.2-0.9,0.6-1.7,1.1-2.4c0.5-0.8,1.2-1.5,1.9-2
		c0.8-0.6,1.7-1,2.6-1.3c1.1-0.3,2.2-0.5,3.3-0.5c1.1,0,2.2,0.1,3.2,0.5c0.8,0.2,1.5,0.6,2.2,1c0.5,0.3,1,0.6,1.5,1
		c0.2,0.2,0.6,0.4,0.9,0.5c0.1,0,0.3-0.1,0.4-0.1c0.1-0.1,0.2-0.2,0.3-0.4c0.1-0.2,0.2-0.4,0.3-0.6c0.1-0.2,0.2-0.5,0.2-0.7
		c0.1-0.3,0.2-0.5,0.2-0.7c0-0.2,0-0.3,0-0.5c0-0.1,0-0.2,0-0.4C151.1,2.8,151,2.7,150.9,2.5z M12.7,26.3L26.1,4.6l2,21.7H12.7z
		 M56.6,21.2c-0.8,2.8-1.2,5.7-1.1,8.5c0,1.6,0.3,3.2,0.9,4.7c-0.6,0.4-1.3,0.8-2.1,1.2c-1.2,0.6-2.4,1-3.6,1.4
		c-1.5,0.5-3,0.7-4.5,0.7c-1.8,0.1-3.6-0.3-5.2-1.1c-1.4-0.7-2.5-1.9-3.2-3.2c-0.8-1.6-1.2-3.4-1.1-5.2c0-2.4,0.3-4.8,1-7.1
		c0.7-2.6,1.6-5.1,2.9-7.4c1.1-2,2.5-3.8,4.1-5.4c1.4-1.4,3.1-2.5,5-3.3c1.7-0.7,3.6-1.1,5.5-1.1c1.5,0,2.9,0.2,4.3,0.6
		c1,0.3,1.9,0.8,2.8,1.4C62.8,6,63.3,6.5,63.8,7c0,0.1,0.1,0.1,0.1,0.2c-1.5,1.6-2.8,3.3-3.8,5.2C58.6,15.1,57.4,18.1,56.6,21.2z
		 M80,34.2c-0.7,0.4-1.6,0.9-2.6,1.4c-1.2,0.6-2.4,1-3.6,1.4c-1.5,0.5-3,0.7-4.6,0.7c-1.8,0.1-3.6-0.3-5.2-1.1
		c-1.4-0.7-2.5-1.9-3.1-3.2c-0.8-1.6-1.1-3.4-1.1-5.2c0-2.4,0.4-4.8,1-7.1c0.7-2.6,1.7-5.1,2.9-7.4c1.1-2,2.5-3.8,4.1-5.4
		c1.4-1.4,3.1-2.5,5-3.3c1.7-0.7,3.6-1.1,5.5-1.1c1.5,0,2.9,0.2,4.3,0.6c1,0.3,1.9,0.8,2.8,1.4C85.9,6,86.5,6.5,87,7
		c0.2,0.3,0.6,0.6,1,0.6c0,0,0.1,0,0.1,0l-6.9,25.9C80.8,33.7,80.3,33.9,80,34.2z"/>
</g>
</svg>
