<?xml version="1.0" encoding="utf-8"?>
<!-- Generator: Adobe Illustrator 22.0.1, SVG Export Plug-In . SVG Version: 6.00 Build 0)  -->
<svg version="1.1" id="Layer_1" xmlns="http://www.w3.org/2000/svg" xmlns:xlink="http://www.w3.org/1999/xlink" x="0px" y="0px"
	 viewBox="0 0 169.9 41.6" style="enable-background:new 0 0 169.9 41.6;" xml:space="preserve">
<style type="text/css">
	.st0{fill:none;}
	.st1{fill:#002D3F;}
</style>
<title>Asset 2</title>
<g>
	<polygon class="st0" points="12.4,25.5 23.8,25.5 18.1,8.4 	"/>
	<path class="st0" d="M64.4,10.9c-1-1.2-2.3-2.2-3.8-2.8c-1.9-0.7-4-1.1-6.1-1h-4.1v27.4h4.3c1.9,0.1,3.8-0.2,5.7-0.9
		c1.5-0.5,2.8-1.4,3.9-2.6c1.1-1.3,1.9-2.8,2.3-4.4c0.5-2,0.8-4,0.8-6.1c0-1.8-0.2-3.6-0.7-5.3C66.1,13.6,65.4,12.2,64.4,10.9z"/>
	<path class="st1" d="M36.6,37.9L24.1,2.2c-0.1-0.3-0.2-0.7-0.5-0.9c-0.2-0.3-0.5-0.4-0.9-0.5c-0.5-0.1-1.1-0.2-1.7-0.2h-5.5
		c-0.5,0-1,0.1-1.5,0.2c-0.3,0.1-0.6,0.3-0.8,0.5c-0.2,0.3-0.3,0.5-0.4,0.9L0.5,37.8C0.3,38.4,0.1,39,0,39.5c-0.1,0.4,0,0.7,0.2,1
		C0.5,40.8,0.9,41,1.4,41c0.7,0.1,1.5,0.1,2.2,0.1c0.9,0,1.6-0.1,2.2-0.1C6.2,41,6.6,41,7,40.8c0.3-0.1,0.5-0.2,0.6-0.5
		c0.2-0.2,0.3-0.5,0.3-0.7l2.6-7.8h15.1l2.7,8.1c0.1,0.2,0.2,0.5,0.3,0.7c0.2,0.2,0.4,0.3,0.6,0.4c0.4,0.1,0.9,0.2,1.4,0.2h2.5
		c1,0,1.8-0.1,2.4-0.1c0.4,0,0.9-0.1,1.2-0.4c0.2-0.3,0.4-0.6,0.2-1C36.9,39.1,36.8,38.5,36.6,37.9z M12.4,25.5l5.7-17.1l5.7,17.1
		H12.4z"/>
	<path class="st1" d="M70.5,5.7c-1.8-1.7-4-3-6.3-3.7c-3-0.9-6-1.3-9.1-1.3H44.6c-0.6,0-1.2,0.2-1.7,0.6c-0.5,0.5-0.8,1.3-0.7,2
		v35.1c-0.1,0.7,0.2,1.5,0.7,2c0.5,0.4,1.1,0.6,1.7,0.6h9.6c3.1,0,6.2-0.4,9.2-1.2c2.4-0.7,4.7-2,6.6-3.7c1.9-1.8,3.3-4,4.2-6.4
		c1-3,1.5-6.2,1.4-9.5c0.1-2.9-0.4-5.7-1.3-8.4C73.5,9.5,72.2,7.4,70.5,5.7z M66.4,26.6c-0.4,1.6-1.2,3.1-2.3,4.4
		c-1,1.2-2.4,2.1-3.9,2.6c-1.8,0.6-3.7,0.9-5.7,0.9h-4.3V7.1h4.1c2.1-0.1,4.1,0.3,6.1,1c1.5,0.6,2.8,1.6,3.8,2.8
		c1,1.2,1.7,2.7,2.1,4.3c0.5,1.7,0.7,3.5,0.7,5.3C67.2,22.6,67,24.6,66.4,26.6z"/>
	<path class="st1" d="M113.9,3.3c-0.4-0.4-0.9-0.7-1.5-1c-0.8-0.5-1.7-0.8-2.7-1.1c-1.2-0.4-2.5-0.7-3.8-0.9
		c-1.6-0.3-3.2-0.4-4.8-0.4c-2.9,0-5.9,0.5-8.6,1.5c-2.5,0.9-4.7,2.3-6.6,4.2c-1.9,1.9-3.3,4.2-4.2,6.7c-1,2.8-1.5,5.9-1.5,8.9
		c0,2.9,0.4,5.8,1.4,8.6c1.7,4.9,5.6,8.7,10.5,10.4c2.8,1,5.7,1.4,8.6,1.4c1.1,0,2.2,0,3.3-0.1c1.1-0.1,2.1-0.3,3.2-0.5
		c1.1-0.2,2.1-0.5,3.1-0.8c1-0.3,1.8-0.6,2.5-0.8c0.6-0.2,1-0.6,1.3-1.1c0.2-0.5,0.3-1.1,0.3-1.6v-16c0-0.4,0-0.7-0.2-1.1
		c-0.1-0.3-0.3-0.6-0.5-0.8c-0.2-0.2-0.4-0.4-0.7-0.5c-0.3-0.1-0.6-0.2-0.9-0.2H98.8c-0.2,0-0.4,0.1-0.5,0.2
		c-0.2,0.1-0.3,0.3-0.4,0.5c-0.1,0.3-0.2,0.6-0.2,1c-0.1,0.5-0.1,1-0.1,1.5c0,0.8,0.1,1.6,0.3,2.4c0.2,0.5,0.5,0.7,0.9,0.7h7.7v9.3
		c-0.8,0.4-1.6,0.7-2.5,0.9c-0.9,0.2-1.8,0.3-2.7,0.3c-1.7,0-3.5-0.3-5.1-0.9c-1.5-0.6-2.9-1.5-4-2.7c-1.2-1.3-2-2.8-2.6-4.4
		c-0.6-2-1-4-0.9-6.1c0-2,0.3-3.9,0.9-5.7c0.6-1.7,1.5-3.2,2.6-4.5c1.1-1.2,2.5-2.2,4-2.9c1.7-0.7,3.5-1,5.3-1
		c1.6,0,3.2,0.2,4.8,0.6c1.2,0.3,2.4,0.7,3.6,1.2c0.8,0.3,1.6,0.8,2.4,1.2c0.4,0.3,0.8,0.5,1.3,0.6c0.2,0,0.4-0.1,0.5-0.2
		c0.2-0.1,0.3-0.3,0.3-0.5c0.1-0.3,0.2-0.7,0.2-1c0.1-0.5,0.1-1,0.1-1.5c0-0.8,0-1.6-0.2-2.4C114.4,4.1,114.2,3.7,113.9,3.3z"/>
	<path class="st1" d="M169.7,2.6c-0.1-0.4-0.3-0.7-0.6-1c-0.3-0.3-0.6-0.5-1-0.6c-0.5-0.2-1-0.2-1.5-0.2h-5.5c-0.7,0-1.3,0.1-2,0.2
		c-0.6,0.1-1.1,0.4-1.5,0.8c-0.5,0.4-0.8,0.9-1.1,1.5c-0.4,0.7-0.7,1.4-0.9,2.2l-9,23.9h-0.1l-8.7-24c-0.2-0.8-0.5-1.5-0.9-2.2
		c-0.3-0.6-0.7-1-1.2-1.4c-0.5-0.4-1.1-0.7-1.8-0.8c-0.8-0.2-1.6-0.3-2.5-0.2h-5.3c-0.8,0-1.6,0.3-2.2,0.8c-0.6,0.7-0.9,1.5-0.8,2.4
		v35.8c0,0.2,0.1,0.4,0.2,0.6c0.2,0.2,0.4,0.3,0.6,0.4c0.4,0.1,0.8,0.2,1.2,0.2c0.6,0.1,1.2,0.1,1.9,0.1c0.6,0,1.3,0,1.9-0.1
		c0.4,0,0.8-0.1,1.2-0.2c0.3-0.1,0.5-0.2,0.6-0.4c0.1-0.2,0.2-0.4,0.2-0.6V7.1h0.1l11.3,32.7c0.1,0.2,0.2,0.4,0.4,0.6
		c0.2,0.2,0.5,0.3,0.8,0.4c0.4,0.1,0.8,0.2,1.2,0.2c0.5,0.1,1.1,0.1,1.8,0.1c0.7,0,1.3,0,1.8,0c0.4,0,0.8-0.1,1.2-0.2
		c0.3-0.1,0.5-0.2,0.8-0.4c0.2-0.2,0.3-0.4,0.4-0.7l11.7-32.7h0.1v32.8c0,0.2,0.1,0.4,0.2,0.6c0.2,0.2,0.4,0.3,0.6,0.4
		c0.4,0.1,0.8,0.2,1.2,0.2c1.2,0.1,2.5,0.1,3.8,0c0.4,0,0.8-0.1,1.2-0.2c0.2-0.1,0.5-0.2,0.6-0.4c0.1-0.2,0.2-0.4,0.2-0.6V4
		C169.9,3.5,169.9,3.1,169.7,2.6z"/>
</g>
</svg>
