<?xml version="1.0" standalone="no"?>
<!DOCTYPE svg PUBLIC "-//W3C//DTD SVG 1.1//EN" "http://www.w3.org/Graphics/SVG/1.1/DTD/svg11.dtd" >
<svg xmlns="http://www.w3.org/2000/svg">
<metadata>
Created by FontPrep 20130207 at Tue Mar 24 12:40:24 2015
 By Anas Halbawi
Copyright (c) 2008 by Jos Buivenga/exljbris. All rights reserved.
</metadata>
<defs>
<font id="87e82fa757b19ea2f170ec4b20873855" horiz-adv-x='1024' >
  <font-face 
    font-family="Museo-700"
    font-weight="600"
    font-stretch="normal"
    units-per-em="2048"
    panose-1="2 0 0 0 0 0 0 0 0 0"
    ascent="1536"
    descent="-512"
    x-height="1044"
    cap-height="1454"
    bbox="-109 -485 2372 1847"
    underline-thickness="102"
    underline-position="-102"
    unicode-range="U+0020-FB04"
  />
<missing-glyph horiz-adv-x="1044" 
d="M174 102h696l-348 523zM113 195l348 522l-348 522v-1044zM584 717l348 -522v1044zM522 809l348 522h-696zM10 0v1434h1024v-1434h-1024z" />
    <glyph glyph-name="f_f" unicode="ff" horiz-adv-x="1392" 
d="M170 0v838h-129v206h129v31q0 98 31 171t75 113q45 39 125 71q80 31 195 32l88 -6v-221q-23 4 -53 4q-201 0 -201 -176v-19h426v31q0 98 31 171q92 216 397 216l86 -6v-221q-23 4 -53 4q-201 0 -201 -176v-19h225v-206h-225v-838h-260v838h-426v-838h-260z" />
    <glyph glyph-name="fi" unicode="fi" horiz-adv-x="1298" 
d="M877 1214v240h225v-240h-225zM170 0v838h-129v206h129v31q0 98 31 171t75 113q45 39 125 71q80 31 195 32l88 -6v-221q-25 4 -59 4q-195 0 -195 -174v-21h555q139 0 139 -139v-641q0 -45 45 -45h80v-219h-245q-74 0 -107 33t-33 106v654q0 45 -45 45h-389v-838h-260z" />
    <glyph glyph-name="fl" unicode="fl" horiz-adv-x="1282" 
d="M596 1454h375q139 0 139 -139v-1051q0 -45 45 -45h80v-219h-246q-75 0 -107 33t-32 106v1049q0 45 -45 45h-174q-201 0 -201 -164v-25h223v-206h-223v-838h-260v838h-129v206h129v31q0 98 32 171t76 111q112 97 318 97z" />
    <glyph glyph-name="f_f_i" unicode="ffi" horiz-adv-x="1986" 
d="M1563 1214v240h225v-240h-225zM170 0v838h-129v206h129v31q0 98 31 171t75 113q45 39 125 71q80 31 195 32l88 -6v-221q-25 4 -59 4q-195 0 -195 -176v-19h426v31q0 98 31 171q92 216 397 216l86 -6v-221q-25 4 -57 4q-197 0 -197 -176v-19h555q74 0 107 -34t32 -105
v-641q0 -45 45 -45h82v-219h-247q-74 0 -107 33t-33 106v654q0 45 -45 45h-389v-838h-260v838h-426v-838h-260z" />
    <glyph glyph-name="f_f_l" unicode="ffl" horiz-adv-x="1970" 
d="M1284 1454h375q139 0 139 -139v-1051q0 -45 45 -45h80v-219h-246q-75 0 -107 33t-32 106v1049q0 45 -45 45h-174q-201 0 -201 -164v-25h223v-206h-223v-838h-260v838h-428v-838h-260v838h-129v206h129v33q0 96 31 170t74 114q111 101 319 101l90 -6v-221q-25 4 -57 4
q-197 0 -197 -174v-21h428v31q0 98 32 171t76 111q112 97 318 97z" />
    <glyph glyph-name="f_j" unicode="fj" horiz-adv-x="1320" 
d="M915 1214v240h226v-240h-226zM170 0v838h-129v206h129v31q0 98 31 171t75 113q45 39 125 71q80 31 195 32l88 -6v-221q-25 4 -59 4q-195 0 -195 -176v-19h592q74 0 106 -34t33 -105v-936q0 -100 -33 -175q-32 -75 -78 -115q-46 -39 -128 -71t-197 -32l-78 6v219
q18 -4 67 -4q49 1 96 25q93 48 91 168v803q0 45 -45 45h-426v-838h-260z" />
    <glyph glyph-name=".notdef" horiz-adv-x="1044" 
d="M174 102h696l-348 523zM113 195l348 522l-348 522v-1044zM584 717l348 -522v1044zM522 809l348 522h-696zM10 0v1434h1024v-1434h-1024z" />
    <glyph glyph-name=".null" horiz-adv-x="0" 
 />
    <glyph glyph-name="nonmarkingreturn" horiz-adv-x="681" 
 />
    <glyph glyph-name="space" unicode=" " horiz-adv-x="542" 
 />
    <glyph glyph-name="space" unicode="&#xa0;" horiz-adv-x="542" 
 />
    <glyph glyph-name="exclam" unicode="!" horiz-adv-x="679" 
d="M215 0v242h252v-242h-252zM227 420l-22 1034h270l-20 -1034h-228z" />
    <glyph glyph-name="quotedbl" unicode="&#x22;" horiz-adv-x="755" 
d="M117 1053v428h192v-428h-192zM444 1053v428h193v-428h-193z" />
    <glyph glyph-name="numbersign" unicode="#" horiz-adv-x="1433" 
d="M549 569h280l52 287h-281zM244 0l65 383h-243l30 186h244l51 287h-239l30 188h242l72 410h209l-72 -410h278l72 410h209l-72 -410h248l-33 -188h-245l-52 -287h244l-31 -186h-245l-66 -383h-209l68 383h-281l-65 -383h-209z" />
    <glyph glyph-name="dollar" unicode="$" horiz-adv-x="1146" 
d="M807 374q0 66 -38 108t-98 74t-133 64t-146 72t-133 91q-60 50 -98 127t-38 173q0 152 107 256q108 104 278 131v191h182v-191q136 -18 238 -88t102 -190v-135h-242v65q0 49 -54 81t-137 32t-143 -42t-60 -109q0 -66 70 -118q71 -52 171 -94q101 -42 201 -92
q100 -51 171 -148t71 -243q0 -147 -107 -263q-106 -116 -281 -142v-191h-182v189q-84 12 -159 46t-150 97t-105 117l-16 26l186 156q13 -25 55 -73q123 -134 295 -134q76 0 135 46q58 45 58 111z" />
    <glyph glyph-name="percent" unicode="%" horiz-adv-x="1689" 
d="M1106 298q0 -56 39 -95t96 -39t97 39t40 95t-40 96t-97 40t-96 -40t-39 -96zM907 297q-1 133 97 228t236 95t236 -94q98 -96 99 -229q0 -133 -97 -227q-96 -94 -236 -94t-238 94t-97 227zM446 1020q57 0 98 39q40 39 40 95t-40 96t-98 40t-96 -40q-39 -40 -39 -96t39 -95
t96 -39zM164 0l1116 1454h240l-1117 -1454h-239zM446 831q-139 1 -236 95t-97 228t98 229t235 95q136 0 236 -94q100 -96 100 -230t-98 -228t-238 -95z" />
    <glyph glyph-name="ampersand" unicode="&#x26;" horiz-adv-x="1333" 
d="M637 641q-131 -1 -206 -55t-75 -150t69 -157t185 -61t181 67q66 68 65 198v158h-219zM86 426q0 113 65 214t177 134v4q-17 4 -55 36t-61 64q-62 83 -62 218q0 172 124 277q125 105 318 106q108 0 176 -19l25 -6l-64 -209q-51 12 -98 12q-95 0 -155 -55t-60 -135t51 -138
t170 -59h219v174h260v-174h174v-229h-174v-172q0 -225 -136 -359t-368 -134t-380 128q-146 129 -146 322z" />
    <glyph glyph-name="quotesingle" unicode="'" horiz-adv-x="430" 
d="M117 1053v428h196v-428h-196z" />
    <glyph glyph-name="parenleft" unicode="(" horiz-adv-x="718" 
d="M166 663q0 497 240 855h221q-229 -383 -229 -842t235 -871h-221q-246 361 -246 858z" />
    <glyph glyph-name="parenright" unicode=")" horiz-adv-x="718" 
d="M322 676q0 459 -230 842h221q242 -360 242 -856t-246 -857h-223q236 412 236 871z" />
    <glyph glyph-name="asterisk" unicode="*" horiz-adv-x="989" 
d="M350 657l-186 136l170 204v4l-258 64l69 221l248 -100l-18 268h235l-18 -268l248 100l73 -219l-262 -66v-4l172 -202l-186 -138l-141 226h-4z" />
    <glyph glyph-name="plus" unicode="+" 
d="M86 483v203h442v485h211v-485h443v-203h-443v-483h-211v483h-442z" />
    <glyph glyph-name="comma" unicode="," horiz-adv-x="542" 
d="M182 264h250l-196 -479h-191z" />
    <glyph glyph-name="hyphen" unicode="-" horiz-adv-x="882" 
d="M133 471v227h617v-227h-617z" />
    <glyph glyph-name="hyphen" unicode="&#xad;" horiz-adv-x="882" 
d="M133 471v227h617v-227h-617z" />
    <glyph glyph-name="period" unicode="." horiz-adv-x="542" 
d="M145 0v260h252v-260h-252z" />
    <glyph glyph-name="slash" unicode="/" horiz-adv-x="751" 
d="M-2 -86l520 1614h223l-522 -1614h-221z" />
    <glyph glyph-name="zero" unicode="0" horiz-adv-x="1253" 
d="M627 217q256 0 256 509t-256 509t-256 -509t256 -509zM627 -25q-143 -1 -249 57t-164 164q-114 208 -114 533q0 750 526 750t527 -750q0 -324 -114 -532q-57 -106 -163 -164t-249 -58z" />
    <glyph glyph-name="one" unicode="1" horiz-adv-x="1091" 
d="M131 0v227h313v807l2 99h-4q-16 -35 -63 -82l-117 -111l-156 164l365 350h242v-1227h313v-227h-895z" />
    <glyph glyph-name="two" unicode="2" horiz-adv-x="1189" 
d="M68 192q0 212 140 338q94 87 292 196q76 42 138 86q140 99 140 232q0 86 -58 138t-146 51q-88 0 -143 -36q-54 -36 -54 -79v-63h-242v143q0 90 73 157q135 124 352 124q216 0 352 -117t137 -313q0 -137 -73 -243t-176 -172q-104 -65 -206 -119q-102 -55 -175 -117
t-73 -134q0 -37 55 -37h426q45 0 45 45v88h242v-221q0 -75 -33 -107t-106 -32h-758q-92 0 -121 42q-28 42 -28 150z" />
    <glyph glyph-name="three" unicode="3" horiz-adv-x="1138" 
d="M793 443q0 95 -78 153t-197 59h-102l-54 133l246 330q54 78 84 99l13 12v4q-45 -6 -130 -6h-182q-45 0 -45 -45v-88h-242v221q0 75 28 107t99 32h791v-166l-334 -418q158 -24 266 -136t109 -296q0 -184 -140 -324q-140 -138 -366 -138t-422 132q-43 30 -63 52l-21 20
l135 201q153 -153 357 -156q109 -1 179 61t69 157z" />
    <glyph glyph-name="four" unicode="4" horiz-adv-x="1206" 
d="M690 594v403l10 158h-4q-41 -78 -78 -131l-227 -336l-74 -96v-4q59 6 127 6h246zM37 367v170l602 917h315v-860h224v-227h-224v-367h-268v367h-649z" />
    <glyph glyph-name="five" unicode="5" horiz-adv-x="1218" 
d="M836 474q0 110 -92 176t-222 65q-72 -1 -140 -17t-101 -32l-33 -17l-94 47l53 619q6 75 37 107t100 32h537q139 0 139 -139v-221h-244v88q0 45 -45 45h-239q-41 0 -46 -45l-18 -201l-10 -68h4q68 27 153 27q245 0 389 -136t144 -339t-146 -347t-393 -145q-174 0 -294 68
t-160 115l-19 20l135 203q10 -15 51 -48q129 -104 287 -106q119 0 193 70q74 69 74 179z" />
    <glyph glyph-name="six" unicode="6" horiz-adv-x="1177" 
d="M344 571q0 -137 86 -245t192 -109q106 0 166 70q60 71 60 181t-71 186t-182 75q-111 0 -181 -46t-70 -112zM1108 461q0 -205 -133 -345t-357 -141q-224 1 -388 183q-163 182 -162 493q0 252 106 458q117 230 321 321q112 49 218 49q178 0 291 -45l32 -17l-78 -227
q-94 45 -204 45q-160 0 -258 -114t-127 -281h4q37 46 113 76t157 30q209 0 337 -140t128 -345z" />
    <glyph glyph-name="seven" unicode="7" horiz-adv-x="1101" 
d="M684 1227h-350q-45 0 -45 -45v-88h-244v221q0 75 29 107t98 32h909v-184l-692 -1270h-293l600 1094q51 91 78 118l10 15v4q-27 -4 -100 -4z" />
    <glyph glyph-name="eight" unicode="8" horiz-adv-x="1193" 
d="M502 670q-42 0 -100 -73t-58 -166t72 -153t176 -60t177 56t73 136t-52 124t-160 90t-128 46zM696 850q30 0 72 66q43 66 43 144q0 79 -57 127q-56 48 -152 48t-151 -47t-55 -117t49 -112q51 -41 136 -75t115 -34zM599 1479q212 0 341 -115t129 -274t-101 -286
q-24 -30 -40 -44l-17 -15v-4q201 -127 201 -333q0 -174 -144 -304t-370 -129q-226 0 -375 125t-149 320q0 128 75 222q75 93 125 124l23 16v4q-159 106 -162 291q0 164 126 283t338 119z" />
    <glyph glyph-name="nine" unicode="9" horiz-adv-x="1177" 
d="M553 1235q-105 0 -165 -69q-60 -70 -60 -180t70 -186t182 -75q112 0 182 45t69 113q0 137 -86 245t-192 107zM422 217q160 0 258 114t127 283h-4q-35 -46 -113 -76t-158 -30q-208 0 -336 140t-128 344t133 345t357 141t388 -182q162 -182 162 -493q0 -250 -107 -458
q-117 -231 -311 -316q-193 -85 -408 -38q-75 15 -110 29l-33 17l78 227q94 -47 205 -47z" />
    <glyph glyph-name="colon" unicode=":" horiz-adv-x="626" 
d="M188 0v260h250v-260h-250zM188 784v260h250v-260h-250z" />
    <glyph glyph-name="semicolon" unicode=";" horiz-adv-x="626" 
d="M72 -215l112 479h248l-168 -479h-192zM190 784v260h250v-260h-250z" />
    <glyph glyph-name="less" unicode="&#x3c;" 
d="M131 502v168l985 438v-227l-710 -293v-4l710 -293v-228z" />
    <glyph glyph-name="equal" unicode="=" 
d="M135 274v201h1000v-201h-1000zM135 694v201h1000v-201h-1000z" />
    <glyph glyph-name="greater" unicode="&#x3e;" 
d="M145 63v228l711 293v4l-711 293v227l985 -438v-168z" />
    <glyph glyph-name="question" unicode="?" horiz-adv-x="974" 
d="M297 0v242h252v-242h-252zM297 420v98q0 82 35 151t84 115t99 87q120 101 120 202q0 72 -57 121t-125 49q-116 0 -207 -63l-29 -23l-143 178q16 16 46 41t130 66t209 41q182 1 314 -105t132 -280q0 -94 -37 -170t-89 -125t-104 -93q-126 -107 -126 -210v-80h-252z" />
    <glyph glyph-name="at" unicode="@" horiz-adv-x="1607" 
d="M811 498q0 -84 55 -142t144 -59h157v401h-153q-90 0 -146 -58t-57 -142zM78 490q0 320 222 543q222 222 532 222t444 -125q135 -125 135 -321v-512h150v-186h-568q-199 1 -319 113t-121 267q0 155 120 265t320 110h174q-2 80 -90 130t-221 51q-219 0 -371 -166
q-151 -166 -151 -393t152 -387q153 -159 403 -158v-203q-360 0 -586 215q-225 215 -225 535z" />
    <glyph glyph-name="A" unicode="A" horiz-adv-x="1380" 
d="M506 594h368l-124 364l-58 218h-4q-31 -137 -57 -218zM23 0v227h32q49 0 64 45l432 1182h280l431 -1182q14 -45 63 -45h33v-227h-160q-76 0 -112 25t-60 94l-90 254h-492l-90 -254q-26 -71 -60 -95t-110 -24h-161z" />
    <glyph glyph-name="B" unicode="B" horiz-adv-x="1288" 
d="M469 272q0 -45 45 -45h209q96 1 150 59q55 58 55 151t-56 151t-149 59h-254v-375zM469 860h229q82 0 129 52t47 134t-47 132q-47 49 -133 49h-225v-367zM201 139v1088h-133v227h628q201 0 326 -99t125 -276q0 -113 -51 -193t-125 -118v-4q113 -33 173 -129t60 -213
q0 -206 -142 -314t-360 -108h-362q-72 0 -106 32t-33 107z" />
    <glyph glyph-name="C" unicode="C" horiz-adv-x="1452" 
d="M809 -25q-330 0 -539 218q-209 217 -209 539t211 534t527 213q164 0 344 -70q90 -35 148 -101t59 -155v-162h-244v82q0 74 -95 115t-206 41q-201 0 -333 -133q-132 -134 -132 -352t137 -368t336 -151q158 0 269 65t153 107l18 21l142 -193q-22 -28 -89 -78
q-67 -51 -129 -85q-63 -34 -163 -60t-205 -27z" />
    <glyph glyph-name="D" unicode="D" horiz-adv-x="1464" 
d="M471 272q0 -45 45 -45h131q221 0 349 130t128 370t-129 370t-348 130h-176v-955zM203 139v1088h-133v227h592q340 0 540 -192t201 -533q0 -341 -201 -535t-540 -194h-320q-74 0 -106 32t-33 107z" />
    <glyph glyph-name="E" unicode="E" horiz-adv-x="1183" 
d="M203 139v1088h-133v227h878q139 0 139 -139v-221h-243v88q0 45 -45 45h-328v-381h471v-228h-471v-346q0 -45 45 -45h336q45 0 45 45v88h244v-221q0 -75 -34 -107t-106 -32h-659q-74 0 -106 32t-33 107z" />
    <glyph glyph-name="F" unicode="F" horiz-adv-x="1077" 
d="M203 0v1227h-133v227h829q74 0 107 -34t32 -105v-221h-241v88q0 45 -45 45h-281v-412h465v-227h-465v-588h-268z" />
    <glyph glyph-name="G" unicode="G" horiz-adv-x="1519" 
d="M63 722q0 328 212 542t528 215q244 0 445 -119q44 -27 65 -45l20 -21l-151 -192q-16 14 -48 36t-129 58t-196 35q-195 0 -331 -138q-136 -139 -136 -363t138 -364t339 -141q103 0 195 38t133 77l41 37v108q0 45 -45 45h-88v228h235q74 0 107 -33t33 -104v-621h-230v70
l2 61h-4q-19 -19 -88 -65q-70 -46 -167 -68t-173 -23q-295 0 -501 209q-206 210 -206 538z" />
    <glyph glyph-name="H" unicode="H" horiz-adv-x="1583" 
d="M203 0v1182q0 45 -45 45h-88v227h262q74 0 106 -34t33 -105v-477h641v477q0 139 139 139h262v-227h-88q-45 0 -45 -45v-1182h-268v610h-641v-610h-268z" />
    <glyph glyph-name="I" unicode="I" horiz-adv-x="700" 
d="M78 0v227h145v1000h-145v227h545v-227h-146v-1000h146v-227h-545z" />
    <glyph glyph-name="J" unicode="J" horiz-adv-x="1103" 
d="M41 430v84h268v-59q1 -121 55 -175t136 -54t135 52q53 54 53 164v740q0 45 -45 45h-352v227h526q139 0 139 -139v-885q0 -223 -135 -339t-322 -116t-323 117q-135 117 -135 338z" />
    <glyph glyph-name="K" unicode="K" horiz-adv-x="1298" 
d="M203 0v1182q0 45 -45 45h-88v227h262q74 0 106 -34t33 -105v-453h102q90 0 117 47l293 545h295l-328 -598q-42 -77 -92 -106v-5q49 -12 94 -100l185 -371q23 -47 102 -47h39v-227h-154q-86 0 -127 20t-75 89l-238 477q-16 33 -45 41t-82 8h-86v-635h-268z" />
    <glyph glyph-name="L" unicode="L" horiz-adv-x="1142" 
d="M203 139v1043q0 45 -45 45h-88v227h262q74 0 106 -34t33 -105v-1043q0 -45 45 -45h318q45 0 45 45v88h243v-221q0 -75 -32 -107t-107 -32h-641q-74 0 -106 32t-33 107z" />
    <glyph glyph-name="M" unicode="M" horiz-adv-x="1781" 
d="M37 0v227h63q41 0 45 45l95 1182h278l299 -692l72 -195h4q37 111 72 195l299 692h278l94 -1182q4 -45 45 -45h64v-227h-232q-71 0 -101 32t-36 107l-49 647q-4 44 -4 100v91l2 35h-4q-43 -143 -80 -226l-242 -536h-217l-241 536q-22 50 -68 189l-12 39h-4q6 -131 -2 -228
l-47 -647q-6 -75 -37 -107t-103 -32h-231z" />
    <glyph glyph-name="N" unicode="N" horiz-adv-x="1576" 
d="M70 0v227h88q45 0 45 45v1182h241l551 -805q69 -103 103 -172l18 -33h4q-14 121 -14 205v666q0 71 33 105t106 34h262v-227h-88q-45 0 -45 -45v-1182h-239l-553 803q-69 103 -103 172l-18 33h-4q14 -121 14 -205v-664q0 -75 -33 -107t-106 -32h-262z" />
    <glyph glyph-name="O" unicode="O" horiz-adv-x="1626" 
d="M340 732q0 -212 137 -359t336 -147t336 146q137 148 137 360t-137 354t-336 142t-336 -142t-137 -354zM813 1479q319 0 535 -214t217 -532q0 -317 -216 -537q-215 -220 -535 -220t-536 219t-217 537q1 318 217 532t535 215z" />
    <glyph glyph-name="P" unicode="P" horiz-adv-x="1239" 
d="M471 731h215q113 0 175 68q63 67 63 181t-62 180t-172 67h-219v-496zM203 0v1227h-133v227h665q205 0 334 -131t129 -342t-129 -345t-334 -134h-264v-502h-268z" />
    <glyph glyph-name="Q" unicode="Q" horiz-adv-x="1626" 
d="M340 732q0 -212 137 -359t334 -148q68 -1 128 17t85 37l27 16l-148 137l158 174l147 -147q78 123 78 276q0 209 -137 350t-337 141t-336 -140q-136 -142 -136 -354zM61 732q0 316 215 530t536 215q321 0 537 -214t216 -528q0 -248 -160 -459l158 -143l-160 -174l-158 156
q-182 -139 -434 -140q-317 1 -533 221t-217 536z" />
    <glyph glyph-name="R" unicode="R" horiz-adv-x="1294" 
d="M471 772h213q102 0 158 60t57 168q0 106 -56 166t-155 61h-217v-455zM203 0v1227h-133v227h651q203 0 328 -118t125 -320q0 -92 -29 -168q-46 -120 -150 -185q-37 -24 -63 -30v-4q45 -20 72 -74l141 -281q25 -47 102 -47h27v-227h-141q-84 0 -126 20t-77 89l-187 366
q-23 41 -50 54q-28 13 -87 14h-135v-543h-268z" />
    <glyph glyph-name="S" unicode="S" horiz-adv-x="1124" 
d="M94 1069q0 176 137 293t354 117t352 -122q75 -69 75 -165v-135h-242v65q0 49 -58 81t-142 32t-144 -43q-60 -42 -61 -102q0 -104 136 -169q60 -30 186 -83q362 -154 362 -430q0 -185 -131 -309t-353 -124q-90 0 -175 24t-167 71t-137 106l-20 25l151 188q6 -6 17 -18
q88 -96 221 -135q160 -51 263 27q60 46 60 132t-136 159q-60 32 -133 64q-163 70 -279 161q-60 48 -98 123t-38 167z" />
    <glyph glyph-name="T" unicode="T" horiz-adv-x="1337" 
d="M535 0v1227h-224q-45 0 -45 -45v-88h-235v229q1 71 29 101t102 30h1014q74 0 102 -30t29 -101v-229h-236v88q0 45 -45 45h-223v-1227h-268z" />
    <glyph glyph-name="U" unicode="U" horiz-adv-x="1515" 
d="M186 518v664q0 45 -45 45h-88v227h262q74 0 107 -34t33 -105v-789q0 -141 82 -221t221 -80t221 80t82 223v787q0 71 33 105t106 34h262v-227h-88q-45 0 -45 -45v-664q0 -242 -157 -392q-158 -150 -414 -151q-256 1 -414 151t-158 392z" />
    <glyph glyph-name="V" unicode="V" horiz-adv-x="1400" 
d="M59 1227h-36v227h170q75 0 111 -24t61 -95l278 -811q28 -87 49 -178l6 -35h4q27 131 56 213l278 811q25 70 60 95t110 24h172v-227h-39q-47 0 -63 -45l-434 -1182h-283l-436 1182q-16 45 -64 45z" />
    <glyph glyph-name="W" unicode="W" horiz-adv-x="2031" 
d="M72 1227h-39v227h174q80 0 122 -26t58 -93l199 -866l24 -154h4q8 70 31 154l264 981h228l249 -981l29 -154h4q6 72 25 154l201 866q14 67 56 93t122 26h176v-227h-39q-55 0 -66 -45l-303 -1182h-309l-221 823l-37 181h-4q-12 -86 -39 -181l-231 -823h-312l-301 1182
q-10 45 -65 45z" />
    <glyph glyph-name="X" unicode="X" horiz-adv-x="1255" 
d="M102 1227h-61v227h168q74 0 112 -22t74 -84l140 -242l92 -176h4q39 92 88 176l141 242q37 63 76 85t113 21h165v-227h-61q-35 0 -52 -9t-36 -40l-272 -441l452 -737h-301l-225 383l-92 170h-4q-39 -86 -88 -170l-224 -383h-301l451 737l-271 441q-18 33 -34 41t-54 8z
" />
    <glyph glyph-name="Y" unicode="Y" horiz-adv-x="1259" 
d="M496 0v635l-344 543q-20 31 -36 40t-48 9h-48v227h138q74 0 112 -20t78 -86l193 -320l88 -164h4q37 78 88 164l190 320q39 66 78 86t113 20h137v-227h-47q-33 0 -48 -9t-36 -40l-344 -543v-635h-268z" />
    <glyph glyph-name="Z" unicode="Z" horiz-adv-x="1204" 
d="M35 0v170l653 926q54 74 96 116l15 15v4q-43 -4 -111 -4h-352q-45 0 -45 -45v-88h-244v221q0 71 33 105t106 34h944v-168l-653 -928q-54 -74 -96 -116l-14 -15v-4q43 4 110 4h397q45 0 46 45v88h241v-221q0 -75 -33 -107t-106 -32h-987z" />
    <glyph glyph-name="bracketleft" unicode="[" horiz-adv-x="720" 
d="M188 -55v1433q0 74 33 107t107 33h264v-189h-137q-45 0 -45 -45v-1245q0 -45 45 -45h137v-189h-264q-74 0 -107 33t-33 107z" />
    <glyph glyph-name="backslash" unicode="\" horiz-adv-x="745" 
d="M532 -86l-522 1614h223l523 -1614h-224z" />
    <glyph glyph-name="bracketright" unicode="]" horiz-adv-x="720" 
d="M129 -6h135q45 0 45 45v1245q0 45 -45 45h-135v189h264q74 0 107 -33t32 -107v-1433q0 -74 -32 -107t-107 -33h-264v189z" />
    <glyph glyph-name="asciicircum" unicode="^" 
d="M133 502l412 952h164l411 -952h-225l-268 678l-269 -678h-225z" />
    <glyph glyph-name="underscore" unicode="_" horiz-adv-x="1169" 
d="M10 0h1149v-201h-1149v201z" />
    <glyph glyph-name="grave" unicode="`" horiz-adv-x="817" 
d="M360 1550l-213 279h250l156 -279h-193z" />
    <glyph glyph-name="a" unicode="a" horiz-adv-x="1146" 
d="M330 313q0 -55 41 -95t129 -40t156 87q69 87 69 188v24h-45q-350 0 -350 -164zM688 655h33v9q0 112 -46 158t-147 46q-49 0 -94 -15t-45 -54v-56h-242v111q0 68 42 115t111 66q123 34 230 34q451 0 451 -416v-389q0 -45 45 -45h82v-219h-234q-68 0 -100 32t-33 83l2 45
h-4l-10 -20t-33 -45q-28 -33 -60 -57q-82 -62 -220 -62q-139 -1 -244 87q-104 88 -104 242t123 234q126 80 264 98t233 18z" />
    <glyph glyph-name="b" unicode="b" horiz-adv-x="1265" 
d="M414 532q0 -148 68 -242q68 -95 186 -95q116 0 192 87t76 235q0 149 -72 239t-186 90t-188 -83q-76 -83 -76 -231zM162 0v1188q0 45 -45 45h-82v221h248q139 0 139 -139v-303l-4 -88h4q13 19 43 48q105 97 270 97q211 1 337 -151t126 -397t-134 -395t-345 -151
q-96 0 -174 37t-107 74l-30 37h-5q4 -29 5 -70v-53h-246z" />
    <glyph glyph-name="c" unicode="c" horiz-adv-x="1101" 
d="M66 520q0 231 155 390q156 159 416 159q194 0 309 -95q70 -56 70 -140v-123h-230v57q0 38 -47 60t-102 22q-135 0 -222 -92t-87 -239t95 -231t230 -85q80 0 157 35t116 69l37 37l108 -180q-18 -24 -66 -61q-161 -125 -374 -128q-252 0 -409 157q-156 157 -156 388z" />
    <glyph glyph-name="d" unicode="d" horiz-adv-x="1273" 
d="M586 195q112 0 188 83t76 230q0 146 -68 242t-186 96t-192 -87t-74 -235t72 -239q72 -90 184 -90zM66 523q0 245 133 396t342 150q161 0 260 -82q23 -18 30 -33l11 -12h4q-2 27 -2 62v184q0 45 -45 45h-82v221h248q139 0 139 -139v-1051q0 -45 45 -45h80v-219h-240
q-129 0 -129 106v39h-4q-4 -6 -11 -18t-35 -41q-105 -108 -280 -111q-212 -1 -338 151t-126 397z" />
    <glyph glyph-name="e" unicode="e" horiz-adv-x="1140" 
d="M587 868q-91 0 -158 -56q-66 -57 -89 -155h453q-3 91 -59 151t-147 60zM66 528q0 236 147 388t373 153q226 0 350 -140q123 -140 123 -356l-6 -96h-721q14 -133 102 -207t211 -73q74 1 148 29t108 57l37 30l109 -180q-94 -94 -276 -140q-71 -17 -144 -18q-252 0 -407 159
q-154 158 -154 394z" />
    <glyph glyph-name="f" unicode="f" horiz-adv-x="706" 
d="M170 0v838h-129v206h129v31q0 98 31 171t75 113q45 39 125 71q80 31 195 32l88 -6v-221q-23 4 -53 4q-201 0 -201 -170v-25h223v-206h-223v-838h-260z" />
    <glyph glyph-name="g" unicode="g" horiz-adv-x="1253" 
d="M330 554q0 -138 68 -226t184 -88q114 0 183 72t69 235q0 301 -261 301q-117 0 -180 -78t-63 -216zM66 550q0 224 122 372q123 147 340 147q138 0 217 -51t95 -80l10 -16h4v26q0 39 29 68t86 28h241v-221h-80q-45 0 -45 -41v-719q0 -129 -47 -227t-127 -154
q-161 -112 -369 -112t-378 90l80 205q129 -70 273 -70q144 -1 227 61t83 195v49l2 56h-4q-95 -136 -301 -136t-333 153q-125 153 -125 377z" />
    <glyph glyph-name="h" unicode="h" horiz-adv-x="1310" 
d="M162 0v1188q0 45 -45 45h-82v221h248q139 0 139 -137v-367l-4 -88h4q41 84 136 146t222 61q365 0 365 -397v-408q0 -45 45 -45h82v-219h-248q-72 0 -104 33t-33 106v479q0 104 -37 158t-133 55q-96 0 -172 -60q-75 -60 -99 -136t-24 -156v-479h-260z" />
    <glyph glyph-name="i" unicode="i" horiz-adv-x="612" 
d="M178 139v639q0 45 -45 45h-82v221h248q73 0 105 -34t32 -105v-641q0 -45 45 -45h82v-219h-248q-73 0 -105 32t-32 107zM190 1214v240h226v-240h-226z" />
    <glyph glyph-name="j" unicode="j" horiz-adv-x="624" 
d="M-39 -199q18 -4 67 -4q49 1 96 25q93 48 91 168v788q0 45 -45 45h-82v221h248q74 0 106 -34t33 -105v-936q0 -100 -33 -175q-32 -75 -78 -115q-46 -39 -128 -71t-197 -32l-78 6v219zM225 1214v240h228v-240h-228z" />
    <glyph glyph-name="k" unicode="k" horiz-adv-x="1132" 
d="M162 0v1188q0 45 -45 45h-82v221h248q75 0 107 -24t32 -95v-659h78q72 0 98 39l213 329h289l-264 -393q-34 -49 -78 -82v-4q37 -14 73 -82l119 -225q20 -39 86 -39h70v-219h-193q-69 0 -101 17t-62 73l-175 328q-23 39 -96 39h-57v-457h-260z" />
    <glyph glyph-name="l" unicode="l" horiz-adv-x="595" 
d="M164 139v1049q0 45 -45 45h-82v221h248q139 0 139 -139v-1051q0 -45 45 -45h80v-219h-246q-75 0 -107 32t-32 107z" />
    <glyph glyph-name="m" unicode="m" horiz-adv-x="1931" 
d="M170 0v778q0 45 -45 45h-82v221h240q137 0 137 -116v-31l-2 -45h4q41 86 132 152t206 65q238 0 305 -215h4q45 90 141 152t215 63q342 0 342 -397v-408q0 -45 45 -45h80v-219h-245q-74 0 -107 33t-33 106v484q0 102 -29 155q-30 53 -118 53q-88 -1 -156 -69t-90 -170
q-16 -55 -16 -133v-459h-260v623q0 100 -28 154t-118 54q-90 1 -156 -67t-86 -154q-22 -86 -22 -151v-459h-258z" />
    <glyph glyph-name="n" unicode="n" horiz-adv-x="1316" 
d="M170 0v778q0 45 -45 45h-82v221h240q137 0 137 -116v-31l-4 -45h4q43 86 135 152t233 65q365 0 365 -397v-408q0 -45 45 -45h82v-219h-248q-74 0 -106 33t-33 106v479q0 104 -36 158t-133 55q-97 0 -172 -58t-103 -155q-20 -61 -21 -139v-479h-258z" />
    <glyph glyph-name="o" unicode="o" horiz-adv-x="1275" 
d="M637 848q-129 0 -219 -92t-90 -235q0 -142 90 -233t220 -91t220 91t90 233q0 143 -91 235t-220 92zM66 522q0 238 164 392t407 155q241 0 407 -155q166 -154 166 -392t-164 -392t-408 -155q-244 1 -408 155t-164 392z" />
    <glyph glyph-name="p" unicode="p" horiz-adv-x="1271" 
d="M422 532q0 -148 68 -242q68 -95 185 -95t193 87t76 235q0 149 -72 239t-186 90t-188 -83q-76 -83 -76 -231zM170 -410v1188q0 45 -45 45h-82v221h231q131 0 132 -100v-41h4q4 5 11 17t36 41q108 108 284 108q211 1 338 -151t127 -397t-135 -395t-344 -151q-143 0 -253 88
q-26 20 -46 50h-4q4 -37 4 -90v-433h-258z" />
    <glyph glyph-name="q" unicode="q" horiz-adv-x="1273" 
d="M587 195q113 0 189 83t76 230q0 146 -69 242t-185 96t-192 -87t-76 -235t72 -239q72 -90 185 -90zM68 523q0 245 132 396t341 150q138 0 215 -53t98 -86l10 -15h4v37q0 92 133 92h230v-221h-82q-45 0 -45 -45v-1188h-260v443l4 90h-4q-59 -89 -195 -131q-55 -16 -119 -17
q-210 -1 -336 151t-126 397z" />
    <glyph glyph-name="r" unicode="r" horiz-adv-x="843" 
d="M170 0v778q0 45 -45 45h-82v221h238q139 0 139 -126v-62l-4 -65h4q37 117 126 193t206 75l47 -4v-256q-27 4 -64 4q-92 0 -172 -55q-135 -93 -135 -334v-414h-258z" />
    <glyph glyph-name="s" unicode="s" horiz-adv-x="958" 
d="M477 178q150 0 150 103q-1 39 -57 73t-137 64t-163 70t-138 111t-56 165q0 150 116 228t265 77q150 0 234 -34q157 -64 157 -183v-109h-230v52q0 35 -40 54q-41 19 -102 19q-60 0 -102 -24t-42 -70q0 -45 57 -79q57 -35 139 -63t163 -65t138 -107t58 -165
q0 -145 -114 -233t-281 -87q-167 0 -277 62t-145 106l-19 19l123 170q14 -16 42 -42t109 -69t152 -43z" />
    <glyph glyph-name="t" unicode="t" horiz-adv-x="757" 
d="M174 383v455h-135v206h141v285h254v-285h238v-206h-238v-422q0 -113 65 -155t142 -42l47 4v-227q-33 -6 -114 -6t-163 32q-81 32 -127 72t-78 114q-32 75 -32 175z" />
    <glyph glyph-name="u" unicode="u" horiz-adv-x="1306" 
d="M166 373v405q0 45 -45 45h-82v221h248q73 0 105 -32t32 -105v-481q0 -104 36 -158t126 -55q135 0 214 102t79 250v479h260v-780q0 -45 45 -45h82v-219h-240q-137 0 -137 117v28l2 48h-4q-41 -89 -137 -153t-224 -65q-360 1 -360 398z" />
    <glyph glyph-name="v" unicode="v" horiz-adv-x="1116" 
d="M47 823h-22v221h149q63 0 98 -22t56 -76l196 -549l39 -149h4q16 88 37 149l197 549q20 53 55 76t98 22h140v-221h-25q-43 0 -57 -37l-299 -786h-310l-299 786q-14 37 -57 37z" />
    <glyph glyph-name="w" unicode="w" horiz-adv-x="1710" 
d="M49 823h-29v221h179q65 0 99 -24t48 -82l154 -580l20 -110h4q8 55 25 110l192 682h230l194 -682l23 -110h4q6 55 20 110l152 580q14 59 48 83t99 23h179v-221h-29q-43 0 -57 -37l-250 -786h-293l-178 596l-25 113h-4q-10 -57 -27 -113l-176 -596h-295l-250 786
q-12 37 -57 37z" />
    <glyph glyph-name="x" unicode="x" horiz-adv-x="1048" 
d="M111 823h-76v221h182q67 0 101 -19t69 -79l102 -172l33 -67h4q18 41 33 67l103 172q35 59 68 79q34 19 101 19h181v-221h-74q-57 0 -80 -35l-174 -260l342 -528h-289l-182 291l-29 55h-4q-16 -33 -30 -55l-181 -291h-288l339 528l-172 260q-23 35 -79 35z" />
    <glyph glyph-name="y" unicode="y" horiz-adv-x="1132" 
d="M252 -211q117 0 172 133l35 80l-348 784q-14 37 -56 37h-30v221h172q55 0 86 -22t51 -76l205 -522l36 -139h5q16 86 34 139l179 522q33 98 139 98h176v-221h-31q-45 0 -59 -37l-375 -944q-53 -136 -153 -204t-224 -68q-74 0 -140 27t-93 53l-31 26l100 185
q63 -72 150 -72z" />
    <glyph glyph-name="z" unicode="z" horiz-adv-x="1046" 
d="M55 0v139l482 588q32 43 77 84l11 12v4q-31 -4 -97 -4h-188q-45 0 -45 -45v-59h-236v186q0 72 33 106t107 33h766v-141l-482 -588l-88 -96v-4q31 6 99 6h229q45 0 45 45v58h236v-185q0 -75 -33 -107t-105 -32h-811z" />
    <glyph glyph-name="braceleft" unicode="{" horiz-adv-x="720" 
d="M223 145v199q0 90 -44 143t-87 62l-43 8v227q22 0 56 14q118 49 118 203v177q0 88 28 154t65 103q94 89 270 89l63 -2v-193q-16 2 -45 2q-30 0 -62 -9t-65 -51t-33 -114v-223q0 -117 -59 -181q-40 -45 -90 -73l-19 -6v-4q107 -36 150 -151q18 -48 18 -107v-246
q0 -112 60 -143t108 -31l37 2v-193q-27 -4 -91 -4q-64 1 -134 27q-69 26 -108 62q-38 36 -66 102t-27 157z" />
    <glyph glyph-name="bar" unicode="|" horiz-adv-x="638" 
d="M209 -330v1960h221v-1960h-221z" />
    <glyph glyph-name="braceright" unicode="}" horiz-adv-x="720" 
d="M109 -8q166 0 165 174v246q0 119 59 180t111 78v4q-62 21 -115 84q-53 64 -55 176v223q0 109 -57 142q-57 32 -108 32l-37 -2v193q27 2 91 2t134 -26q69 -26 107 -63q38 -36 66 -103t28 -154v-177q0 -92 44 -146t87 -62l43 -9v-227q-21 0 -56 -14q-34 -15 -58 -35
t-42 -64t-18 -100v-199q0 -91 -28 -157t-66 -102q-94 -89 -269 -89l-63 4v193q16 -2 37 -2z" />
    <glyph glyph-name="asciitilde" unicode="~" 
d="M115 408q0 373 315 372q70 0 126 -28t88 -65q83 -93 154 -93q72 0 104 51t32 127h205q0 -373 -314 -373q-70 0 -126 29t-88 64q-84 92 -155 92q-70 0 -102 -50t-32 -126h-207z" />
    <glyph glyph-name="exclamdown" unicode="&#xa1;" horiz-adv-x="679" 
d="M205 -410l22 1033h228l20 -1033h-270zM215 801v241h250v-241h-250z" />
    <glyph glyph-name="cent" unicode="&#xa2;" horiz-adv-x="1198" 
d="M537 -76v228q-190 33 -308 192q-117 160 -116 383q0 223 116 384q117 161 308 194v223h182v-223q133 -25 232 -113t147 -219l-234 -90q-72 182 -229 182q-115 0 -188 -95t-73 -246t72 -243q70 -92 189 -92q160 0 229 182l234 -90q-50 -125 -146 -219t-233 -110v-228h-182
z" />
    <glyph glyph-name="sterling" unicode="&#xa3;" horiz-adv-x="1200" 
d="M96 0v227h119v410h-90v178h90v248q0 180 132 298t335 118q98 0 189 -37t133 -74l43 -37l-150 -180q-97 88 -199 88t-158 -52t-57 -132v-240h363v-178h-363v-410h344q45 0 45 45v88h242v-221q0 -75 -33 -107t-104 -32h-881z" />
    <glyph glyph-name="yen" unicode="&#xa5;" horiz-adv-x="1271" 
d="M174 397v156h328v82l-56 86h-274v156h172v4l-188 301q-18 29 -34 37t-52 8h-43v227h133q74 0 116 -20t80 -86l191 -320l88 -160h4q37 74 88 160l191 320q39 66 79 86q41 20 115 20h133v-227h-43q-35 0 -51 -8t-35 -37l-188 -301v-4h168v-156h-271l-55 -86v-82h326v-156
h-326v-397h-268v397h-328z" />
    <glyph glyph-name="section" unicode="&#xa7;" horiz-adv-x="1030" 
d="M484 84q75 0 134 52t60 155q0 49 -19 117l-137 661h205l145 -704q14 -72 15 -117q0 -166 -112 -270t-308 -105q-96 0 -181 31t-122 63l-39 31l111 176q12 -10 31 -26t81 -40t136 -24zM164 1104q0 166 111 270q112 104 309 105q96 0 181 -32t124 -63l37 -32l-117 -166
q-93 80 -205 80q-228 0 -229 -193q0 -47 14 -102l141 -688h-202l-150 704q-14 68 -14 117z" />
    <glyph glyph-name="dieresis" unicode="&#xa8;" horiz-adv-x="1042" 
d="M260 1591v238h180v-238h-180zM627 1591v238h182v-238h-182z" />
    <glyph glyph-name="copyright" unicode="&#xa9;" horiz-adv-x="1599" 
d="M424 723q0 166 108 283q109 116 279 116t282 -138q26 -32 35 -54l11 -23l-156 -73q-36 72 -107 105q-30 13 -63 13q-90 0 -145 -66q-56 -66 -56 -164q0 -99 54 -164t147 -64q53 0 95 30t59 58l16 30l156 -71l-12 -24q-7 -15 -35 -52q-61 -82 -155 -118q-60 -24 -130 -23
q-166 0 -275 116q-108 117 -108 283zM248 727q0 -246 159 -416t393 -170t394 170t160 416t-161 415t-394 169t-392 -169t-159 -415zM66 727q0 311 214 530t519 219t520 -218q215 -220 215 -531t-215 -531t-520 -220t-519 220t-214 531z" />
    <glyph glyph-name="ordfeminine" unicode="&#xaa;" horiz-adv-x="851" 
d="M102 545v139h660v-139h-660zM369 932q55 0 89 45t40 113h-21q-186 0 -186 -89q0 -69 78 -69zM306 784q-74 0 -140 56t-66 153q0 55 28 97q81 120 339 120h29q-2 63 -25 88t-85 25t-60 -31v-30h-176v86q0 40 28 66q59 57 217 61q287 0 287 -269v-221q0 -25 23 -24h53v-164
h-140q-92 0 -104 71l-2 19h-4q-18 -36 -72 -69q-56 -34 -130 -34z" />
    <glyph glyph-name="guillemotleft" unicode="&#xab;" horiz-adv-x="1257" 
d="M430 158l-336 420l336 421h248l-336 -421l336 -420h-248zM553 578l336 421h248l-336 -421l336 -420h-248z" />
    <glyph glyph-name="logicalnot" unicode="&#xac;" 
d="M135 694v201h1000v-602h-209v401h-791z" />
    <glyph glyph-name="registered" unicode="&#xae;" horiz-adv-x="1599" 
d="M715 756h96q51 0 80 30t29 82q0 53 -29 82t-78 29h-98v-223zM541 356v623h-66v127h377q110 0 178 -66t68 -159t-42 -144t-91 -63v-4q27 -6 47 -41l65 -123q14 -25 45 -25h23v-125h-98q-43 0 -66 12t-41 44l-100 188q-18 33 -68 33h-57v-277h-174zM248 727
q0 -246 159 -416t393 -170t394 170t160 416t-161 415t-394 169t-392 -169t-159 -415zM66 727q0 311 214 530t519 219t520 -218q215 -220 215 -531t-215 -531t-520 -220t-519 220t-214 531z" />
    <glyph glyph-name="macron" unicode="&#xaf;" horiz-adv-x="956" 
d="M213 1604v172h537v-172h-537z" />
    <glyph glyph-name="macron" unicode="&#x2c9;" horiz-adv-x="956" 
d="M213 1604v172h537v-172h-537z" />
    <glyph glyph-name="degree" unicode="&#xb0;" horiz-adv-x="839" 
d="M420 1022q57 0 97 39t40 95t-40 96t-97 40t-96 -40t-39 -96t39 -95t96 -39zM420 836q-139 0 -237 93q-97 93 -97 227t97 229t235 95t237 -94q99 -96 99 -230t-98 -227t-236 -93z" />
    <glyph glyph-name="plusminus" unicode="&#xb1;" 
d="M115 -174h1040v-201h-1040v201zM86 483v203h442v485h211v-485h443v-203h-443v-483h-211v483h-442z" />
    <glyph glyph-name="twosuperior" unicode="&#xb2;" horiz-adv-x="894" 
d="M209 547q-59 1 -81 27t-22 100t20 126q41 101 230 210q86 47 130 88t44 92t-29 77q-30 25 -75 25t-73 -18t-27 -43v-45h-181v102q1 88 93 135t204 47t200 -72q87 -72 87 -201q0 -128 -94 -209q-49 -42 -81 -62t-102 -58t-107 -68q-38 -32 -38 -71q0 -12 23 -12h245
q12 0 13 12v68h180v-150q0 -100 -100 -100h-459z" />
    <glyph glyph-name="threesuperior" unicode="&#xb3;" horiz-adv-x="894" 
d="M449 530q-89 0 -175 46t-124 92l-39 45l135 121q10 -14 27 -34t69 -54t106 -34q53 0 92 33q38 33 38 83t-39 80t-101 30h-71l-27 109l147 198l41 43v4q-31 -4 -63 -4h-115q-18 0 -18 -18v-49h-180v133q0 55 21 78q22 23 77 22h504v-133l-189 -234q95 -20 153 -95t58 -167
q0 -131 -97 -213t-230 -82z" />
    <glyph glyph-name="acute" unicode="&#xb4;" horiz-adv-x="827" 
d="M252 1550l156 279h249l-215 -279h-190z" />
    <glyph glyph-name="mu" unicode="&#xb5;" horiz-adv-x="1306" 
d="M526 -25q-87 0 -147 43h-4q14 -100 14 -170v-258h-223v1188q0 45 -45 45h-82v221h248q73 0 105 -32t32 -105v-481q0 -104 36 -158t126 -55q135 0 214 102t79 250v479h260v-780q0 -45 45 -45h82v-219h-240q-137 0 -137 117v28l2 48h-6l-12 -24q-7 -15 -37 -52
q-118 -142 -310 -142z" />
    <glyph glyph-name="mu" unicode="&#x3bc;" horiz-adv-x="1306" 
d="M526 -25q-87 0 -147 43h-4q14 -100 14 -170v-258h-223v1188q0 45 -45 45h-82v221h248q73 0 105 -32t32 -105v-481q0 -104 36 -158t126 -55q135 0 214 102t79 250v479h260v-780q0 -45 45 -45h82v-219h-240q-137 0 -137 117v28l2 48h-6l-12 -24q-7 -15 -37 -52
q-118 -142 -310 -142z" />
    <glyph glyph-name="paragraph" unicode="&#xb6;" horiz-adv-x="1280" 
d="M877 -102v1216h190v-1216h-190zM561 -102v596q-199 0 -340 140t-141 341t141 340t340 139h625v-227h-436v-1329h-189z" />
    <glyph glyph-name="periodcentered" unicode="&#xb7;" horiz-adv-x="542" 
d="M145 469v258h252v-258h-252z" />
    <glyph glyph-name="periodcentered" unicode="&#x2219;" horiz-adv-x="542" 
d="M145 469v258h252v-258h-252z" />
    <glyph glyph-name="cedilla" unicode="&#xb8;" horiz-adv-x="860" 
d="M580 -259q0 -81 -65 -124t-142 -43t-125 12l-17 2v144q43 -16 91 -17q88 1 88 57t-99 56l-43 -4l64 227l119 -26v-15l-21 -100q66 -8 108 -48t42 -121z" />
    <glyph glyph-name="onesuperior" unicode="&#xb9;" horiz-adv-x="894" 
d="M147 547v170h189v420l2 63h-4q-8 -18 -23 -31l-69 -65l-115 125l235 225h170v-737h187v-170h-572z" />
    <glyph glyph-name="ordmasculine" unicode="&#xba;" horiz-adv-x="931" 
d="M137 545v139h660v-139h-660zM293 1132q0 -78 50 -130t123 -52t123 51t50 131t-50 130q-50 51 -123 51t-123 -51t-50 -130zM466 786q-151 0 -255 98q-105 98 -105 248q0 148 104 245t256 97q151 0 255 -96q104 -98 104 -246t-104 -248q-104 -98 -255 -98z" />
    <glyph glyph-name="guillemotright" unicode="&#xbb;" horiz-adv-x="1257" 
d="M119 158l336 420l-336 421h248l335 -421l-335 -420h-248zM580 158l335 420l-335 421h247l336 -421l-336 -420h-247z" />
    <glyph glyph-name="onequarter" unicode="&#xbc;" horiz-adv-x="1931" 
d="M1339 393h164v244l2 70h-4q-12 -31 -28 -58l-144 -219l-29 -35v-4q25 2 39 2zM1102 221v115l358 573h236v-516h133v-172h-133v-221h-197v221h-397zM158 547v170h188v420l2 63h-4q-8 -18 -22 -31l-70 -65l-115 125l234 225h170v-737h178v-170h-561zM614 0l568 1454h202
l-567 -1454h-203z" />
    <glyph glyph-name="onehalf" unicode="&#xbd;" horiz-adv-x="1931" 
d="M1266 0q-61 0 -83 28t-22 100q0 137 74 208q74 70 154 116q81 46 112 66t59 56t28 78t-30 68t-76 26t-73 -18q-27 -17 -27 -42v-47h-180v102q0 89 92 137t204 48t200 -74t88 -201t-94 -209q-49 -41 -81 -61t-102 -57q-69 -37 -107 -70t-38 -72q0 -12 22 -12h244
q12 0 12 14v66h183v-150q0 -100 -103 -100h-456zM158 547v170h188v420l2 63h-4q-8 -18 -22 -31l-70 -65l-115 125l234 225h170v-737h178v-170h-561zM590 0l567 1454h201l-567 -1454h-201z" />
    <glyph glyph-name="threequarters" unicode="&#xbe;" horiz-adv-x="1931" 
d="M1339 393h164v244l2 70h-4q-12 -31 -28 -58l-144 -219l-29 -35v-4q25 2 39 2zM1102 221v115l358 573h236v-516h133v-172h-133v-221h-197v221h-397zM455 530q-90 0 -174 46t-123 92l-39 45l133 121q31 -44 90 -83q58 -39 112 -39t92 34q38 32 38 82t-39 80t-101 30h-71
l-27 109l148 198l41 43v4q-31 -4 -64 -4h-115q-18 0 -18 -18v-49h-180v133q0 55 21 78q22 23 77 22h504v-133l-189 -234q95 -20 153 -95t58 -167q0 -131 -97 -213t-230 -82zM608 0l568 1454h200l-565 -1454h-203z" />
    <glyph glyph-name="questiondown" unicode="&#xbf;" horiz-adv-x="974" 
d="M68 -45q0 92 36 168q38 76 90 125t105 94q127 108 127 211v72h250v-90q0 -82 -35 -151t-84 -115t-98 -88q-119 -102 -119 -201q0 -72 57 -122t125 -50q109 -1 205 65l29 23l145 -181q-16 -16 -47 -41q-31 -24 -131 -64t-207 -40q-182 0 -315 104t-133 281zM426 803v241
h250v-241h-250z" />
    <glyph glyph-name="Agrave" unicode="&#xc0;" horiz-adv-x="1380" 
d="M590 1550l-213 279h250l155 -279h-192zM506 594h368l-124 364l-58 218h-4q-31 -137 -57 -218zM23 0v227h32q49 0 64 45l432 1182h280l431 -1182q14 -45 63 -45h33v-227h-160q-76 0 -112 25t-60 94l-90 254h-492l-90 -254q-26 -71 -60 -95t-110 -24h-161z" />
    <glyph glyph-name="Aacute" unicode="&#xc1;" horiz-adv-x="1380" 
d="M590 1550l155 279h250l-215 -279h-190zM506 594h368l-124 364l-58 218h-4q-31 -137 -57 -218zM23 0v227h32q49 0 64 45l432 1182h280l431 -1182q14 -45 63 -45h33v-227h-160q-76 0 -112 25t-60 94l-90 254h-492l-90 -254q-26 -71 -60 -95t-110 -24h-161z" />
    <glyph glyph-name="Acircumflex" unicode="&#xc2;" horiz-adv-x="1380" 
d="M393 1550l187 279h223l188 -279h-194l-103 166h-4l-104 -166h-193zM506 594h368l-124 364l-58 218h-4q-31 -137 -57 -218zM23 0v227h32q49 0 64 45l432 1182h280l431 -1182q14 -45 63 -45h33v-227h-160q-76 0 -112 25t-60 94l-90 254h-492l-90 -254q-26 -71 -60 -95
t-110 -24h-161z" />
    <glyph glyph-name="Atilde" unicode="&#xc3;" horiz-adv-x="1380" 
d="M319 1552q0 281 234 281q61 0 109 -34q48 -35 82 -67q36 -32 74 -32t60 37t21 90h162q0 -281 -234 -281q-61 0 -108 34t-83 67t-74 33t-60 -36t-21 -92h-162zM506 594h368l-124 364l-58 218h-4q-31 -137 -57 -218zM23 0v227h32q49 0 64 45l432 1182h280l431 -1182
q14 -45 63 -45h33v-227h-160q-76 0 -112 25t-60 94l-90 254h-492l-90 -254q-26 -71 -60 -95t-110 -24h-161z" />
    <glyph glyph-name="Adieresis" unicode="&#xc4;" horiz-adv-x="1380" 
d="M418 1591v238h180v-238h-180zM784 1591v238h183v-238h-183zM506 594h368l-124 364l-58 218h-4q-31 -137 -57 -218zM23 0v227h32q49 0 64 45l432 1182h280l431 -1182q14 -45 63 -45h33v-227h-160q-76 0 -112 25t-60 94l-90 254h-492l-90 -254q-26 -71 -60 -95t-110 -24
h-161z" />
    <glyph glyph-name="Aring" unicode="&#xc5;" horiz-adv-x="1380" 
d="M690 1616q31 0 51 19q21 19 21 51t-20 52q-20 19 -52 19q-31 0 -51 -19q-21 -19 -21 -51q0 -31 20 -51t52 -20zM690 1526q-74 0 -128 43t-54 118t54 117t128 43q74 0 128 -43q54 -44 54 -118t-54 -117t-128 -43zM506 594h368l-124 364l-58 218h-4q-31 -137 -57 -218z
M23 0v227h32q49 0 64 45l432 1182h280l431 -1182q14 -45 63 -45h33v-227h-160q-76 0 -112 25t-60 94l-90 254h-492l-90 -254q-26 -71 -60 -95t-110 -24h-161z" />
    <glyph glyph-name="AE" unicode="&#xc6;" horiz-adv-x="1824" 
d="M850 846v381h-96l-144 -381h240zM23 0v227h28q29 -1 41 9t23 36l485 1182h989q74 0 107 -34t33 -105v-221h-244v88q0 45 -45 45h-320v-381h465v-228h-465v-346q0 -45 51 -45h324q45 0 45 45v88h242v-221q0 -75 -33 -107t-107 -32h-645q-79 0 -113 31t-34 108v479h-326
l-186 -499q-27 -71 -62 -95t-110 -24h-143z" />
    <glyph glyph-name="Ccedilla" unicode="&#xc7;" horiz-adv-x="1452" 
d="M745 -426q-26 0 -124 14v144q43 -16 88 -17q90 1 90 57t-99 56l-43 -4l43 158q-289 32 -464 244t-175 520t211 520t527 213q164 0 344 -70q90 -35 148 -101t59 -155v-162h-244v82q0 74 -95 115t-206 41q-201 0 -333 -133q-132 -132 -132 -352t135 -370t332 -149
q157 0 272 64t154 108l20 19l142 -191q-19 -24 -82 -74q-63 -51 -123 -83t-158 -59q-98 -28 -201 -32l-14 -67q66 -8 108 -48t42 -121q1 -81 -63 -124t-159 -43z" />
    <glyph glyph-name="Egrave" unicode="&#xc8;" horiz-adv-x="1183" 
d="M508 1550l-213 279h250l155 -279h-192zM203 139v1088h-133v227h878q139 0 139 -139v-221h-243v88q0 45 -45 45h-328v-381h471v-228h-471v-346q0 -45 45 -45h336q45 0 45 45v88h244v-221q0 -75 -34 -107t-106 -32h-659q-74 0 -106 32t-33 107z" />
    <glyph glyph-name="Eacute" unicode="&#xc9;" horiz-adv-x="1183" 
d="M508 1550l156 279h249l-215 -279h-190zM203 139v1088h-133v227h878q139 0 139 -139v-221h-243v88q0 45 -45 45h-328v-381h471v-228h-471v-346q0 -45 45 -45h336q45 0 45 45v88h244v-221q0 -75 -34 -107t-106 -32h-659q-74 0 -106 32t-33 107z" />
    <glyph glyph-name="Ecircumflex" unicode="&#xca;" horiz-adv-x="1183" 
d="M309 1550l187 279h223l188 -279h-194l-103 166h-4l-104 -166h-193zM203 139v1088h-133v227h878q139 0 139 -139v-221h-243v88q0 45 -45 45h-328v-381h471v-228h-471v-346q0 -45 45 -45h336q45 0 45 45v88h244v-221q0 -75 -34 -107t-106 -32h-659q-74 0 -106 32t-33 107z
" />
    <glyph glyph-name="Edieresis" unicode="&#xcb;" horiz-adv-x="1183" 
d="M336 1591v238h180v-238h-180zM702 1591v238h183v-238h-183zM203 139v1088h-133v227h878q139 0 139 -139v-221h-243v88q0 45 -45 45h-328v-381h471v-228h-471v-346q0 -45 45 -45h336q45 0 45 45v88h244v-221q0 -75 -34 -107t-106 -32h-659q-74 0 -106 32t-33 107z" />
    <glyph glyph-name="Igrave" unicode="&#xcc;" horiz-adv-x="700" 
d="M250 1550l-213 279h250l155 -279h-192zM78 0v227h145v1000h-145v227h545v-227h-146v-1000h146v-227h-545z" />
    <glyph glyph-name="Iacute" unicode="&#xcd;" horiz-adv-x="700" 
d="M250 1550l156 279h249l-215 -279h-190zM78 0v227h145v1000h-145v227h545v-227h-146v-1000h146v-227h-545z" />
    <glyph glyph-name="Icircumflex" unicode="&#xce;" horiz-adv-x="700" 
d="M51 1550l187 279h223l188 -279h-194l-103 166h-4l-104 -166h-193zM78 0v227h145v1000h-145v227h545v-227h-146v-1000h146v-227h-545z" />
    <glyph glyph-name="Idieresis" unicode="&#xcf;" horiz-adv-x="700" 
d="M76 1591v238h180v-238h-180zM442 1591v238h183v-238h-183zM78 0v227h145v1000h-145v227h545v-227h-146v-1000h146v-227h-545z" />
    <glyph glyph-name="Eth" unicode="&#xd0;" horiz-adv-x="1464" 
d="M471 272q0 -45 45 -45h131q221 0 349 130t128 370t-129 370t-348 130h-176v-396h252v-215h-252v-344zM203 139v477h-99v215h99v396h-133v227h592q340 0 540 -192t201 -533q0 -341 -201 -535t-540 -194h-320q-74 0 -106 32t-33 107z" />
    <glyph glyph-name="Ntilde" unicode="&#xd1;" horiz-adv-x="1576" 
d="M434 1552q0 281 234 281q61 0 108 -34q47 -35 83 -67t74 -32q37 0 59 37t22 90h162q0 -281 -234 -281q-61 0 -108 34t-83 67t-74 33t-60 -36t-21 -92h-162zM70 0v227h88q45 0 45 45v1182h241l551 -805q69 -103 103 -172l18 -33h4q-14 121 -14 205v666q0 71 33 105t106 34
h262v-227h-88q-45 0 -45 -45v-1182h-239l-553 803q-69 103 -103 172l-18 33h-4q14 -121 14 -205v-664q0 -75 -33 -107t-106 -32h-262z" />
    <glyph glyph-name="Ograve" unicode="&#xd2;" horiz-adv-x="1626" 
d="M709 1550l-213 279h249l156 -279h-192zM340 732q0 -212 137 -359t336 -147t336 146q137 148 137 360t-137 354t-336 142t-336 -142t-137 -354zM813 1479q319 0 535 -214t217 -532q0 -317 -216 -537q-215 -220 -535 -220t-536 219t-217 537q1 318 217 532t535 215z" />
    <glyph glyph-name="Oacute" unicode="&#xd3;" horiz-adv-x="1626" 
d="M709 1550l155 279h250l-215 -279h-190zM340 732q0 -212 137 -359t336 -147t336 146q137 148 137 360t-137 354t-336 142t-336 -142t-137 -354zM813 1479q319 0 535 -214t217 -532q0 -317 -216 -537q-215 -220 -535 -220t-536 219t-217 537q1 318 217 532t535 215z" />
    <glyph glyph-name="Ocircumflex" unicode="&#xd4;" horiz-adv-x="1626" 
d="M510 1550l186 279h224l188 -279h-195l-102 166h-4l-105 -166h-192zM340 732q0 -212 137 -359t336 -147t336 146q137 148 137 360t-137 354t-336 142t-336 -142t-137 -354zM813 1479q319 0 535 -214t217 -532q0 -317 -216 -537q-215 -220 -535 -220t-536 219t-217 537
q1 318 217 532t535 215z" />
    <glyph glyph-name="Otilde" unicode="&#xd5;" horiz-adv-x="1626" 
d="M436 1552q0 281 234 281q61 0 108 -34q47 -35 83 -67t74 -32q37 0 59 37t22 90h162q0 -281 -234 -281q-61 0 -108 34t-83 67t-74 33q-37 0 -59 -36t-22 -92h-162zM340 732q0 -212 137 -359t336 -147t336 146q137 148 137 360t-137 354t-336 142t-336 -142t-137 -354z
M813 1479q319 0 535 -214t217 -532q0 -317 -216 -537q-215 -220 -535 -220t-536 219t-217 537q1 318 217 532t535 215z" />
    <glyph glyph-name="Odieresis" unicode="&#xd6;" horiz-adv-x="1626" 
d="M535 1591v238h180v-238h-180zM901 1591v238h182v-238h-182zM340 732q0 -212 137 -359t336 -147t336 146q137 148 137 360t-137 354t-336 142t-336 -142t-137 -354zM813 1479q319 0 535 -214t217 -532q0 -317 -216 -537q-215 -220 -535 -220t-536 219t-217 537
q1 318 217 532t535 215z" />
    <glyph glyph-name="multiply" unicode="&#xd7;" 
d="M94 141l404 445l-404 442l142 143l399 -438l399 438l142 -143l-406 -442l406 -445l-142 -141l-399 438l-399 -438z" />
    <glyph glyph-name="Oslash" unicode="&#xd8;" horiz-adv-x="1628" 
d="M1286 728q0 208 -133 347l-567 -788q102 -61 229 -62q197 -1 334 147t137 356zM342 734q0 -210 135 -355l567 788q-106 61 -229 62q-199 -1 -336 -143t-137 -352zM63 737q1 313 217 527t535 215q207 0 381 -101l94 129l117 -80l-94 -129q119 -104 187 -249t67 -312
q0 -321 -216 -541t-536 -221q-209 0 -381 101l-94 -129l-117 80l92 131q-252 225 -252 579z" />
    <glyph glyph-name="Ugrave" unicode="&#xd9;" horiz-adv-x="1515" 
d="M659 1550l-213 279h250l156 -279h-193zM186 518v664q0 45 -45 45h-88v227h262q74 0 107 -34t33 -105v-789q0 -141 82 -221t221 -80t221 80t82 223v787q0 71 33 105t106 34h262v-227h-88q-45 0 -45 -45v-664q0 -242 -157 -392q-158 -150 -414 -151q-256 1 -414 151
t-158 392z" />
    <glyph glyph-name="Uacute" unicode="&#xda;" horiz-adv-x="1515" 
d="M659 1550l156 279h250l-215 -279h-191zM186 518v664q0 45 -45 45h-88v227h262q74 0 107 -34t33 -105v-789q0 -141 82 -221t221 -80t221 80t82 223v787q0 71 33 105t106 34h262v-227h-88q-45 0 -45 -45v-664q0 -242 -157 -392q-158 -150 -414 -151q-256 1 -414 151
t-158 392z" />
    <glyph glyph-name="Ucircumflex" unicode="&#xdb;" horiz-adv-x="1515" 
d="M461 1550l186 279h223l189 -279h-195l-102 166h-4l-105 -166h-192zM186 518v664q0 45 -45 45h-88v227h262q74 0 107 -34t33 -105v-789q0 -141 82 -221t221 -80t221 80t82 223v787q0 71 33 105t106 34h262v-227h-88q-45 0 -45 -45v-664q0 -242 -157 -392
q-158 -150 -414 -151q-256 1 -414 151t-158 392z" />
    <glyph glyph-name="Udieresis" unicode="&#xdc;" horiz-adv-x="1515" 
d="M485 1591v238h181v-238h-181zM852 1591v238h182v-238h-182zM186 518v664q0 45 -45 45h-88v227h262q74 0 107 -34t33 -105v-789q0 -141 82 -221t221 -80t221 80t82 223v787q0 71 33 105t106 34h262v-227h-88q-45 0 -45 -45v-664q0 -242 -157 -392q-158 -150 -414 -151
q-256 1 -414 151t-158 392z" />
    <glyph glyph-name="Yacute" unicode="&#xdd;" horiz-adv-x="1259" 
d="M530 1550l156 279h250l-215 -279h-191zM496 0v635l-344 543q-20 31 -36 40t-48 9h-48v227h138q74 0 112 -20t78 -86l193 -320l88 -164h4q37 78 88 164l190 320q39 66 78 86t113 20h137v-227h-47q-33 0 -48 -9t-36 -40l-344 -543v-635h-268z" />
    <glyph glyph-name="Thorn" unicode="&#xde;" horiz-adv-x="1249" 
d="M471 496h215q113 0 175 68q63 68 63 182t-62 180t-172 65h-219v-495zM203 0v1182q0 45 -45 45h-88v227h262q74 0 106 -34t33 -105v-96h264q205 1 334 -131t129 -343t-129 -344t-336 -133h-262v-268h-268z" />
    <glyph glyph-name="germandbls" unicode="&#xdf;" horiz-adv-x="1224" 
d="M37 0v219h72q45 0 45 45v819q0 183 140 289t326 106t308 -102q123 -102 123 -254q0 -61 -29 -115t-64 -86q-92 -84 -92 -147t117 -145q49 -35 98 -78q117 -103 117 -253q0 -151 -106 -237t-263 -86q-87 0 -163 22t-109 44l-31 20l60 201q94 -66 205 -65q145 0 145 122
q0 79 -166 189q-61 41 -114 108q-52 68 -52 141t46 134t92 117t46 112q0 54 -45 96t-128 42t-142 -50q-59 -49 -59 -143v-926q0 -75 -33 -107t-107 -32h-237z" />
    <glyph glyph-name="agrave" unicode="&#xe0;" horiz-adv-x="1146" 
d="M455 1174l-213 278h250l155 -278h-192zM330 313q0 -55 41 -95t129 -40t156 87q69 87 69 188v24h-45q-350 0 -350 -164zM688 655h33v9q0 112 -46 158t-147 46q-49 0 -94 -15t-45 -54v-56h-242v111q0 68 42 115t111 66q123 34 230 34q451 0 451 -416v-389q0 -45 45 -45h82
v-219h-234q-68 0 -100 32t-33 83l2 45h-4l-10 -20t-33 -45q-28 -33 -60 -57q-82 -62 -220 -62q-139 -1 -244 87q-104 88 -104 242t123 234q126 80 264 98t233 18z" />
    <glyph glyph-name="aacute" unicode="&#xe1;" horiz-adv-x="1146" 
d="M455 1174l155 278h250l-215 -278h-190zM330 313q0 -55 41 -95t129 -40t156 87q69 87 69 188v24h-45q-350 0 -350 -164zM688 655h33v9q0 112 -46 158t-147 46q-49 0 -94 -15t-45 -54v-56h-242v111q0 68 42 115t111 66q123 34 230 34q451 0 451 -416v-389q0 -45 45 -45h82
v-219h-234q-68 0 -100 32t-33 83l2 45h-4l-10 -20t-33 -45q-28 -33 -60 -57q-82 -62 -220 -62q-139 -1 -244 87q-104 88 -104 242t123 234q126 80 264 98t233 18z" />
    <glyph glyph-name="acircumflex" unicode="&#xe2;" horiz-adv-x="1146" 
d="M258 1174l186 278h224l188 -278h-194l-103 165h-4l-104 -165h-193zM330 313q0 -55 41 -95t129 -40t156 87q69 87 69 188v24h-45q-350 0 -350 -164zM688 655h33v9q0 112 -46 158t-147 46q-49 0 -94 -15t-45 -54v-56h-242v111q0 68 42 115t111 66q123 34 230 34
q451 0 451 -416v-389q0 -45 45 -45h82v-219h-234q-68 0 -100 32t-33 83l2 45h-4l-10 -20t-33 -45q-28 -33 -60 -57q-82 -62 -220 -62q-139 -1 -244 87q-104 88 -104 242t123 234q126 80 264 98t233 18z" />
    <glyph glyph-name="atilde" unicode="&#xe3;" horiz-adv-x="1146" 
d="M184 1176q0 281 234 280q61 0 108 -34t83 -66t74 -33q37 0 59 37t22 90h162q0 -281 -234 -281q-61 0 -108 34t-83 67t-74 33q-37 0 -59 -36t-22 -91h-162zM330 313q0 -55 41 -95t129 -40t156 87q69 87 69 188v24h-45q-350 0 -350 -164zM688 655h33v9q0 112 -46 158
t-147 46q-49 0 -94 -15t-45 -54v-56h-242v111q0 68 42 115t111 66q123 34 230 34q451 0 451 -416v-389q0 -45 45 -45h82v-219h-234q-68 0 -100 32t-33 83l2 45h-4l-10 -20t-33 -45q-28 -33 -60 -57q-82 -62 -220 -62q-139 -1 -244 87q-104 88 -104 242t123 234
q126 80 264 98t233 18z" />
    <glyph glyph-name="adieresis" unicode="&#xe4;" horiz-adv-x="1146" 
d="M283 1214v238h180v-238h-180zM649 1214v238h182v-238h-182zM330 313q0 -55 41 -95t129 -40t156 87q69 87 69 188v24h-45q-350 0 -350 -164zM688 655h33v9q0 112 -46 158t-147 46q-49 0 -94 -15t-45 -54v-56h-242v111q0 68 42 115t111 66q123 34 230 34q451 0 451 -416
v-389q0 -45 45 -45h82v-219h-234q-68 0 -100 32t-33 83l2 45h-4l-10 -20t-33 -45q-28 -33 -60 -57q-82 -62 -220 -62q-139 -1 -244 87q-104 88 -104 242t123 234q126 80 264 98t233 18z" />
    <glyph glyph-name="aring" unicode="&#xe5;" horiz-adv-x="1146" 
d="M555 1239q31 0 51 19q20 20 20 52t-20 51t-51 19t-51 -19t-20 -51t20 -52t51 -19zM555 1149q-74 0 -128 43t-54 118q0 76 54 118t128 42t128 -43t54 -117t-54 -118q-54 -43 -128 -43zM330 313q0 -55 41 -95t129 -40t156 87q69 87 69 188v24h-45q-350 0 -350 -164z
M688 655h33v9q0 112 -46 158t-147 46q-49 0 -94 -15t-45 -54v-56h-242v111q0 68 42 115t111 66q123 34 230 34q451 0 451 -416v-389q0 -45 45 -45h82v-219h-234q-68 0 -100 32t-33 83l2 45h-4l-10 -20t-33 -45q-28 -33 -60 -57q-82 -62 -220 -62q-139 -1 -244 87
q-104 88 -104 242t123 234q126 80 264 98t233 18z" />
    <glyph glyph-name="ae" unicode="&#xe6;" horiz-adv-x="1773" 
d="M332 313q0 -57 41 -96t130 -39t157 87t67 190v18h-74q-321 0 -321 -160zM1220 866q-89 0 -154 -58t-85 -155h444q-2 93 -59 153t-146 60zM528 868q-139 0 -139 -69v-56h-242v111q0 80 65 131q64 51 144 67t174 17q252 0 349 -154h4q125 154 346 154t341 -145t120 -367
l-4 -84h-715q16 -135 100 -206t207 -70q74 1 148 29t110 57l35 30l108 -180q-94 -94 -275 -140q-71 -17 -144 -18q-299 0 -439 230h-4q-23 -57 -86 -115q-125 -113 -290 -113q-165 1 -268 89t-103 235q0 113 66 189t174 109q183 54 378 54h35v15q0 108 -48 154t-147 46z" />
    <glyph glyph-name="ccedilla" unicode="&#xe7;" horiz-adv-x="1101" 
d="M625 -90q147 -18 147 -168q0 -82 -63 -125t-144 -43t-123 12l-16 2v144q43 -16 90 -17q88 1 88 57t-98 56l-43 -4l45 164q-203 37 -323 184q-119 147 -119 363t155 375q156 159 416 159q194 0 309 -95q70 -56 70 -140v-123h-230v57q0 38 -47 60t-102 22q-135 0 -222 -92
t-87 -239t95 -231t230 -85q80 0 157 35t116 69l37 37l108 -180q-18 -24 -65 -60q-157 -121 -367 -129z" />
    <glyph glyph-name="egrave" unicode="&#xe8;" horiz-adv-x="1140" 
d="M489 1174l-213 278h250l156 -278h-193zM587 868q-91 0 -158 -56q-66 -57 -89 -155h453q-3 91 -59 151t-147 60zM66 528q0 236 147 388t373 153q226 0 350 -140q123 -140 123 -356l-6 -96h-721q14 -133 102 -207t211 -73q74 1 148 29t108 57l37 30l109 -180
q-94 -94 -276 -140q-71 -17 -144 -18q-252 0 -407 159q-154 158 -154 394z" />
    <glyph glyph-name="eacute" unicode="&#xe9;" horiz-adv-x="1140" 
d="M489 1174l156 278h250l-215 -278h-191zM587 868q-91 0 -158 -56q-66 -57 -89 -155h453q-3 91 -59 151t-147 60zM66 528q0 236 147 388t373 153q226 0 350 -140q123 -140 123 -356l-6 -96h-721q14 -133 102 -207t211 -73q74 1 148 29t108 57l37 30l109 -180
q-94 -94 -276 -140q-71 -17 -144 -18q-252 0 -407 159q-154 158 -154 394z" />
    <glyph glyph-name="ecircumflex" unicode="&#xea;" horiz-adv-x="1140" 
d="M291 1174l186 278h223l189 -278h-195l-102 165h-4l-105 -165h-192zM587 868q-91 0 -158 -56q-66 -57 -89 -155h453q-3 91 -59 151t-147 60zM66 528q0 236 147 388t373 153q226 0 350 -140q123 -140 123 -356l-6 -96h-721q14 -133 102 -207t211 -73q74 1 148 29t108 57
l37 30l109 -180q-94 -94 -276 -140q-71 -17 -144 -18q-252 0 -407 159q-154 158 -154 394z" />
    <glyph glyph-name="edieresis" unicode="&#xeb;" horiz-adv-x="1140" 
d="M315 1214v238h181v-238h-181zM682 1214v238h182v-238h-182zM587 868q-91 0 -158 -56q-66 -57 -89 -155h453q-3 91 -59 151t-147 60zM66 528q0 236 147 388t373 153q226 0 350 -140q123 -140 123 -356l-6 -96h-721q14 -133 102 -207t211 -73q74 1 148 29t108 57l37 30
l109 -180q-94 -94 -276 -140q-71 -17 -144 -18q-252 0 -407 159q-154 158 -154 394z" />
    <glyph glyph-name="igrave" unicode="&#xec;" horiz-adv-x="618" 
d="M195 1174l-213 280h247l156 -280h-190zM180 139v639q0 45 -45 45h-82v221h248q139 0 139 -139v-641q0 -45 45 -45h80v-219h-246q-75 0 -107 32t-32 107z" />
    <glyph glyph-name="iacute" unicode="&#xed;" horiz-adv-x="618" 
d="M195 1174l155 280h248l-213 -280h-190zM180 139v639q0 45 -45 45h-82v221h248q139 0 139 -139v-641q0 -45 45 -45h80v-219h-246q-75 0 -107 32t-32 107z" />
    <glyph glyph-name="icircumflex" unicode="&#xee;" horiz-adv-x="618" 
d="M-6 1174l188 280h224l188 -280h-197l-102 167h-4l-103 -167h-194zM180 139v639q0 45 -45 45h-82v221h248q139 0 139 -139v-641q0 -45 45 -45h80v-219h-246q-75 0 -107 32t-32 107z" />
    <glyph glyph-name="idieresis" unicode="&#xef;" horiz-adv-x="618" 
d="M41 1214v240h180v-240h-180zM356 1214v240h183v-240h-183zM180 139v639q0 45 -45 45h-82v221h248q139 0 139 -139v-641q0 -45 45 -45h80v-219h-246q-75 0 -107 32t-32 107z" />
    <glyph glyph-name="eth" unicode="&#xf0;" horiz-adv-x="1198" 
d="M340 476q0 -114 63 -198t187 -83q124 0 192 98q66 97 66 213t-66 180t-184 64t-188 -80t-70 -194zM78 478q0 200 130 337t351 137q57 0 109 -15t77 -30l23 -14h4q-59 131 -192 217l-379 -164l-13 154l228 100q-100 49 -236 82l72 205q258 -57 442 -170l303 129l13 -152
l-181 -80q281 -246 281 -645q0 -190 -76 -329q-139 -265 -456 -265q-228 -1 -364 151t-136 352z" />
    <glyph glyph-name="ntilde" unicode="&#xf1;" horiz-adv-x="1316" 
d="M301 1176q0 281 234 280q59 0 107 -34t84 -66t74 -33q38 0 60 37t21 90h161q0 -281 -233 -281q-59 0 -107 34t-85 67q-35 33 -73 33t-60 -36t-21 -91h-162zM170 0v778q0 45 -45 45h-82v221h240q137 0 137 -116v-31l-4 -45h4q43 86 135 152t233 65q365 0 365 -397v-408
q0 -45 45 -45h82v-219h-248q-74 0 -106 33t-33 106v479q0 104 -36 158t-133 55q-97 0 -172 -58t-103 -155q-20 -61 -21 -139v-479h-258z" />
    <glyph glyph-name="ograve" unicode="&#xf2;" horiz-adv-x="1275" 
d="M537 1174l-213 278h249l156 -278h-192zM637 848q-129 0 -219 -92t-90 -235q0 -142 90 -233t220 -91t220 91t90 233q0 143 -91 235t-220 92zM66 522q0 238 164 392t407 155q241 0 407 -155q166 -154 166 -392t-164 -392t-408 -155q-244 1 -408 155t-164 392z" />
    <glyph glyph-name="oacute" unicode="&#xf3;" horiz-adv-x="1275" 
d="M539 1174l155 278h250l-215 -278h-190zM637 848q-129 0 -219 -92t-90 -235q0 -142 90 -233t220 -91t220 91t90 233q0 143 -91 235t-220 92zM66 522q0 238 164 392t407 155q241 0 407 -155q166 -154 166 -392t-164 -392t-408 -155q-244 1 -408 155t-164 392z" />
    <glyph glyph-name="ocircumflex" unicode="&#xf4;" horiz-adv-x="1275" 
d="M340 1174l186 278h224l188 -278h-195l-102 165h-4l-105 -165h-192zM637 848q-129 0 -219 -92t-90 -235q0 -142 90 -233t220 -91t220 91t90 233q0 143 -91 235t-220 92zM66 522q0 238 164 392t407 155q241 0 407 -155q166 -154 166 -392t-164 -392t-408 -155
q-244 1 -408 155t-164 392z" />
    <glyph glyph-name="otilde" unicode="&#xf5;" horiz-adv-x="1275" 
d="M266 1176q0 281 234 280q61 0 108 -34t83 -66t74 -33q37 0 59 37t22 90h162q0 -281 -234 -281q-61 0 -108 34t-83 67t-74 33q-37 0 -59 -36t-22 -91h-162zM637 848q-129 0 -219 -92t-90 -235q0 -142 90 -233t220 -91t220 91t90 233q0 143 -91 235t-220 92zM66 522
q0 238 164 392t407 155q241 0 407 -155q166 -154 166 -392t-164 -392t-408 -155q-244 1 -408 155t-164 392z" />
    <glyph glyph-name="odieresis" unicode="&#xf6;" horiz-adv-x="1275" 
d="M365 1214v238h180v-238h-180zM731 1214v238h182v-238h-182zM637 848q-129 0 -219 -92t-90 -235q0 -142 90 -233t220 -91t220 91t90 233q0 143 -91 235t-220 92zM66 522q0 238 164 392t407 155q241 0 407 -155q166 -154 166 -392t-164 -392t-408 -155q-244 1 -408 155
t-164 392z" />
    <glyph glyph-name="divide" unicode="&#xf7;" 
d="M510 55v221h233v-221h-233zM94 483v203h1067v-203h-1067zM510 895v221h233v-221h-233z" />
    <glyph glyph-name="oslash" unicode="&#xf8;" horiz-adv-x="1275" 
d="M948 510q0 131 -69 213l-361 -502q55 -25 119 -24q131 0 221 91t90 222zM637 848q-129 0 -219 -92t-90 -228t80 -227l366 514q-66 33 -137 33zM637 1069q147 0 274 -65l84 116l113 -78l-82 -112q184 -162 184 -404t-164 -396t-409 -155q-141 0 -256 56l-84 -119l-113 80
l78 108q-196 160 -196 410t164 404t407 155z" />
    <glyph glyph-name="ugrave" unicode="&#xf9;" horiz-adv-x="1306" 
d="M541 1174l-213 278h250l155 -278h-192zM166 373v405q0 45 -45 45h-82v221h248q73 0 105 -32t32 -105v-481q0 -104 36 -158t126 -55q135 0 214 102t79 250v479h260v-780q0 -45 45 -45h82v-219h-240q-137 0 -137 117v28l2 48h-4q-41 -89 -137 -153t-224 -65
q-360 1 -360 398z" />
    <glyph glyph-name="uacute" unicode="&#xfa;" horiz-adv-x="1306" 
d="M541 1174l155 278h250l-215 -278h-190zM166 373v405q0 45 -45 45h-82v221h248q73 0 105 -32t32 -105v-481q0 -104 36 -158t126 -55q135 0 214 102t79 250v479h260v-780q0 -45 45 -45h82v-219h-240q-137 0 -137 117v28l2 48h-4q-41 -89 -137 -153t-224 -65
q-360 1 -360 398z" />
    <glyph glyph-name="ucircumflex" unicode="&#xfb;" horiz-adv-x="1306" 
d="M342 1174l186 278h224l188 -278h-195l-102 165h-4l-104 -165h-193zM166 373v405q0 45 -45 45h-82v221h248q73 0 105 -32t32 -105v-481q0 -104 36 -158t126 -55q135 0 214 102t79 250v479h260v-780q0 -45 45 -45h82v-219h-240q-137 0 -137 117v28l2 48h-4
q-41 -89 -137 -153t-224 -65q-360 1 -360 398z" />
    <glyph glyph-name="udieresis" unicode="&#xfc;" horiz-adv-x="1306" 
d="M369 1214v238h180v-238h-180zM735 1214v238h183v-238h-183zM166 373v405q0 45 -45 45h-82v221h248q73 0 105 -32t32 -105v-481q0 -104 36 -158t126 -55q135 0 214 102t79 250v479h260v-780q0 -45 45 -45h82v-219h-240q-137 0 -137 117v28l2 48h-4q-41 -89 -137 -153
t-224 -65q-360 1 -360 398z" />
    <glyph glyph-name="yacute" unicode="&#xfd;" horiz-adv-x="1132" 
d="M471 1174l156 278h250l-215 -278h-191zM252 -211q117 0 172 133l35 80l-348 784q-14 37 -56 37h-30v221h172q55 0 86 -22t51 -76l205 -522l36 -139h5q16 86 34 139l179 522q33 98 139 98h176v-221h-31q-45 0 -59 -37l-375 -944q-53 -136 -153 -204t-224 -68
q-74 0 -140 27t-93 53l-31 26l100 185q63 -72 150 -72z" />
    <glyph glyph-name="thorn" unicode="&#xfe;" horiz-adv-x="1265" 
d="M416 522q0 -170 74 -248t191 -78t187 93q70 92 70 234q0 141 -71 233t-187 92t-190 -78t-74 -248zM164 -410v1598q0 45 -45 45h-82v221h248q75 0 107 -34t32 -105v-297l-4 -90h4q98 141 308 141t339 -154q129 -155 129 -393t-129 -392t-342 -155q-100 0 -176 35t-102 70
l-27 35h-4q4 -37 4 -90v-435h-260z" />
    <glyph glyph-name="ydieresis" unicode="&#xff;" horiz-adv-x="1132" 
d="M297 1214v238h180v-238h-180zM664 1214v238h182v-238h-182zM252 -211q117 0 172 133l35 80l-348 784q-14 37 -56 37h-30v221h172q55 0 86 -22t51 -76l205 -522l36 -139h5q16 86 34 139l179 522q33 98 139 98h176v-221h-31q-45 0 -59 -37l-375 -944q-53 -136 -153 -204
t-224 -68q-74 0 -140 27t-93 53l-31 26l100 185q63 -72 150 -72z" />
    <glyph glyph-name="Amacron" unicode="&#x100;" horiz-adv-x="1380" 
d="M424 1604v172h537v-172h-537zM506 594h368l-124 364l-58 218h-4q-31 -137 -57 -218zM23 0v227h32q49 0 64 45l432 1182h280l431 -1182q14 -45 63 -45h33v-227h-160q-76 0 -112 25t-60 94l-90 254h-492l-90 -254q-26 -71 -60 -95t-110 -24h-161z" />
    <glyph glyph-name="amacron" unicode="&#x101;" horiz-adv-x="1146" 
d="M289 1227v172h536v-172h-536zM330 313q0 -55 41 -95t129 -40t156 87q69 87 69 188v24h-45q-350 0 -350 -164zM688 655h33v9q0 112 -46 158t-147 46q-49 0 -94 -15t-45 -54v-56h-242v111q0 68 42 115t111 66q123 34 230 34q451 0 451 -416v-389q0 -45 45 -45h82v-219h-234
q-68 0 -100 32t-33 83l2 45h-4l-10 -20t-33 -45q-28 -33 -60 -57q-82 -62 -220 -62q-139 -1 -244 87q-104 88 -104 242t123 234q126 80 264 98t233 18z" />
    <glyph glyph-name="Abreve" unicode="&#x102;" horiz-adv-x="1380" 
d="M690 1542q-117 0 -205 71t-88 191v25h166v-25q0 -59 38 -90t89 -31t89 32t38 91v23h166v-25q0 -122 -88 -192t-205 -70zM506 594h368l-124 364l-58 218h-4q-31 -137 -57 -218zM23 0v227h32q49 0 64 45l432 1182h280l431 -1182q14 -45 63 -45h33v-227h-160q-76 0 -112 25
t-60 94l-90 254h-492l-90 -254q-26 -71 -60 -95t-110 -24h-161z" />
    <glyph glyph-name="abreve" unicode="&#x103;" horiz-adv-x="1146" 
d="M555 1165q-117 0 -205 71t-88 191v25h166v-25q0 -59 38 -90t89 -31t89 32t38 92v22h166v-25q0 -121 -88 -191t-205 -71zM330 313q0 -55 41 -95t129 -40t156 87q69 87 69 188v24h-45q-350 0 -350 -164zM688 655h33v9q0 112 -46 158t-147 46q-49 0 -94 -15t-45 -54v-56
h-242v111q0 68 42 115t111 66q123 34 230 34q451 0 451 -416v-389q0 -45 45 -45h82v-219h-234q-68 0 -100 32t-33 83l2 45h-4l-10 -20t-33 -45q-28 -33 -60 -57q-82 -62 -220 -62q-139 -1 -244 87q-104 88 -104 242t123 234q126 80 264 98t233 18z" />
    <glyph glyph-name="Aogonek" unicode="&#x104;" horiz-adv-x="1380" 
d="M506 594h368l-124 364l-58 218h-4q-31 -137 -57 -218zM23 0v227h32q49 0 64 45l432 1182h280l431 -1182q14 -45 63 -45h33v-227q-113 -94 -113 -160q0 -29 25 -47t49 -22l24 -4l-61 -193q-25 0 -78 16t-86 36q-32 20 -60 58t-28 87q0 125 137 229v4q-61 4 -90 29t-51 86
l-90 254h-492l-90 -254q-26 -71 -60 -95t-110 -24h-161z" />
    <glyph glyph-name="aogonek" unicode="&#x105;" horiz-adv-x="1146" 
d="M330 313q0 -55 41 -95t129 -40t156 87q69 87 69 188v24h-45q-350 0 -350 -164zM68 301q0 186 191 278q157 76 433 76h29v9q0 112 -46 158t-147 46q-49 0 -94 -15t-45 -54v-56h-242v111q0 68 42 114q63 69 234 94q54 7 107 7q451 0 451 -416v-389q0 -45 45 -45h82v-219
q-115 -96 -115 -160q0 -29 26 -47t50 -22l25 -4l-62 -193q-24 0 -77 16q-54 16 -87 36q-32 20 -60 58t-28 87q0 119 135 225v4h-51q-63 0 -94 34t-31 75v10l4 41h-4l-10 -20t-33 -45q-28 -33 -60 -57q-82 -62 -222 -62q-142 -2 -244 88t-102 237z" />
    <glyph glyph-name="Cacute" unicode="&#x106;" horiz-adv-x="1452" 
d="M690 1550l156 279h250l-215 -279h-191zM809 -25q-330 0 -539 218q-209 217 -209 539t211 534t527 213q164 0 344 -70q90 -35 148 -101t59 -155v-162h-244v82q0 74 -95 115t-206 41q-201 0 -333 -133q-132 -134 -132 -352t137 -368t336 -151q158 0 269 65t153 107l18 21
l142 -193q-22 -28 -89 -78q-67 -51 -129 -85q-63 -34 -163 -60t-205 -27z" />
    <glyph glyph-name="cacute" unicode="&#x107;" horiz-adv-x="1101" 
d="M498 1174l155 278h250l-215 -278h-190zM66 520q0 231 155 390q156 159 416 159q194 0 309 -95q70 -56 70 -140v-123h-230v57q0 38 -47 60t-102 22q-135 0 -222 -92t-87 -239t95 -231t230 -85q80 0 157 35t116 69l37 37l108 -180q-18 -24 -66 -61q-161 -125 -374 -128
q-252 0 -409 157q-156 157 -156 388z" />
    <glyph glyph-name="Ccircumflex" unicode="&#x108;" horiz-adv-x="1452" 
d="M494 1550l186 279h223l189 -279h-195l-102 166h-4l-105 -166h-192zM809 -25q-330 0 -539 218q-209 217 -209 539t211 534t527 213q164 0 344 -70q90 -35 148 -101t59 -155v-162h-244v82q0 74 -95 115t-206 41q-201 0 -333 -133q-132 -134 -132 -352t137 -368t336 -151
q158 0 269 65t153 107l18 21l142 -193q-22 -28 -89 -78q-67 -51 -129 -85q-63 -34 -163 -60t-205 -27z" />
    <glyph glyph-name="ccircumflex" unicode="&#x109;" horiz-adv-x="1101" 
d="M299 1174l186 278h224l188 -278h-195l-102 165h-4l-104 -165h-193zM66 520q0 231 155 390q156 159 416 159q194 0 309 -95q70 -56 70 -140v-123h-230v57q0 38 -47 60t-102 22q-135 0 -222 -92t-87 -239t95 -231t230 -85q80 0 157 35t116 69l37 37l108 -180
q-18 -24 -66 -61q-161 -125 -374 -128q-252 0 -409 157q-156 157 -156 388z" />
    <glyph glyph-name="Cdotaccent" unicode="&#x10a;" horiz-adv-x="1452" 
d="M680 1591v238h225v-238h-225zM809 -25q-330 0 -539 218q-209 217 -209 539t211 534t527 213q164 0 344 -70q90 -35 148 -101t59 -155v-162h-244v82q0 74 -95 115t-206 41q-201 0 -333 -133q-132 -134 -132 -352t137 -368t336 -151q158 0 269 65t153 107l18 21l142 -193
q-22 -28 -89 -78q-67 -51 -129 -85q-63 -34 -163 -60t-205 -27z" />
    <glyph glyph-name="cdotaccent" unicode="&#x10b;" horiz-adv-x="1101" 
d="M485 1214v238h226v-238h-226zM66 520q0 231 155 390q156 159 416 159q194 0 309 -95q70 -56 70 -140v-123h-230v57q0 38 -47 60t-102 22q-135 0 -222 -92t-87 -239t95 -231t230 -85q80 0 157 35t116 69l37 37l108 -180q-18 -24 -66 -61q-161 -125 -374 -128
q-252 0 -409 157q-156 157 -156 388z" />
    <glyph glyph-name="Ccaron" unicode="&#x10c;" horiz-adv-x="1452" 
d="M680 1550l-188 279h194l102 -166h5l102 166h197l-191 -279h-221zM809 -25q-330 0 -539 218q-209 217 -209 539t211 534t527 213q164 0 344 -70q90 -35 148 -101t59 -155v-162h-244v82q0 74 -95 115t-206 41q-201 0 -333 -133q-132 -134 -132 -352t137 -368t336 -151
q158 0 269 65t153 107l18 21l142 -193q-22 -28 -89 -78q-67 -51 -129 -85q-63 -34 -163 -60t-205 -27z" />
    <glyph glyph-name="ccaron" unicode="&#x10d;" horiz-adv-x="1101" 
d="M487 1174l-188 278h195l102 -166h4l102 166h197l-190 -278h-222zM66 520q0 231 155 390q156 159 416 159q194 0 309 -95q70 -56 70 -140v-123h-230v57q0 38 -47 60t-102 22q-135 0 -222 -92t-87 -239t95 -231t230 -85q80 0 157 35t116 69l37 37l108 -180q-18 -24 -66 -61
q-161 -125 -374 -128q-252 0 -409 157q-156 157 -156 388z" />
    <glyph glyph-name="Dcaron" unicode="&#x10e;" horiz-adv-x="1464" 
d="M575 1550l-188 279h195l102 -166h4l103 166h196l-190 -279h-222zM471 272q0 -45 45 -45h131q221 0 349 130t128 370t-129 370t-348 130h-176v-955zM203 139v1088h-133v227h592q340 0 540 -192t201 -533q0 -341 -201 -535t-540 -194h-320q-74 0 -106 32t-33 107z" />
    <glyph glyph-name="dcaron" unicode="&#x10f;" horiz-adv-x="1472" 
d="M1409 1336q0 -68 -53 -179h-172q39 103 39 167t-23 130h195q14 -50 14 -118zM586 195q112 0 188 83t76 230q0 146 -68 242t-186 96t-192 -87t-74 -235t72 -239q72 -90 184 -90zM66 523q0 245 133 396t342 150q161 0 260 -82q23 -18 30 -33l11 -12h4q-2 27 -2 62v184
q0 45 -45 45h-82v221h248q139 0 139 -139v-1051q0 -45 45 -45h80v-219h-240q-129 0 -129 106v39h-4q-4 -6 -11 -18t-35 -41q-105 -108 -280 -111q-212 -1 -338 151t-126 397z" />
    <glyph glyph-name="Dcroat" unicode="&#x110;" horiz-adv-x="1464" 
d="M471 272q0 -45 45 -45h131q221 0 349 130t128 370t-129 370t-348 130h-176v-396h252v-215h-252v-344zM203 139v477h-99v215h99v396h-133v227h592q340 0 540 -192t201 -533q0 -341 -201 -535t-540 -194h-320q-74 0 -106 32t-33 107z" />
    <glyph glyph-name="dcroat" unicode="&#x111;" horiz-adv-x="1275" 
d="M586 195q112 0 188 83t76 230q0 146 -68 242t-186 96t-192 -87t-74 -235t72 -239q72 -90 184 -90zM530 -25q-212 0 -338 152q-126 153 -126 397t133 395t342 150q161 0 260 -82q23 -18 30 -33l11 -12h4q-2 27 -2 62v141h-260v155h260v154h260v-154h151v-155h-151v-881
q0 -45 45 -45h80v-219h-240q-129 0 -129 106v39h-4q-4 -6 -11 -18t-35 -41q-107 -111 -280 -111z" />
    <glyph glyph-name="Emacron" unicode="&#x112;" horiz-adv-x="1183" 
d="M342 1604v172h537v-172h-537zM203 139v1088h-133v227h878q139 0 139 -139v-221h-243v88q0 45 -45 45h-328v-381h471v-228h-471v-346q0 -45 45 -45h336q45 0 45 45v88h244v-221q0 -75 -34 -107t-106 -32h-659q-74 0 -106 32t-33 107z" />
    <glyph glyph-name="emacron" unicode="&#x113;" horiz-adv-x="1140" 
d="M322 1227v172h536v-172h-536zM587 868q-91 0 -158 -56q-66 -57 -89 -155h453q-3 91 -59 151t-147 60zM66 528q0 236 147 388t373 153q226 0 350 -140q123 -140 123 -356l-6 -96h-721q14 -133 102 -207t211 -73q74 1 148 29t108 57l37 30l109 -180q-94 -94 -276 -140
q-71 -17 -144 -18q-252 0 -407 159q-154 158 -154 394z" />
    <glyph glyph-name="Ebreve" unicode="&#x114;" horiz-adv-x="1183" 
d="M608 1542q-117 0 -205 71t-88 191v25h166v-25q0 -59 38 -90t89 -31t89 32t38 91v23h166v-25q0 -122 -88 -192t-205 -70zM203 139v1088h-133v227h878q139 0 139 -139v-221h-243v88q0 45 -45 45h-328v-381h471v-228h-471v-346q0 -45 45 -45h336q45 0 45 45v88h244v-221
q0 -75 -34 -107t-106 -32h-659q-74 0 -106 32t-33 107z" />
    <glyph glyph-name="ebreve" unicode="&#x115;" horiz-adv-x="1140" 
d="M590 1165q-117 0 -205 71t-88 191v25h166v-25q0 -59 38 -90t89 -31t89 32t38 92v22h166v-25q0 -121 -88 -191t-205 -71zM587 868q-91 0 -158 -56q-66 -57 -89 -155h453q-3 91 -59 151t-147 60zM66 528q0 236 147 388t373 153q226 0 350 -140q123 -140 123 -356l-6 -96
h-721q14 -133 102 -207t211 -73q74 1 148 29t108 57l37 30l109 -180q-94 -94 -276 -140q-71 -17 -144 -18q-252 0 -407 159q-154 158 -154 394z" />
    <glyph glyph-name="Edotaccent" unicode="&#x116;" horiz-adv-x="1183" 
d="M496 1591v238h225v-238h-225zM203 139v1088h-133v227h878q139 0 139 -139v-221h-243v88q0 45 -45 45h-328v-381h471v-228h-471v-346q0 -45 45 -45h336q45 0 45 45v88h244v-221q0 -75 -34 -107t-106 -32h-659q-74 0 -106 32t-33 107z" />
    <glyph glyph-name="edotaccent" unicode="&#x117;" horiz-adv-x="1140" 
d="M477 1214v238h225v-238h-225zM587 868q-91 0 -158 -56q-66 -57 -89 -155h453q-3 91 -59 151t-147 60zM66 528q0 236 147 388t373 153q226 0 350 -140q123 -140 123 -356l-6 -96h-721q14 -133 102 -207t211 -73q74 1 148 29t108 57l37 30l109 -180q-94 -94 -276 -140
q-71 -17 -144 -18q-252 0 -407 159q-154 158 -154 394z" />
    <glyph glyph-name="Eogonek" unicode="&#x118;" horiz-adv-x="1183" 
d="M203 139v1088h-133v227h878q139 0 139 -139v-221h-243v88q0 45 -45 45h-328v-381h471v-228h-471v-346q0 -45 45 -45h336q45 0 45 45v88h244v-221q0 -76 -51 -125q-133 -109 -134 -174q0 -29 25 -47t49 -22l25 -4l-62 -193q-24 0 -77 16q-54 16 -87 36t-61 58t-27 87
q0 121 131 225v4h-530q-74 0 -106 32t-33 107z" />
    <glyph glyph-name="eogonek" unicode="&#x119;" horiz-adv-x="1140" 
d="M587 868q-91 0 -158 -56q-66 -57 -89 -155h453q-3 95 -59 153t-147 58zM66 528q0 236 147 388t373 153q226 0 350 -140q123 -140 123 -356l-6 -96h-721q14 -133 102 -207t211 -73q74 1 148 29t108 57l37 30l109 -180q-13 -15 -91 -73t-120 -110t-41 -96t25 -61
q24 -18 48 -22l27 -4l-64 -193q-22 0 -75 16q-54 16 -88 36t-60 58q-27 38 -26 87q0 104 118 206v5q-37 -6 -73 -7q-252 0 -407 159q-154 158 -154 394z" />
    <glyph glyph-name="Ecaron" unicode="&#x11a;" horiz-adv-x="1183" 
d="M498 1550l-189 279h195l102 -166h4l103 166h196l-190 -279h-221zM203 139v1088h-133v227h878q139 0 139 -139v-221h-243v88q0 45 -45 45h-328v-381h471v-228h-471v-346q0 -45 45 -45h336q45 0 45 45v88h244v-221q0 -75 -34 -107t-106 -32h-659q-74 0 -106 32t-33 107z
" />
    <glyph glyph-name="ecaron" unicode="&#x11b;" horiz-adv-x="1140" 
d="M479 1174l-188 278h194l103 -166h4l102 166h197l-191 -278h-221zM587 868q-91 0 -158 -56q-66 -57 -89 -155h453q-3 91 -59 151t-147 60zM66 528q0 236 147 388t373 153q226 0 350 -140q123 -140 123 -356l-6 -96h-721q14 -133 102 -207t211 -73q74 1 148 29t108 57
l37 30l109 -180q-94 -94 -276 -140q-71 -17 -144 -18q-252 0 -407 159q-154 158 -154 394z" />
    <glyph glyph-name="Gcircumflex" unicode="&#x11c;" horiz-adv-x="1519" 
d="M498 1550l186 279h223l189 -279h-195l-102 166h-4l-105 -166h-192zM63 722q0 328 212 542t528 215q244 0 445 -119q44 -27 65 -45l20 -21l-151 -192q-16 14 -48 36t-129 58t-196 35q-195 0 -331 -138q-136 -139 -136 -363t138 -364t339 -141q103 0 195 38t133 77l41 37
v108q0 45 -45 45h-88v228h235q74 0 107 -33t33 -104v-621h-230v70l2 61h-4q-19 -19 -88 -65q-70 -46 -167 -68t-173 -23q-295 0 -501 209q-206 210 -206 538z" />
    <glyph glyph-name="gcircumflex" unicode="&#x11d;" horiz-adv-x="1253" 
d="M340 1174l186 278h224l188 -278h-195l-102 165h-4l-105 -165h-192zM330 554q0 -138 68 -226t184 -88q114 0 183 72t69 235q0 301 -261 301q-117 0 -180 -78t-63 -216zM66 550q0 224 122 372q123 147 340 147q138 0 217 -51t95 -80l10 -16h4v26q0 39 29 68t86 28h241v-221
h-80q-45 0 -45 -41v-719q0 -129 -47 -227t-127 -154q-161 -112 -369 -112t-378 90l80 205q129 -70 273 -70q144 -1 227 61t83 195v49l2 56h-4q-95 -136 -301 -136t-333 153q-125 153 -125 377z" />
    <glyph glyph-name="Gbreve" unicode="&#x11e;" horiz-adv-x="1519" 
d="M795 1542q-117 0 -205 71t-88 191v25h166v-25q0 -59 38 -90t89 -31t89 32t38 91v23h165v-25q1 -122 -87 -192t-205 -70zM63 722q0 328 212 542t528 215q244 0 445 -119q44 -27 65 -45l20 -21l-151 -192q-16 14 -48 36t-129 58t-196 35q-195 0 -331 -138
q-136 -139 -136 -363t138 -364t339 -141q103 0 195 38t133 77l41 37v108q0 45 -45 45h-88v228h235q74 0 107 -33t33 -104v-621h-230v70l2 61h-4q-19 -19 -88 -65q-70 -46 -167 -68t-173 -23q-295 0 -501 209q-206 210 -206 538z" />
    <glyph glyph-name="gbreve" unicode="&#x11f;" horiz-adv-x="1253" 
d="M639 1165q-117 0 -205 71t-88 191v25h166v-25q0 -59 38 -90t89 -31t89 32t38 92v22h166v-25q0 -121 -88 -191t-205 -71zM330 554q0 -138 68 -226t184 -88q114 0 183 72t69 235q0 301 -261 301q-117 0 -180 -78t-63 -216zM66 550q0 224 122 372q123 147 340 147
q138 0 217 -51t95 -80l10 -16h4v26q0 39 29 68t86 28h241v-221h-80q-45 0 -45 -41v-719q0 -129 -47 -227t-127 -154q-161 -112 -369 -112t-378 90l80 205q129 -70 273 -70q144 -1 227 61t83 195v49l2 56h-4q-95 -136 -301 -136t-333 153q-125 153 -125 377z" />
    <glyph glyph-name="Gdotaccent" unicode="&#x120;" horiz-adv-x="1519" 
d="M684 1591v238h225v-238h-225zM63 722q0 328 212 542t528 215q244 0 445 -119q44 -27 65 -45l20 -21l-151 -192q-16 14 -48 36t-129 58t-196 35q-195 0 -331 -138q-136 -139 -136 -363t138 -364t339 -141q103 0 195 38t133 77l41 37v108q0 45 -45 45h-88v228h235
q74 0 107 -33t33 -104v-621h-230v70l2 61h-4q-19 -19 -88 -65q-70 -46 -167 -68t-173 -23q-295 0 -501 209q-206 210 -206 538z" />
    <glyph glyph-name="gdotaccent" unicode="&#x121;" horiz-adv-x="1253" 
d="M526 1214v238h226v-238h-226zM330 554q0 -138 68 -226t184 -88q114 0 183 72t69 235q0 301 -261 301q-117 0 -180 -78t-63 -216zM66 550q0 224 122 372q123 147 340 147q138 0 217 -51t95 -80l10 -16h4v26q0 39 29 68t86 28h241v-221h-80q-45 0 -45 -41v-719
q0 -129 -47 -227t-127 -154q-161 -112 -369 -112t-378 90l80 205q129 -70 273 -70q144 -1 227 61t83 195v49l2 56h-4q-95 -136 -301 -136t-333 153q-125 153 -125 377z" />
    <glyph glyph-name="Gcommaaccent" unicode="&#x122;" horiz-adv-x="1519" 
d="M895 -232q0 -68 -53 -178h-172q39 104 39 168t-23 129h195q14 -51 14 -119zM63 722q0 328 212 542t528 215q244 0 445 -119q44 -27 65 -45l20 -21l-151 -192q-16 14 -48 36t-129 58t-196 35q-195 0 -331 -138q-136 -139 -136 -363t138 -364t339 -141q103 0 195 38t133 77
l41 37v108q0 45 -45 45h-88v228h235q74 0 107 -33t33 -104v-621h-230v70l2 61h-4q-19 -19 -88 -65q-70 -46 -167 -68t-173 -23q-295 0 -501 209q-206 210 -206 538z" />
    <glyph glyph-name="gcommaaccent" unicode="&#x123;" horiz-adv-x="1253" 
d="M496 1276q0 68 53 178h172q-39 -104 -39 -168t23 -129h-195q-14 51 -14 119zM330 554q0 -138 68 -226t184 -88q114 0 183 72t69 235q0 301 -261 301q-117 0 -180 -78t-63 -216zM66 550q0 224 122 372q123 147 340 147q138 0 217 -51t95 -80l10 -16h4v26q0 39 29 68t86 28
h241v-221h-80q-45 0 -45 -41v-719q0 -129 -47 -227t-127 -154q-161 -112 -369 -112t-378 90l80 205q129 -70 273 -70q144 -1 227 61t83 195v49l2 56h-4q-95 -136 -301 -136t-333 153q-125 153 -125 377z" />
    <glyph glyph-name="Hcircumflex" unicode="&#x124;" horiz-adv-x="1583" 
d="M496 1550l186 279h223l189 -279h-195l-102 166h-4l-105 -166h-192zM203 0v1182q0 45 -45 45h-88v227h262q74 0 106 -34t33 -105v-477h641v477q0 139 139 139h262v-227h-88q-45 0 -45 -45v-1182h-268v610h-641v-610h-268z" />
    <glyph glyph-name="hcircumflex" unicode="&#x125;" horiz-adv-x="1310" 
d="M373 1550l186 279h223l189 -279h-195l-102 166h-4l-105 -166h-192zM162 0v1188q0 45 -45 45h-82v221h248q139 0 139 -137v-367l-4 -88h4q41 84 136 146t222 61q365 0 365 -397v-408q0 -45 45 -45h82v-219h-248q-72 0 -104 33t-33 106v479q0 104 -37 158t-133 55
q-96 0 -172 -60q-75 -60 -99 -136t-24 -156v-479h-260z" />
    <glyph glyph-name="Hbar" unicode="&#x126;" horiz-adv-x="1583" 
d="M471 838h641v217h-641v-217zM203 0v1055h-135v170h135v229h268v-229h641v229h268v-229h133v-170h-133v-1055h-268v610h-641v-610h-268z" />
    <glyph glyph-name="hbar" unicode="&#x127;" horiz-adv-x="1310" 
d="M162 0v1145h-150v155h150v154h260v-154h258v-155h-258v-195l-4 -88h4q13 40 90 115q41 39 113 65t155 27q365 0 365 -397v-408q0 -45 45 -45h82v-219h-248q-72 0 -104 33t-33 106v479q0 102 -37 158t-129 55q-137 0 -218 -100t-81 -252v-479h-260z" />
    <glyph glyph-name="Itilde" unicode="&#x128;" horiz-adv-x="700" 
d="M-23 1552q0 281 234 281q59 0 107 -34q48 -35 84 -67t74 -32t60 37t21 90h162q0 -281 -234 -281q-59 0 -107 34t-84 67t-74 33t-60 -36t-21 -92h-162zM78 0v227h145v1000h-145v227h545v-227h-146v-1000h146v-227h-545z" />
    <glyph glyph-name="itilde" unicode="&#x129;" horiz-adv-x="618" 
d="M-37 1178q0 281 209 280q78 0 133 -62t86 -63q68 0 68 119h162q-1 -141 -51 -211t-158 -70q-80 0 -165 94q-30 32 -52 31q-70 0 -70 -118h-162zM180 139v639q0 45 -45 45h-82v221h248q139 0 139 -139v-641q0 -45 45 -45h80v-219h-246q-75 0 -107 32t-32 107z" />
    <glyph glyph-name="Imacron" unicode="&#x12a;" horiz-adv-x="700" 
d="M82 1604v172h536v-172h-536zM78 0v227h145v1000h-145v227h545v-227h-146v-1000h146v-227h-545z" />
    <glyph glyph-name="imacron" unicode="&#x12b;" horiz-adv-x="618" 
d="M41 1229v170h508v-170h-508zM180 139v639q0 45 -45 45h-82v221h248q139 0 139 -139v-641q0 -45 45 -45h80v-219h-246q-75 0 -107 32t-32 107z" />
    <glyph glyph-name="Ibreve" unicode="&#x12c;" horiz-adv-x="700" 
d="M350 1542q-117 0 -205 71t-88 191v25h166v-25q0 -59 38 -90t89 -31t89 32t38 91v23h166v-25q0 -122 -88 -192t-205 -70zM78 0v227h145v1000h-145v227h545v-227h-146v-1000h146v-227h-545z" />
    <glyph glyph-name="ibreve" unicode="&#x12d;" horiz-adv-x="618" 
d="M293 1165q-117 0 -205 71t-88 194v24h168v-24q0 -60 37 -92t88 -32t89 32t38 92v24h166v-24q0 -123 -88 -194t-205 -71zM180 139v639q0 45 -45 45h-82v221h248q139 0 139 -139v-641q0 -45 45 -45h80v-219h-246q-75 0 -107 32t-32 107z" />
    <glyph glyph-name="Iogonek" unicode="&#x12e;" horiz-adv-x="700" 
d="M78 0v227h145v1000h-145v227h545v-227h-146v-1000h146v-227q-113 -94 -113 -160q0 -29 26 -47t50 -22l24 -4l-63 -193q-23 0 -76 16t-87 36t-60 58t-27 87q0 125 131 225v4h-350z" />
    <glyph glyph-name="iogonek" unicode="&#x12f;" horiz-adv-x="612" 
d="M51 1044h248q73 0 105 -34t32 -105v-641q0 -45 45 -45h82v-219q-113 -94 -112 -160q1 -29 25 -47t48 -22l25 -4l-62 -193q-24 0 -77 16q-54 16 -86 36t-61 58q-28 38 -27 87q0 123 133 225v4h-62q-129 0 -129 160v618q0 45 -45 45h-82v221zM190 1214v240h226v-240h-226z
" />
    <glyph glyph-name="Idotaccent" unicode="&#x130;" horiz-adv-x="700" 
d="M236 1591v238h225v-238h-225zM78 0v227h145v1000h-145v227h545v-227h-146v-1000h146v-227h-545z" />
    <glyph glyph-name="dotlessi" unicode="&#x131;" horiz-adv-x="618" 
d="M180 139v639q0 45 -45 45h-82v221h248q139 0 139 -139v-641q0 -45 45 -45h80v-219h-246q-75 0 -107 32t-32 107z" />
    <glyph glyph-name="IJ" unicode="&#x132;" horiz-adv-x="1474" 
d="M78 0v227h145v1000h-145v227h545v-227h-146v-1000h146v-227h-545zM793 -8v239q93 0 171 54q42 29 67 88q26 59 26 143v666q0 45 -45 45h-215v227h391q72 0 104 -34t33 -105v-803q0 -520 -532 -520z" />
    <glyph glyph-name="ij" unicode="&#x133;" horiz-adv-x="1216" 
d="M553 -199q18 -4 67 -4q49 1 96 25q91 47 91 168v788q0 45 -45 45h-80v221h246q74 0 106 -34t33 -105v-936q0 -100 -33 -175t-79 -115q-118 -103 -324 -103l-78 6v219zM819 1214v240h225v-240h-225zM178 139v639q0 45 -45 45h-82v221h248q73 0 105 -34t32 -105v-641
q0 -45 45 -45h82v-219h-248q-73 0 -105 32t-32 107zM190 1214v240h226v-240h-226z" />
    <glyph glyph-name="Jcircumflex" unicode="&#x134;" horiz-adv-x="1103" 
d="M311 1550l187 279h223l188 -279h-194l-103 166h-4l-104 -166h-193zM41 430v84h268v-59q1 -121 55 -175t136 -54t135 52q53 54 53 164v740q0 45 -45 45h-352v227h526q139 0 139 -139v-885q0 -223 -135 -339t-322 -116t-323 117q-135 117 -135 338z" />
    <glyph glyph-name="jcircumflex" unicode="&#x135;" horiz-adv-x="618" 
d="M-39 -205q18 -2 67 -2q49 1 96 25q93 48 91 168v800q0 45 -55 45h-72v213h242q76 0 108 -24t31 -94v-957q0 -100 -32 -175q-93 -218 -398 -218l-78 6v213zM-16 1174l188 280h223l189 -280h-195l-104 169l-105 -169h-196z" />
    <glyph glyph-name="Kcommaaccent" unicode="&#x136;" horiz-adv-x="1298" 
d="M617 -242q0 64 -23 129h194q14 -51 14 -119t-52 -178h-172q39 104 39 168zM203 0v1182q0 45 -45 45h-88v227h262q74 0 106 -34t33 -105v-453h102q90 0 117 47l293 545h295l-328 -598q-42 -77 -92 -106v-5q49 -12 94 -100l185 -371q23 -47 102 -47h39v-227h-154
q-86 0 -127 20t-75 89l-238 477q-16 33 -45 41t-82 8h-86v-635h-268z" />
    <glyph glyph-name="kcommaaccent" unicode="&#x137;" horiz-adv-x="1132" 
d="M531 -242q0 64 -23 129h194q14 -51 14 -119t-52 -178h-172q39 104 39 168zM162 0v1188q0 45 -45 45h-82v221h248q75 0 107 -24t32 -95v-659h78q72 0 98 39l213 329h289l-264 -393q-34 -49 -78 -82v-4q37 -14 73 -82l119 -225q20 -39 86 -39h70v-219h-193q-69 0 -101 17
t-62 73l-175 328q-23 39 -96 39h-57v-457h-260z" />
    <glyph glyph-name="kgreenlandic" unicode="&#x138;" horiz-adv-x="1132" 
d="M162 0v778q0 45 -45 45h-82v221h248q75 0 107 -24t32 -94v-287h78q76 0 98 39l219 366h287l-273 -426q-38 -61 -65 -73l-10 -6v-4q35 -14 71 -84l103 -193q20 -39 86 -39h80v-219h-203q-69 0 -101 17t-63 73l-154 291q-20 39 -96 39h-57v-420h-260z" />
    <glyph glyph-name="Lacute" unicode="&#x139;" horiz-adv-x="1142" 
d="M264 1550l156 279h250l-215 -279h-191zM203 139v1043q0 45 -45 45h-88v227h262q74 0 106 -34t33 -105v-1043q0 -45 45 -45h318q45 0 45 45v88h243v-221q0 -75 -32 -107t-107 -32h-641q-74 0 -106 32t-33 107z" />
    <glyph glyph-name="lacute" unicode="&#x13a;" horiz-adv-x="595" 
d="M158 1550l155 279h250l-215 -279h-190zM164 139v1049q0 45 -45 45h-82v221h248q139 0 139 -139v-1051q0 -45 45 -45h80v-219h-246q-75 0 -107 32t-32 107z" />
    <glyph glyph-name="Lcommaaccent" unicode="&#x13b;" horiz-adv-x="1142" 
d="M764 -232q0 -68 -53 -178h-172q39 104 39 168t-23 129h195q14 -51 14 -119zM203 139v1043q0 45 -45 45h-88v227h262q74 0 106 -34t33 -105v-1043q0 -45 45 -45h318q45 0 45 45v88h243v-221q0 -75 -32 -107t-107 -32h-641q-74 0 -106 32t-33 107z" />
    <glyph glyph-name="lcommaaccent" unicode="&#x13c;" horiz-adv-x="595" 
d="M426 -232q0 -68 -53 -178h-172q39 104 39 168t-23 129h195q14 -51 14 -119zM164 139v1049q0 45 -45 45h-82v221h248q139 0 139 -139v-1051q0 -45 45 -45h80v-219h-246q-75 0 -107 32t-32 107z" />
    <glyph glyph-name="Lcaron" unicode="&#x13d;" horiz-adv-x="1142" 
d="M631 1454h194q15 -50 15 -118t-54 -179h-172q40 103 40 167t-23 130zM203 139v1043q0 45 -45 45h-88v227h262q74 0 106 -34t33 -105v-1043q0 -45 45 -45h318q45 0 45 45v88h243v-221q0 -75 -32 -107t-107 -32h-641q-74 0 -106 32t-33 107z" />
    <glyph glyph-name="lcaron" unicode="&#x13e;" horiz-adv-x="800" 
d="M737 1336q0 -68 -53 -179h-172q39 103 39 167t-23 130h195q14 -50 14 -118zM164 139v1049q0 45 -45 45h-82v221h248q139 0 139 -139v-1051q0 -45 45 -45h80v-219h-246q-75 0 -107 32t-32 107z" />
    <glyph glyph-name="Ldot" unicode="&#x13f;" horiz-adv-x="1142" 
d="M674 662v258h252v-258h-252zM203 139v1043q0 45 -45 45h-88v227h262q74 0 106 -34t33 -105v-1043q0 -45 45 -45h318q45 0 45 45v88h243v-221q0 -75 -32 -107t-107 -32h-641q-74 0 -106 32t-33 107z" />
    <glyph glyph-name="ldot" unicode="&#x140;" horiz-adv-x="835" 
d="M573 662v258h252v-258h-252zM164 139v1049q0 45 -45 45h-82v221h248q139 0 139 -139v-1051q0 -45 45 -45h80v-219h-246q-75 0 -107 32t-32 107z" />
    <glyph glyph-name="Lslash" unicode="&#x141;" horiz-adv-x="1142" 
d="M203 139v406l-127 -72v254l127 72v383q0 45 -45 45h-88v227h262q74 0 106 -34t33 -105v-363l201 117v-254l-201 -117v-426q0 -45 45 -45h318q45 0 45 45v88h243v-221q0 -75 -32 -107t-107 -32h-641q-74 0 -106 32t-33 107z" />
    <glyph glyph-name="lslash" unicode="&#x142;" horiz-adv-x="620" 
d="M180 139v445l-135 -76v256l135 78v346q0 45 -45 45h-82v221h248q72 0 105 -34t32 -105v-326l150 84v-254l-150 -86v-469q0 -45 45 -45h82v-219h-248q-73 0 -105 32t-32 107z" />
    <glyph glyph-name="Nacute" unicode="&#x143;" horiz-adv-x="1576" 
d="M707 1550l155 279h250l-215 -279h-190zM70 0v227h88q45 0 45 45v1182h241l551 -805q69 -103 103 -172l18 -33h4q-14 121 -14 205v666q0 71 33 105t106 34h262v-227h-88q-45 0 -45 -45v-1182h-239l-553 803q-69 103 -103 172l-18 33h-4q14 -121 14 -205v-664
q0 -75 -33 -107t-106 -32h-262z" />
    <glyph glyph-name="nacute" unicode="&#x144;" horiz-adv-x="1316" 
d="M573 1174l156 278h250l-215 -278h-191zM170 0v778q0 45 -45 45h-82v221h240q137 0 137 -116v-31l-4 -45h4q43 86 135 152t233 65q365 0 365 -397v-408q0 -45 45 -45h82v-219h-248q-74 0 -106 33t-33 106v479q0 104 -36 158t-133 55q-97 0 -172 -58t-103 -155
q-20 -61 -21 -139v-479h-258z" />
    <glyph glyph-name="Ncommaaccent" unicode="&#x145;" horiz-adv-x="1576" 
d="M895 -232q0 -68 -53 -178h-172q39 104 39 168t-23 129h195q14 -51 14 -119zM70 0v227h88q45 0 45 45v1182h241l551 -805q69 -103 103 -172l18 -33h4q-14 121 -14 205v666q0 71 33 105t106 34h262v-227h-88q-45 0 -45 -45v-1182h-239l-553 803q-69 103 -103 172l-18 33h-4
q14 -121 14 -205v-664q0 -75 -33 -107t-106 -32h-262z" />
    <glyph glyph-name="ncommaaccent" unicode="&#x146;" horiz-adv-x="1316" 
d="M784 -232q0 -68 -53 -178h-172q39 104 39 168t-23 129h195q14 -51 14 -119zM170 0v778q0 45 -45 45h-82v221h240q137 0 137 -116v-31l-4 -45h4q43 86 135 152t233 65q365 0 365 -397v-408q0 -45 45 -45h82v-219h-248q-74 0 -106 33t-33 106v479q0 104 -36 158t-133 55
q-97 0 -172 -58t-103 -155q-20 -61 -21 -139v-479h-258z" />
    <glyph glyph-name="Ncaron" unicode="&#x147;" horiz-adv-x="1576" 
d="M696 1550l-188 279h194l103 -166h4l102 166h197l-190 -279h-222zM70 0v227h88q45 0 45 45v1182h241l551 -805q69 -103 103 -172l18 -33h4q-14 121 -14 205v666q0 71 33 105t106 34h262v-227h-88q-45 0 -45 -45v-1182h-239l-553 803q-69 103 -103 172l-18 33h-4
q14 -121 14 -205v-664q0 -75 -33 -107t-106 -32h-262z" />
    <glyph glyph-name="ncaron" unicode="&#x148;" horiz-adv-x="1316" 
d="M563 1174l-188 278h194l103 -166h4l102 166h197l-191 -278h-221zM170 0v778q0 45 -45 45h-82v221h240q137 0 137 -116v-31l-4 -45h4q43 86 135 152t233 65q365 0 365 -397v-408q0 -45 45 -45h82v-219h-248q-74 0 -106 33t-33 106v479q0 104 -36 158t-133 55
q-97 0 -172 -58t-103 -155q-20 -61 -21 -139v-479h-258z" />
    <glyph glyph-name="napostrophe" unicode="&#x149;" horiz-adv-x="1384" 
d="M188 1336q0 -68 -53 -179h-172q39 103 39 167t-22 130h194q14 -50 14 -118zM236 0v778q0 45 -46 45h-81v221h239q137 0 137 -116v-31l-4 -45h4q43 86 135 152t234 65q365 0 365 -397v-408q0 -45 45 -45h82v-219h-248q-74 0 -107 33t-33 106v479q0 104 -35 159
q-36 54 -133 54q-96 0 -172 -58t-104 -155q-20 -61 -20 -139v-479h-258z" />
    <glyph glyph-name="Eng" unicode="&#x14a;" horiz-adv-x="1576" 
d="M70 0v227h88q45 0 45 45v1182h241l551 -805q69 -103 103 -172l18 -33h4q-14 121 -14 205v666q0 71 33 105t106 34h262v-227h-88q-45 0 -45 -45v-1094q0 -398 -340 -485q-86 -23 -186 -23v240q88 0 173 54t85 157v16l-524 756q-69 103 -103 172l-18 33h-4q14 -121 14 -205
v-664q0 -75 -33 -107t-106 -32h-262z" />
    <glyph glyph-name="eng" unicode="&#x14b;" horiz-adv-x="1306" 
d="M170 0v778q0 45 -45 45h-82v221h240q137 0 137 -116v-31l-4 -45h4q43 86 135 152t233 65q365 0 365 -397v-707q0 -100 -33 -175t-79 -115q-118 -103 -324 -103l-78 6v219q18 -2 45 -2q209 0 209 191v632q0 104 -36 158t-133 55q-97 0 -173 -60t-105 -157
q-18 -53 -18 -135v-479h-258z" />
    <glyph glyph-name="Omacron" unicode="&#x14c;" horiz-adv-x="1626" 
d="M541 1604v172h536v-172h-536zM340 732q0 -212 137 -359t336 -147t336 146q137 148 137 360t-137 354t-336 142t-336 -142t-137 -354zM813 1479q319 0 535 -214t217 -532q0 -317 -216 -537q-215 -220 -535 -220t-536 219t-217 537q1 318 217 532t535 215z" />
    <glyph glyph-name="omacron" unicode="&#x14d;" horiz-adv-x="1275" 
d="M371 1227v172h536v-172h-536zM637 848q-129 0 -219 -92t-90 -235q0 -142 90 -233t220 -91t220 91t90 233q0 143 -91 235t-220 92zM66 522q0 238 164 392t407 155q241 0 407 -155q166 -154 166 -392t-164 -392t-408 -155q-244 1 -408 155t-164 392z" />
    <glyph glyph-name="Obreve" unicode="&#x14e;" horiz-adv-x="1626" 
d="M809 1542q-117 0 -205 71t-88 191v25h166v-25q0 -59 38 -90t89 -31t89 32t38 91v23h166v-25q0 -122 -88 -192t-205 -70zM340 732q0 -212 137 -359t336 -147t336 146q137 148 137 360t-137 354t-336 142t-336 -142t-137 -354zM813 1479q319 0 535 -214t217 -532
q0 -317 -216 -537q-215 -220 -535 -220t-536 219t-217 537q1 318 217 532t535 215z" />
    <glyph glyph-name="obreve" unicode="&#x14f;" horiz-adv-x="1275" 
d="M637 1165q-117 0 -205 71t-88 191v25h166v-25q0 -59 38 -90t89 -31t89 32t38 92v22h166v-25q0 -121 -88 -191t-205 -71zM637 848q-129 0 -219 -92t-90 -235q0 -142 90 -233t220 -91t220 91t90 233q0 143 -91 235t-220 92zM66 522q0 238 164 392t407 155q241 0 407 -155
q166 -154 166 -392t-164 -392t-408 -155q-244 1 -408 155t-164 392z" />
    <glyph glyph-name="Ohungarumlaut" unicode="&#x150;" horiz-adv-x="1626" 
d="M524 1550l148 279h213l-152 -279h-209zM877 1550l157 279h248l-213 -279h-192zM340 732q0 -212 137 -359t336 -147t336 146q137 148 137 360t-137 354t-336 142t-336 -142t-137 -354zM813 1479q319 0 535 -214t217 -532q0 -317 -216 -537q-215 -220 -535 -220t-536 219
t-217 537q1 318 217 532t535 215z" />
    <glyph glyph-name="ohungarumlaut" unicode="&#x151;" horiz-adv-x="1275" 
d="M352 1174l148 278h213l-152 -278h-209zM705 1174l157 278h248l-213 -278h-192zM637 848q-129 0 -219 -92t-90 -235q0 -142 90 -233t220 -91t220 91t90 233q0 143 -91 235t-220 92zM66 522q0 238 164 392t407 155q241 0 407 -155q166 -154 166 -392t-164 -392t-408 -155
q-244 1 -408 155t-164 392z" />
    <glyph glyph-name="OE" unicode="&#x152;" horiz-adv-x="1945" 
d="M340 728q0 -214 127 -355t324 -142q123 0 180 15v960q-72 16 -180 17q-197 -1 -324 -141t-127 -354zM61 729q0 313 211 527t519 214q71 0 163 -8t133 -8h621q74 0 107 -34t32 -105v-221h-241v88q0 45 -45 45h-322v-381h465v-228h-465v-391h375q45 0 45 45v88h242v-221
q0 -75 -32 -107t-102 -32h-680q-39 0 -133 -9t-163 -9q-307 0 -519 217q-211 217 -211 530z" />
    <glyph glyph-name="oe" unicode="&#x153;" horiz-adv-x="2035" 
d="M328 520q0 -145 90 -234t220 -89t220 90t90 235q0 146 -91 236t-220 90t-219 -92t-90 -236zM1483 868q-92 0 -159 -56q-66 -57 -89 -155h453q-4 95 -58 153t-147 58zM66 520q0 242 164 396t405 153q283 0 440 -215h4q135 215 412 215q219 0 341 -140t122 -356l-6 -96
h-721q18 -135 105 -208t208 -72q74 1 148 29t110 57l37 30l107 -180q-94 -94 -276 -140q-71 -17 -144 -18q-293 0 -437 222h-4q-160 -221 -444 -222q-243 -1 -407 151t-164 394z" />
    <glyph glyph-name="Racute" unicode="&#x154;" horiz-adv-x="1294" 
d="M496 1550l155 279h250l-215 -279h-190zM471 772h213q102 0 158 60t57 168q0 106 -56 166t-155 61h-217v-455zM203 0v1227h-133v227h651q203 0 328 -118t125 -320q0 -92 -29 -168q-46 -120 -150 -185q-37 -24 -63 -30v-4q45 -20 72 -74l141 -281q25 -47 102 -47h27v-227
h-141q-84 0 -126 20t-77 89l-187 366q-23 41 -50 54q-28 13 -87 14h-135v-543h-268z" />
    <glyph glyph-name="racute" unicode="&#x155;" horiz-adv-x="833" 
d="M336 1174l156 278h249l-215 -278h-190zM170 0v778q0 45 -45 45h-82v221h238q139 0 139 -126v-62l-4 -65h4q37 117 126 193t206 75l47 -4v-256q-27 4 -64 4q-92 0 -172 -55q-135 -93 -135 -334v-414h-258z" />
    <glyph glyph-name="Rcommaaccent" unicode="&#x156;" horiz-adv-x="1294" 
d="M829 -232q0 -68 -53 -178h-172q40 104 40 168t-23 129h194q14 -51 14 -119zM471 772h213q102 0 158 60t57 168q0 106 -56 166t-155 61h-217v-455zM203 0v1227h-133v227h651q203 0 328 -118t125 -320q0 -92 -29 -168q-46 -120 -150 -185q-37 -24 -63 -30v-4q45 -20 72 -74
l141 -281q25 -47 102 -47h27v-227h-141q-84 0 -126 20t-77 89l-187 366q-23 41 -50 54q-28 13 -87 14h-135v-543h-268z" />
    <glyph glyph-name="rcommaaccent" unicode="&#x157;" horiz-adv-x="833" 
d="M420 -232q0 -68 -53 -178h-172q39 104 39 168t-23 129h195q14 -51 14 -119zM170 0v778q0 45 -45 45h-82v221h238q139 0 139 -126v-62l-4 -65h4q37 117 126 193t206 75l47 -4v-256q-27 4 -64 4q-92 0 -172 -55q-135 -93 -135 -334v-414h-258z" />
    <glyph glyph-name="Rcaron" unicode="&#x158;" horiz-adv-x="1294" 
d="M485 1550l-188 279h195l102 -166h4l102 166h197l-190 -279h-222zM471 772h213q102 0 158 60t57 168q0 106 -56 166t-155 61h-217v-455zM203 0v1227h-133v227h651q203 0 328 -118t125 -320q0 -92 -29 -168q-46 -120 -150 -185q-37 -24 -63 -30v-4q45 -20 72 -74l141 -281
q25 -47 102 -47h27v-227h-141q-84 0 -126 20t-77 89l-187 366q-23 41 -50 54q-28 13 -87 14h-135v-543h-268z" />
    <glyph glyph-name="rcaron" unicode="&#x159;" horiz-adv-x="833" 
d="M326 1174l-189 278h195l102 -166h4l103 166h196l-190 -278h-221zM170 0v778q0 45 -45 45h-82v221h238q139 0 139 -126v-62l-4 -65h4q37 117 126 193t206 75l47 -4v-256q-27 4 -64 4q-92 0 -172 -55q-135 -93 -135 -334v-414h-258z" />
    <glyph glyph-name="Sacute" unicode="&#x15a;" horiz-adv-x="1124" 
d="M477 1550l156 279h250l-215 -279h-191zM94 1069q0 176 137 293t354 117t352 -122q75 -69 75 -165v-135h-242v65q0 49 -58 81t-142 32t-144 -43q-60 -42 -61 -102q0 -104 136 -169q60 -30 186 -83q362 -154 362 -430q0 -185 -131 -309t-353 -124q-90 0 -175 24t-167 71
t-137 106l-20 25l151 188q6 -6 17 -18q88 -96 221 -135q160 -51 263 27q60 46 60 132t-136 159q-60 32 -133 64q-163 70 -279 161q-60 48 -98 123t-38 167z" />
    <glyph glyph-name="sacute" unicode="&#x15b;" horiz-adv-x="958" 
d="M375 1174l155 278h250l-215 -278h-190zM477 178q150 0 150 103q-1 39 -57 73t-137 64t-163 70t-138 111t-56 165q0 150 116 228t265 77q150 0 234 -34q157 -64 157 -183v-109h-230v52q0 35 -40 54q-41 19 -102 19q-60 0 -102 -24t-42 -70q0 -45 57 -79q57 -35 139 -63
t163 -65t138 -107t58 -165q0 -145 -114 -233t-281 -87q-167 0 -277 62t-145 106l-19 19l123 170q14 -16 42 -42t109 -69t152 -43z" />
    <glyph glyph-name="Scircumflex" unicode="&#x15c;" horiz-adv-x="1124" 
d="M279 1550l186 279h223l189 -279h-195l-102 166h-5l-104 -166h-192zM94 1069q0 176 137 293t354 117t352 -122q75 -69 75 -165v-135h-242v65q0 49 -58 81t-142 32t-144 -43q-60 -42 -61 -102q0 -104 136 -169q60 -30 186 -83q362 -154 362 -430q0 -185 -131 -309
t-353 -124q-90 0 -175 24t-167 71t-137 106l-20 25l151 188q6 -6 17 -18q88 -96 221 -135q160 -51 263 27q60 46 60 132t-136 159q-60 32 -133 64q-163 70 -279 161q-60 48 -98 123t-38 167z" />
    <glyph glyph-name="scircumflex" unicode="&#x15d;" horiz-adv-x="958" 
d="M176 1174l186 278h224l188 -278h-194l-103 165h-4l-104 -165h-193zM477 178q150 0 150 103q-1 39 -57 73t-137 64t-163 70t-138 111t-56 165q0 150 116 228t265 77q150 0 234 -34q157 -64 157 -183v-109h-230v52q0 35 -40 54q-41 19 -102 19q-60 0 -102 -24t-42 -70
q0 -45 57 -79q57 -35 139 -63t163 -65t138 -107t58 -165q0 -145 -114 -233t-281 -87q-167 0 -277 62t-145 106l-19 19l123 170q14 -16 42 -42t109 -69t152 -43z" />
    <glyph glyph-name="Scedilla" unicode="&#x15e;" horiz-adv-x="1124" 
d="M94 1069q0 176 137 293t354 117t352 -122q75 -69 75 -165v-135h-242v65q0 49 -58 81t-142 32t-144 -43q-60 -42 -61 -102q0 -104 136 -169q60 -30 186 -83q362 -154 362 -424q0 -178 -117 -300t-314 -137l-14 -67q66 -8 108 -48t42 -121t-65 -124t-142 -43t-125 12l-16 2
v144q45 -16 90 -17q90 1 90 57t-99 56l-43 -4l41 158q-187 20 -349 150q-36 30 -54 48l-16 21l151 188q6 -6 17 -18q88 -96 221 -135q160 -51 263 27q60 46 60 132t-136 159q-60 32 -133 64q-163 70 -279 161q-60 48 -98 123t-38 167z" />
    <glyph glyph-name="scedilla" unicode="&#x15f;" horiz-adv-x="958" 
d="M500 -90q149 -18 149 -168q0 -82 -63 -125t-143 -43t-124 12l-16 2v144q43 -16 90 -17q88 1 88 57t-98 56l-43 -4l43 160q-98 16 -181 60t-116 81l-35 37l123 170q14 -16 42 -42t109 -69t152 -43q150 0 150 103q-1 39 -57 73t-137 64t-163 70t-138 111t-56 165
q0 150 116 228t265 77q150 0 234 -34q157 -64 157 -183v-109h-230v52q0 35 -40 54q-41 19 -102 19q-60 0 -102 -24t-42 -70q0 -45 57 -79q57 -35 139 -63t163 -65t138 -107t58 -165q-1 -139 -105 -224t-268 -94z" />
    <glyph glyph-name="Scaron" unicode="&#x160;" horiz-adv-x="1124" 
d="M467 1550l-188 279h194l102 -166h5l102 166h197l-191 -279h-221zM94 1069q0 176 137 293t354 117t352 -122q75 -69 75 -165v-135h-242v65q0 49 -58 81t-142 32t-144 -43q-60 -42 -61 -102q0 -104 136 -169q60 -30 186 -83q362 -154 362 -430q0 -185 -131 -309t-353 -124
q-90 0 -175 24t-167 71t-137 106l-20 25l151 188q6 -6 17 -18q88 -96 221 -135q160 -51 263 27q60 46 60 132t-136 159q-60 32 -133 64q-163 70 -279 161q-60 48 -98 123t-38 167z" />
    <glyph glyph-name="scaron" unicode="&#x161;" horiz-adv-x="958" 
d="M362 1174l-188 278h195l102 -166h4l103 166h196l-190 -278h-222zM477 178q150 0 150 103q-1 39 -57 73t-137 64t-163 70t-138 111t-56 165q0 150 116 228t265 77q150 0 234 -34q157 -64 157 -183v-109h-230v52q0 35 -40 54q-41 19 -102 19q-60 0 -102 -24t-42 -70
q0 -45 57 -79q57 -35 139 -63t163 -65t138 -107t58 -165q0 -145 -114 -233t-281 -87q-167 0 -277 62t-145 106l-19 19l123 170q14 -16 42 -42t109 -69t152 -43z" />
    <glyph glyph-name="Tcommaaccent" unicode="&#x162;" horiz-adv-x="1337" 
d="M711 -90q149 -18 149 -167q0 -81 -63 -125t-158 -44q-27 0 -125 14v144q43 -16 88 -17q90 1 90 57t-98 56l-43 -4l49 176h-65v1227h-224q-45 0 -45 -45v-88h-235v229q1 71 29 101t102 30h1014q74 0 102 -30t29 -101v-229h-236v88q0 45 -45 45h-223v-1227h-72z" />
    <glyph glyph-name="tcommaaccent" unicode="&#x163;" horiz-adv-x="757" 
d="M473 -90q150 -18 150 -168q1 -82 -63 -125t-159 -43q-20 0 -125 14v144q43 -16 91 -17q88 1 88 57t-99 56l-43 -4l60 213q-199 88 -199 346v455h-135v206h141v285h254v-285h238v-206h-238v-422q0 -113 65 -155t142 -42l47 4v-227q-33 -6 -88 -6t-108 10z" />
    <glyph glyph-name="Tcaron" unicode="&#x164;" horiz-adv-x="1337" 
d="M559 1550l-188 279h194l103 -166h4l102 166h197l-191 -279h-221zM535 0v1227h-224q-45 0 -45 -45v-88h-235v229q1 71 29 101t102 30h1014q74 0 102 -30t29 -101v-229h-236v88q0 45 -45 45h-223v-1227h-268z" />
    <glyph glyph-name="tcaron" unicode="&#x165;" horiz-adv-x="845" 
d="M766 1336q0 -68 -53 -179h-172q39 103 39 167t-23 130h195q14 -50 14 -118zM180 383v455h-135v206h141v285h254v-285h238v-206h-238v-422q0 -113 65 -155t142 -42l47 4v-227q-33 -6 -114 -6t-163 32q-81 32 -127 72t-78 114q-32 75 -32 175z" />
    <glyph glyph-name="Tbar" unicode="&#x166;" horiz-adv-x="1337" 
d="M535 0v604h-304v197h304v426h-224q-45 0 -45 -45v-88h-235v229q1 71 29 101t102 30h1014q74 0 102 -30t29 -101v-229h-236v88q0 45 -45 45h-223v-426h319v-197h-319v-604h-268z" />
    <glyph glyph-name="tbar" unicode="&#x167;" horiz-adv-x="757" 
d="M174 383v106h-135v173h135v176h-135v206h141v285h254v-285h238v-206h-238v-176h238v-173h-238v-83q0 -104 65 -146t142 -41l47 4v-227q-33 -6 -114 -6t-163 32q-81 32 -127 72t-78 114q-32 75 -32 175z" />
    <glyph glyph-name="Utilde" unicode="&#x168;" horiz-adv-x="1515" 
d="M387 1552q0 281 234 281q61 0 108 -34q47 -35 83 -67t74 -32t60 37t21 90h161q0 -281 -233 -281q-61 0 -109 34t-83 67t-73 33t-60 -36t-21 -92h-162zM186 518v664q0 45 -45 45h-88v227h262q74 0 107 -34t33 -105v-789q0 -141 82 -221t221 -80t221 80t82 223v787
q0 71 33 105t106 34h262v-227h-88q-45 0 -45 -45v-664q0 -242 -157 -392q-158 -150 -414 -151q-256 1 -414 151t-158 392z" />
    <glyph glyph-name="utilde" unicode="&#x169;" horiz-adv-x="1306" 
d="M268 1176q0 281 234 280q59 0 107 -34t84 -66t74 -33q37 0 59 37t22 90h162q0 -281 -234 -281q-59 0 -107 34t-84 67t-74 33q-37 0 -59 -36t-22 -91h-162zM166 373v405q0 45 -45 45h-82v221h248q73 0 105 -32t32 -105v-481q0 -104 36 -158t126 -55q135 0 214 102t79 250
v479h260v-780q0 -45 45 -45h82v-219h-240q-137 0 -137 117v28l2 48h-4q-41 -89 -137 -153t-224 -65q-360 1 -360 398z" />
    <glyph glyph-name="Umacron" unicode="&#x16a;" horiz-adv-x="1515" 
d="M492 1604v172h536v-172h-536zM186 518v664q0 45 -45 45h-88v227h262q74 0 107 -34t33 -105v-789q0 -141 82 -221t221 -80t221 80t82 223v787q0 71 33 105t106 34h262v-227h-88q-45 0 -45 -45v-664q0 -242 -157 -392q-158 -150 -414 -151q-256 1 -414 151t-158 392z" />
    <glyph glyph-name="umacron" unicode="&#x16b;" horiz-adv-x="1306" 
d="M375 1227v172h536v-172h-536zM166 373v405q0 45 -45 45h-82v221h248q73 0 105 -32t32 -105v-481q0 -104 36 -158t126 -55q135 0 214 102t79 250v479h260v-780q0 -45 45 -45h82v-219h-240q-137 0 -137 117v28l2 48h-4q-41 -89 -137 -153t-224 -65q-360 1 -360 398z" />
    <glyph glyph-name="Ubreve" unicode="&#x16c;" horiz-adv-x="1515" 
d="M758 1542q-117 0 -205 71t-88 191v25h166v-25q0 -59 38 -90t89 -31t89 32t38 91v23h166v-25q0 -122 -88 -192t-205 -70zM186 518v664q0 45 -45 45h-88v227h262q74 0 107 -34t33 -105v-789q0 -141 82 -221t221 -80t221 80t82 223v787q0 71 33 105t106 34h262v-227h-88
q-45 0 -45 -45v-664q0 -242 -157 -392q-158 -150 -414 -151q-256 1 -414 151t-158 392z" />
    <glyph glyph-name="ubreve" unicode="&#x16d;" horiz-adv-x="1306" 
d="M641 1165q-117 0 -205 71t-88 191v25h166v-25q0 -59 38 -90t89 -31t89 32t38 92v22h166v-25q0 -121 -88 -191t-205 -71zM166 373v405q0 45 -45 45h-82v221h248q73 0 105 -32t32 -105v-481q0 -104 36 -158t126 -55q135 0 214 102t79 250v479h260v-780q0 -45 45 -45h82
v-219h-240q-137 0 -137 117v28l2 48h-4q-41 -89 -137 -153t-224 -65q-360 1 -360 398z" />
    <glyph glyph-name="Uring" unicode="&#x16e;" horiz-adv-x="1515" 
d="M760 1616q31 0 51 19t20 51t-20 52q-20 19 -51 19t-51 -19q-21 -19 -21 -51q0 -31 20 -51t52 -20zM760 1526q-74 0 -128 43t-54 118t54 117t128 43q74 0 128 -43q54 -44 54 -118t-54 -117t-128 -43zM186 518v664q0 45 -45 45h-88v227h262q74 0 107 -34t33 -105v-789
q0 -141 82 -221t221 -80t221 80t82 223v787q0 71 33 105t106 34h262v-227h-88q-45 0 -45 -45v-664q0 -242 -157 -392q-158 -150 -414 -151q-256 1 -414 151t-158 392z" />
    <glyph glyph-name="uring" unicode="&#x16f;" horiz-adv-x="1306" 
d="M641 1239q31 0 51 19q20 20 20 52t-20 51t-51 19t-51 -19t-20 -51t20 -52t51 -19zM641 1149q-74 0 -128 43t-54 118q0 76 54 118t128 42t128 -43t54 -117t-54 -118q-54 -43 -128 -43zM166 373v405q0 45 -45 45h-82v221h248q73 0 105 -32t32 -105v-481q0 -104 36 -158
t126 -55q135 0 214 102t79 250v479h260v-780q0 -45 45 -45h82v-219h-240q-137 0 -137 117v28l2 48h-4q-41 -89 -137 -153t-224 -65q-360 1 -360 398z" />
    <glyph glyph-name="Uhungarumlaut" unicode="&#x170;" horiz-adv-x="1515" 
d="M473 1550l148 279h213l-152 -279h-209zM825 1550l158 279h248l-213 -279h-193zM186 518v664q0 45 -45 45h-88v227h262q74 0 107 -34t33 -105v-789q0 -141 82 -221t221 -80t221 80t82 223v787q0 71 33 105t106 34h262v-227h-88q-45 0 -45 -45v-664q0 -242 -157 -392
q-158 -150 -414 -151q-256 1 -414 151t-158 392z" />
    <glyph glyph-name="uhungarumlaut" unicode="&#x171;" horiz-adv-x="1306" 
d="M356 1174l148 278h213l-152 -278h-209zM709 1174l157 278h248l-213 -278h-192zM166 373v405q0 45 -45 45h-82v221h248q73 0 105 -32t32 -105v-481q0 -104 36 -158t126 -55q135 0 214 102t79 250v479h260v-780q0 -45 45 -45h82v-219h-240q-137 0 -137 117v28l2 48h-4
q-41 -89 -137 -153t-224 -65q-360 1 -360 398z" />
    <glyph glyph-name="Uogonek" unicode="&#x172;" horiz-adv-x="1515" 
d="M186 518v664q0 45 -45 45h-88v227h262q74 0 107 -34t33 -105v-789q0 -141 82 -221t221 -80t221 80t82 223v787q0 71 33 105t106 34h262v-227h-88q-45 0 -45 -45v-668q0 -313 -295 -485q-59 -35 -107 -88t-48 -91q1 -38 25 -57q24 -18 48 -22l25 -4l-62 -193q-24 0 -77 16
q-54 16 -86 36t-61 58q-28 38 -27 87q0 117 110 206v5q-25 -2 -43 -2q-241 0 -393 152t-152 386z" />
    <glyph glyph-name="uogonek" unicode="&#x173;" horiz-adv-x="1306" 
d="M526 -25q-360 0 -360 398v405q0 45 -45 45h-82v221h248q81 0 109 -36t28 -125v-457q0 -104 36 -158t126 -55q135 0 214 102t79 250v479h260v-780q0 -45 45 -45h82v-219q-115 -96 -115 -160q0 -29 25 -47t49 -22l26 -4l-61 -193q-25 0 -78 16t-86 36q-32 20 -60 58t-28 87
q0 127 135 225v4h-55q-129 0 -129 117v28l2 45h-6q-69 -137 -218 -191q-65 -24 -141 -24z" />
    <glyph glyph-name="Wcircumflex" unicode="&#x174;" horiz-adv-x="2031" 
d="M725 1550l186 279h224l188 -279h-195l-102 166h-4l-104 -166h-193zM72 1227h-39v227h174q80 0 122 -26t58 -93l199 -866l24 -154h4q8 70 31 154l264 981h228l249 -981l29 -154h4q6 72 25 154l201 866q14 67 56 93t122 26h176v-227h-39q-55 0 -66 -45l-303 -1182h-309
l-221 823l-37 181h-4q-12 -86 -39 -181l-231 -823h-312l-301 1182q-10 45 -65 45z" />
    <glyph glyph-name="wcircumflex" unicode="&#x175;" horiz-adv-x="1710" 
d="M557 1174l186 278h224l188 -278h-194l-103 165h-4l-104 -165h-193zM49 823h-29v221h179q65 0 99 -24t48 -82l154 -580l20 -110h4q8 55 25 110l192 682h230l194 -682l23 -110h4q6 55 20 110l152 580q14 59 48 83t99 23h179v-221h-29q-43 0 -57 -37l-250 -786h-293
l-178 596l-25 113h-4q-10 -57 -27 -113l-176 -596h-295l-250 786q-12 37 -57 37z" />
    <glyph glyph-name="Ycircumflex" unicode="&#x176;" horiz-adv-x="1259" 
d="M334 1550l186 279h223l189 -279h-195l-102 166h-4l-105 -166h-192zM496 0v635l-344 543q-20 31 -36 40t-48 9h-48v227h138q74 0 112 -20t78 -86l193 -320l88 -164h4q37 78 88 164l190 320q39 66 78 86t113 20h137v-227h-47q-33 0 -48 -9t-36 -40l-344 -543v-635h-268z
" />
    <glyph glyph-name="ycircumflex" unicode="&#x177;" horiz-adv-x="1132" 
d="M272 1174l187 278h223l188 -278h-194l-103 165h-4l-104 -165h-193zM252 -211q117 0 172 133l35 80l-348 784q-14 37 -56 37h-30v221h172q55 0 86 -22t51 -76l205 -522l36 -139h5q16 86 34 139l179 522q33 98 139 98h176v-221h-31q-45 0 -59 -37l-375 -944
q-53 -136 -153 -204t-224 -68q-74 0 -140 27t-93 53l-31 26l100 185q63 -72 150 -72z" />
    <glyph glyph-name="Ydieresis" unicode="&#x178;" horiz-adv-x="1259" 
d="M358 1591v238h181v-238h-181zM725 1591v238h182v-238h-182zM496 0v635l-344 543q-20 31 -36 40t-48 9h-48v227h138q74 0 112 -20t78 -86l193 -320l88 -164h4q37 78 88 164l190 320q39 66 78 86t113 20h137v-227h-47q-33 0 -48 -9t-36 -40l-344 -543v-635h-268z" />
    <glyph glyph-name="Zacute" unicode="&#x179;" horiz-adv-x="1204" 
d="M514 1550l156 279h250l-215 -279h-191zM35 0v170l653 926q54 74 96 116l15 15v4q-43 -4 -111 -4h-352q-45 0 -45 -45v-88h-244v221q0 71 33 105t106 34h944v-168l-653 -928q-54 -74 -96 -116l-14 -15v-4q43 4 110 4h397q45 0 46 45v88h241v-221q0 -75 -33 -107t-106 -32
h-987z" />
    <glyph glyph-name="zacute" unicode="&#x17a;" horiz-adv-x="1046" 
d="M438 1174l156 278h250l-215 -278h-191zM55 0v139l482 588q32 43 77 84l11 12v4q-31 -4 -97 -4h-188q-45 0 -45 -45v-59h-236v186q0 72 33 106t107 33h766v-141l-482 -588l-88 -96v-4q31 6 99 6h229q45 0 45 45v58h236v-185q0 -75 -33 -107t-105 -32h-811z" />
    <glyph glyph-name="Zdotaccent" unicode="&#x17b;" horiz-adv-x="1204" 
d="M502 1591v238h225v-238h-225zM35 0v170l653 926q54 74 96 116l15 15v4q-43 -4 -111 -4h-352q-45 0 -45 -45v-88h-244v221q0 71 33 105t106 34h944v-168l-653 -928q-54 -74 -96 -116l-14 -15v-4q43 4 110 4h397q45 0 46 45v88h241v-221q0 -75 -33 -107t-106 -32h-987z" />
    <glyph glyph-name="zdotaccent" unicode="&#x17c;" horiz-adv-x="1046" 
d="M426 1214v238h225v-238h-225zM55 0v139l482 588q32 43 77 84l11 12v4q-31 -4 -97 -4h-188q-45 0 -45 -45v-59h-236v186q0 72 33 106t107 33h766v-141l-482 -588l-88 -96v-4q31 6 99 6h229q45 0 45 45v58h236v-185q0 -75 -33 -107t-105 -32h-811z" />
    <glyph glyph-name="Zcaron" unicode="&#x17d;" horiz-adv-x="1204" 
d="M504 1550l-189 279h195l102 -166h4l103 166h196l-190 -279h-221zM35 0v170l653 926q54 74 96 116l15 15v4q-43 -4 -111 -4h-352q-45 0 -45 -45v-88h-244v221q0 71 33 105t106 34h944v-168l-653 -928q-54 -74 -96 -116l-14 -15v-4q43 4 110 4h397q45 0 46 45v88h241v-221
q0 -75 -33 -107t-106 -32h-987z" />
    <glyph glyph-name="zcaron" unicode="&#x17e;" horiz-adv-x="1046" 
d="M426 1174l-188 278h194l103 -166h4l102 166h197l-191 -278h-221zM55 0v139l482 588q32 43 77 84l11 12v4q-31 -4 -97 -4h-188q-45 0 -45 -45v-59h-236v186q0 72 33 106t107 33h766v-141l-482 -588l-88 -96v-4q31 6 99 6h229q45 0 45 45v58h236v-185q0 -75 -33 -107
t-105 -32h-811z" />
    <glyph glyph-name="longs" unicode="&#x17f;" horiz-adv-x="706" 
d="M170 0v838h-129v206h129v31q0 98 31 171t75 113q45 39 125 71q80 31 195 32l88 -6v-221q-24 4 -62 4t-78 -10t-77 -52t-37 -112v-1065h-260z" />
    <glyph glyph-name="florin" unicode="&#x192;" horiz-adv-x="765" 
d="M-37 109q201 0 217 188l35 387h-145v207h163l17 184q8 98 46 171t85 113q121 103 328 103l88 -6l-21 -221q-20 4 -53 4q-201 0 -217 -188l-14 -160h206v-207h-225l-37 -410q-8 -98 -46 -172t-86 -114q-126 -104 -327 -103l-86 6l21 222q20 -4 51 -4z" />
    <glyph glyph-name="Scommaaccent" unicode="&#x218;" horiz-adv-x="1124" 
d="M488 -242q0 64 -23 129h194q15 -51 15 -119t-53 -178h-172q39 104 39 168zM94 1069q0 176 137 293t354 117t352 -122q75 -69 75 -165v-135h-242v65q0 49 -58 81t-142 32t-144 -43q-60 -42 -61 -102q0 -104 136 -169q60 -30 186 -83q362 -154 362 -430q0 -185 -131 -309
t-353 -124q-90 0 -175 24t-167 71t-137 106l-20 25l151 188q6 -6 17 -18q88 -96 221 -135q160 -51 263 27q60 46 60 132t-136 159q-60 32 -133 64q-163 70 -279 161q-60 48 -98 123t-38 167z" />
    <glyph glyph-name="scommaaccent" unicode="&#x219;" horiz-adv-x="958" 
d="M373 -113h194q15 -51 15 -119t-54 -178h-172q40 104 40 168t-23 129zM477 178q150 0 150 103q-1 39 -57 73t-137 64t-163 70t-138 111t-56 165q0 150 116 228t265 77q150 0 234 -34q157 -64 157 -183v-109h-230v52q0 35 -40 54q-41 19 -102 19q-60 0 -102 -24t-42 -70
q0 -45 57 -79q57 -35 139 -63t163 -65t138 -107t58 -165q0 -145 -114 -233t-281 -87q-167 0 -277 62t-145 106l-19 19l123 170q14 -16 42 -42t109 -69t152 -43z" />
    <glyph glyph-name="uni021A" unicode="&#x21a;" horiz-adv-x="1337" 
d="M768 -232q0 -68 -53 -178h-172q39 104 39 168t-23 129h195q14 -51 14 -119zM535 0v1227h-224q-45 0 -45 -45v-88h-235v229q1 71 29 101t102 30h1014q74 0 102 -30t29 -101v-229h-236v88q0 45 -45 45h-223v-1227h-268z" />
    <glyph glyph-name="uni021B" unicode="&#x21b;" horiz-adv-x="757" 
d="M528 -232q0 -68 -53 -178h-172q39 104 39 168t-23 129h195q14 -51 14 -119zM174 383v455h-135v206h141v285h254v-285h238v-206h-238v-422q0 -113 65 -155t142 -42l47 4v-227q-33 -6 -114 -6t-163 32q-81 32 -127 72t-78 114q-32 75 -32 175z" />
    <glyph glyph-name="circumflex" unicode="&#x2c6;" horiz-adv-x="1026" 
d="M215 1550l186 279h224l188 -279h-195l-102 166h-4l-104 -166h-193z" />
    <glyph glyph-name="caron" unicode="&#x2c7;" horiz-adv-x="1028" 
d="M401 1550l-188 279h195l102 -166h4l102 166h197l-190 -279h-222z" />
    <glyph glyph-name="breve" unicode="&#x2d8;" horiz-adv-x="1060" 
d="M520 1542q-117 0 -205 71t-88 191v25h166v-25q0 -59 38 -90t89 -31t89 32t38 91v23h166v-25q0 -122 -88 -192t-205 -70z" />
    <glyph glyph-name="dotaccent" unicode="&#x2d9;" horiz-adv-x="593" 
d="M184 1591v238h226v-238h-226z" />
    <glyph glyph-name="ring" unicode="&#x2da;" horiz-adv-x="786" 
d="M393 1616q31 0 51 19t20 51t-20 52q-20 19 -51 19t-51 -19t-20 -51q0 -31 20 -51t51 -20zM393 1526q-74 0 -128 43t-54 118t54 117t128 43q74 0 128 -43q54 -44 54 -118t-54 -117t-128 -43z" />
    <glyph glyph-name="ogonek" unicode="&#x2db;" horiz-adv-x="776" 
d="M227 -220q0 58 45 124t90 96l46 33l174 -8q-50 -37 -95 -95q-45 -57 -45 -88t25 -49t49 -22l25 -4l-62 -193q-10 0 -27 3q-140 25 -198 107q-28 38 -27 96z" />
    <glyph glyph-name="tilde" unicode="&#x2dc;" horiz-adv-x="1122" 
d="M197 1552q0 281 233 281q60 0 108 -34q48 -35 84 -67t74 -32t59 37q22 37 21 90h162q0 -281 -233 -281q-61 0 -109 34t-83 67q-36 33 -74 33q-37 0 -59 -36t-22 -92h-161z" />
    <glyph glyph-name="hungarumlaut" unicode="&#x2dd;" horiz-adv-x="1138" 
d="M190 1550l148 279h213l-152 -279h-209zM543 1550l157 279h248l-213 -279h-192z" />
    <glyph glyph-name="germandbls.case" unicode="&#x1e9e;" horiz-adv-x="1349" 
d="M53 0v227h88q45 0 45 45v744q0 194 125 316t322 122h577v-182l-247 -371l-45 -63v-4l36 -3q140 -18 228 -137t88 -264q0 -180 -130 -305t-315 -125h-192v227h174q88 -1 140 59t52 144t-52 141t-140 58h-172v182l182 289q55 90 92 127v4q-16 -4 -90 -4h-182
q-80 1 -131 -59t-51 -148v-881q0 -75 -33 -107t-107 -32h-262z" />
    <glyph glyph-name="endash" unicode="&#x2013;" horiz-adv-x="1357" 
d="M113 483v203h1132v-203h-1132z" />
    <glyph glyph-name="emdash" unicode="&#x2014;" horiz-adv-x="1767" 
d="M113 483v203h1542v-203h-1542z" />
    <glyph glyph-name="quoteleft" unicode="&#x2018;" horiz-adv-x="501" 
d="M86 1032l154 447h176l-97 -447h-233z" />
    <glyph glyph-name="quoteright" unicode="&#x2019;" horiz-adv-x="501" 
d="M86 1032l96 449h234l-154 -449h-176z" />
    <glyph glyph-name="quotesinglbase" unicode="&#x201a;" horiz-adv-x="501" 
d="M182 264h234l-154 -446h-176z" />
    <glyph glyph-name="quotedblleft" unicode="&#x201c;" horiz-adv-x="827" 
d="M86 1032l154 447h176l-97 -447h-233zM414 1032l151 447h176l-96 -447h-231z" />
    <glyph glyph-name="quotedblright" unicode="&#x201d;" horiz-adv-x="827" 
d="M86 1032l96 449h234l-154 -449h-176zM414 1032l96 449h231l-151 -449h-176z" />
    <glyph glyph-name="quotedblbase" unicode="&#x201e;" horiz-adv-x="827" 
d="M182 264h234l-154 -446h-176zM414 -182l96 446h231l-151 -446h-176z" />
    <glyph glyph-name="dagger" unicode="&#x2020;" horiz-adv-x="872" 
d="M309 -102v944h-254v202h254v410h250v-410h258v-202h-258v-944h-250z" />
    <glyph glyph-name="daggerdbl" unicode="&#x2021;" horiz-adv-x="872" 
d="M309 -102v436h-254v201h254v307h-254v202h254v410h250v-410h258v-202h-258v-307h258v-201h-258v-436h-250z" />
    <glyph glyph-name="bullet" unicode="&#x2022;" horiz-adv-x="960" 
d="M480 254q-142 0 -242 100t-100 242t100 242t242 100t242 -100t99 -242q0 -142 -99 -242q-100 -100 -242 -100z" />
    <glyph glyph-name="ellipsis" unicode="&#x2026;" horiz-adv-x="2033" 
d="M309 0v260h250v-260h-250zM891 0v260h252v-260h-252zM1475 0v260h251v-260h-251z" />
    <glyph glyph-name="perthousand" unicode="&#x2030;" horiz-adv-x="2398" 
d="M1106 298q0 -56 39 -95t96 -39t97 39t40 95t-40 96t-97 40t-96 -40t-39 -96zM1870 298q0 -56 39 -95t96 -39t97 39t40 95t-40 96t-97 40t-96 -40t-39 -96zM907 297q-1 133 97 228t236 95t236 -94q98 -96 99 -229q0 -133 -97 -227q-96 -94 -236 -94t-238 94t-97 227z
M1671 297q0 133 97 228q98 95 236 95t238 -94q100 -96 99 -229q0 -133 -98 -227q-97 -94 -237 -94t-238 94t-97 227zM446 1020q57 0 98 39q40 39 40 95t-40 96t-98 40t-96 -40q-39 -40 -39 -96t39 -95t96 -39zM164 0l1116 1454h240l-1117 -1454h-239zM446 831
q-139 1 -236 95t-97 228t98 229t235 95q136 0 236 -94q100 -96 100 -230t-98 -228t-238 -95z" />
    <glyph glyph-name="guilsinglleft" unicode="&#x2039;" horiz-adv-x="802" 
d="M430 158l-336 420l336 421h248l-336 -421l336 -420h-248z" />
    <glyph glyph-name="guilsinglright" unicode="&#x203a;" horiz-adv-x="802" 
d="M119 158l336 420l-336 421h248l335 -421l-335 -420h-248z" />
    <glyph glyph-name="fraction" unicode="&#x2044;" horiz-adv-x="860" 
d="M47 0l565 1454h203l-567 -1454h-201z" />
    <glyph glyph-name="Euro" unicode="&#x20ac;" horiz-adv-x="1253" 
d="M78 512v156h127q-4 35 -4 61l4 66h-127v157h153q68 234 259 380t442 147q113 0 176 -21l27 -6l-64 -240q-70 20 -145 21q-145 0 -254 -75t-158 -206h510l-33 -157h-514q-4 -31 -4 -62l6 -65h488l-31 -156h-410q47 -131 158 -209t232 -78t190 25l27 6l47 -242
q-106 -39 -248 -39q-260 -1 -448 147t-253 390h-153z" />
    <glyph glyph-name="trademark" unicode="&#x2122;" horiz-adv-x="2029" 
d="M373 547v735h-119q-16 0 -16 -16v-60h-168v156q0 52 20 72t78 20h606q56 0 76 -19t20 -73v-156h-163v60q0 16 -15 16h-123v-735h-196zM874 547v170h46q18 0 20 18l57 719h183l186 -428l29 -86h4q12 51 26 86l189 428h180l57 -719q4 -18 21 -18h47v-170h-154q-57 0 -79 17
t-25 75l-27 375l2 63h-4l-159 -364h-154l-160 364h-4l2 -63l-27 -375q-4 -57 -24 -75t-78 -17h-154z" />
    <glyph glyph-name="minus" unicode="&#x2212;" 
d="M94 483v203h1082v-203h-1082z" />
    <glyph glyph-name="infinity" unicode="&#x221e;" horiz-adv-x="1058" 
d="M530 322q-162 0 -278 116t-115 277q0 163 116 277q115 114 277 114t276 -114t114 -276t-114 -278t-276 -116z" />
    <glyph glyph-name="approxequal" unicode="&#x2248;" 
d="M432 547q102 0 220 -72t186 -72q119 0 219 113l102 -154q-158 -154 -321 -153q-102 0 -220 72t-186 71q-110 1 -219 -112l-100 153q154 154 319 154zM432 967q102 0 220 -72t186 -72q119 0 219 113l102 -154q-156 -156 -321 -155q-102 -1 -220 71t-186 72
q-113 0 -219 -111l-100 152q152 156 319 156z" />
    <glyph glyph-name="notequal" unicode="&#x2260;" 
d="M135 274v201h338l152 219h-490v201h623l155 229l125 -82l-102 -147h199v-201h-330l-152 -219h482v-201h-613l-153 -225l-127 80l100 145h-207z" />
    <glyph glyph-name="lessequal" unicode="&#x2264;" 
d="M135 -174h981v-201h-981v201zM131 502v168l985 438v-227l-710 -293v-4l710 -293v-228z" />
    <glyph glyph-name="greaterequal" unicode="&#x2265;" 
d="M154 -174h983v-201h-983v201zM154 63v228l710 293v4l-710 293v227l985 -438v-168z" />
    <glyph glyph-name="T.R" horiz-adv-x="1298" 
d="M549 0v1227h-232q-45 0 -45 -45v-86h-241v231q1 71 27 99t96 28h1085v-227h-422v-1227h-268z" />
    <glyph glyph-name="T.L" horiz-adv-x="1298" 
d="M479 0v1227h-422v227h1086q73 0 99 -29t26 -98v-231h-244v86q0 45 -45 45h-231v-1227h-269z" />
    <glyph glyph-name="T.cut_mid" horiz-adv-x="1298" 
d="M514 0v1227h-453v227h1176v-227h-455v-1227h-268z" />
    <glyph glyph-name="commaaccent" horiz-adv-x="686" 
d="M465 -232q0 -68 -53 -178h-172q39 104 39 168t-23 129h195q14 -51 14 -119z" />
    <glyph glyph-name="apple" horiz-adv-x="2314" 
d="M887 0h203v391h397v172h-397v309h256q26 0 34 -11t9 -38v-59h182v176q0 55 -24 80t-81 24h-690v-172h111v-872zM293 315v461l203 119v252l440 233l225 -120l219 120l439 -233v-252l204 -119v-461l-204 -122v-248l-439 -234l-219 119l-225 -119l-440 234v248zM193 291
l233 -131v-285l487 -258l248 135l242 -135l487 258v285l234 131v510l-234 135v278l-487 259l-242 -132l-248 132l-487 -259v-278l-233 -135v-510zM86 262v569l258 146v309l543 291l274 -145l271 145l542 -291v-309l254 -146v-569l-254 -147v-312l-542 -288l-271 145
l-274 -145l-543 288v312z" />
    <glyph glyph-name="zero.tnum" horiz-adv-x="1200" 
d="M600 217q256 0 256 509t-256 509t-256 -509t256 -509zM600 -25q-142 -1 -248 57t-164 164q-115 210 -114 533q0 750 526 750t526 -750q0 -325 -113 -532q-58 -106 -164 -164t-249 -58z" />
    <glyph glyph-name="one.tnum" horiz-adv-x="1191" 
d="M182 0v227h314v807l2 99h-4q-16 -35 -64 -82l-117 -111l-155 164l364 350h242v-1227h313v-227h-895z" />
    <glyph glyph-name="two.tnum" horiz-adv-x="1191" 
d="M76 192q0 108 39 194q39 87 101 144q62 58 139 106t153 90t138 86q142 101 140 232q0 86 -58 138t-146 51q-88 0 -143 -36q-54 -36 -54 -79v-63h-242v143q0 90 73 157q135 124 352 124t353 -117t136 -313q0 -137 -73 -243t-176 -172q-104 -65 -206 -119
q-102 -55 -175 -117t-73 -134q0 -37 56 -37h426q45 0 45 45v88h241v-221q0 -75 -32 -107t-107 -32h-758q-92 0 -121 42q-28 42 -28 150z" />
    <glyph glyph-name="three.tnum" horiz-adv-x="1191" 
d="M543 655h-103l-53 133l246 330q54 78 84 99l12 12v4q-45 -6 -129 -6h-182q-45 0 -45 -45v-88h-242v221q0 75 28 107t99 32h791v-166l-334 -418q159 -24 267 -136t108 -296t-140 -324q-140 -138 -369 -138q-228 0 -419 132q-43 30 -64 52l-20 20l135 201l16 -16
q85 -85 221 -123q60 -16 119 -17q109 -1 179 61t70 157t-79 153q-78 58 -196 59z" />
    <glyph glyph-name="four.tnum" horiz-adv-x="1191" 
d="M680 594v403l10 158h-4q-41 -78 -78 -131l-227 -336l-74 -96v-4q59 6 127 6h246zM27 367v170l602 917h315v-860h223v-227h-223v-367h-268v367h-649z" />
    <glyph glyph-name="five.tnum" horiz-adv-x="1191" 
d="M819 474q0 110 -91 176t-222 65q-72 -1 -140 -17t-102 -32l-33 -17l-94 47l53 619q6 75 37 107t101 32h536q139 0 140 -139v-221h-244v88q0 45 -45 45h-240q-41 0 -45 -45l-18 -201l-11 -68h5q68 27 153 27q244 0 388 -136q145 -136 145 -339t-146 -347t-393 -145
q-174 0 -292 67q-119 67 -163 116l-18 20l135 203q11 -17 51 -49q128 -103 287 -105q119 0 193 70q74 69 73 179z" />
    <glyph glyph-name="six.tnum" horiz-adv-x="1191" 
d="M352 571q0 -137 86 -245t192 -109q106 0 167 70q59 71 59 181t-71 186t-182 75q-111 0 -181 -46t-70 -112zM1116 461q0 -205 -133 -345t-357 -141q-224 1 -388 183q-162 182 -162 493q0 252 106 458q117 230 321 321q112 49 218 49q178 0 291 -45l32 -17l-77 -227
q-94 45 -205 45q-160 0 -258 -114t-127 -281h4q37 46 114 76t156 30q209 0 337 -140t128 -345z" />
    <glyph glyph-name="seven.tnum" horiz-adv-x="1191" 
d="M725 1227h-350q-45 0 -45 -45v-88h-244v221q0 75 29 107t98 32h909v-184l-692 -1270h-293l600 1094q51 91 78 118l10 15v4q-27 -4 -100 -4z" />
    <glyph glyph-name="eight.tnum" horiz-adv-x="1191" 
d="M502 670q-42 0 -100 -73t-58 -166t72 -153t176 -60t177 56t73 136t-52 124t-160 90t-128 46zM696 850q30 0 72 66q43 66 43 144q0 79 -57 127q-56 48 -152 48t-151 -47t-55 -117t49 -112q51 -41 136 -75t115 -34zM599 1479q212 0 341 -115t129 -274t-101 -286
q-24 -30 -40 -44l-17 -15v-4q201 -127 201 -333q0 -174 -144 -304t-370 -129q-226 0 -375 125t-149 320q0 128 75 222q75 93 125 124l23 16v4q-159 106 -162 291q0 164 126 283t338 119z" />
    <glyph glyph-name="nine.tnum" horiz-adv-x="1191" 
d="M840 883q0 137 -86 245t-192 107q-106 0 -166 -69q-60 -70 -60 -180t70 -186t182 -75q112 0 182 45t70 113zM430 217q160 0 258 114t127 283h-4q-35 -46 -113 -76t-157 -30q-209 0 -337 140t-128 344t133 345t357 141t388 -182q162 -182 162 -493q0 -252 -106 -458
q-118 -231 -311 -316q-194 -85 -409 -38q-75 15 -110 29l-33 17l78 227q94 -47 205 -47z" />
    <glyph glyph-name="T_h" horiz-adv-x="2410" 
d="M561 0v1227h-250q-45 0 -45 -45v-88h-235v229q1 71 29 101t102 30h1220q74 0 107 -33t33 -104v-367l-4 -88h4q13 40 73 97q116 110 287 110q365 0 365 -397v-408q0 -45 45 -45h80v-219h-246q-74 0 -107 33t-32 106v479q0 104 -36 158t-128 55q-139 0 -220 -100t-81 -252
v-479h-260v1182q0 45 -45 45h-388v-1227h-268z" />
    <glyph glyph-name="T.alt" horiz-adv-x="1312" 
d="M553 0v1227h-242q-45 0 -45 -45v-88h-235v229q1 71 29 101t102 30h1120v-227h-461v-1227h-268z" />
    <glyph glyph-name="Tcommaaccent.alt" horiz-adv-x="1312" 
d="M729 -90q150 -18 150 -168q1 -82 -63 -125t-144 -43t-123 12l-17 2v144q43 -16 89 -17q90 1 90 57t-99 56l-43 -4l49 176h-65v1227h-242q-45 0 -45 -45v-88h-235v229q1 71 29 101t102 30h1120v-227h-461v-1227h-71z" />
    <glyph glyph-name="Tcaron.alt" horiz-adv-x="1312" 
d="M553 0v1227h-242q-45 0 -45 -45v-88h-235v229q1 71 29 101t102 30h1120v-227h-461v-1227h-268zM580 1550l-189 279h195l102 -166h4l103 166h196l-190 -279h-221z" />
    <glyph glyph-name="Tbar.alt" horiz-adv-x="1312" 
d="M553 0v604h-289v197h289v426h-242q-45 0 -45 -45v-88h-235v229q1 71 29 101t102 30h1120v-227h-461v-426h305v-197h-305v-604h-268z" />
    <glyph glyph-name="uni021A.alt" horiz-adv-x="1312" 
d="M786 -232q0 -68 -53 -178h-172q39 104 39 168t-22 129h194q14 -51 14 -119zM553 0v1227h-242q-45 0 -45 -45v-88h-235v229q1 71 29 101t102 30h1120v-227h-461v-1227h-268z" />
    <glyph glyph-name="hyphen.case" horiz-adv-x="882" 
d="M133 598v227h617v-227h-617z" />
    <glyph glyph-name="parenleft.case" horiz-adv-x="718" 
d="M166 724q0 497 240 855h221q-229 -383 -229 -841t235 -871h-221q-246 360 -246 857z" />
    <glyph glyph-name="parenright.case" horiz-adv-x="718" 
d="M322 738q0 459 -230 841h221q242 -360 242 -856t-246 -856h-223q236 412 236 871z" />
    <glyph glyph-name="bracketleft.case" horiz-adv-x="720" 
d="M188 6v1434q0 74 33 106t107 33h264v-188h-137q-45 0 -45 -45v-1246q0 -45 45 -45h137v-188h-264q-74 1 -107 33t-33 106z" />
    <glyph glyph-name="bracketright.case" horiz-adv-x="720" 
d="M129 55h135q45 0 45 45v1246q0 45 -45 45h-135v188h264q74 0 107 -33t32 -106v-1434q0 -74 -32 -106t-107 -33h-264v188z" />
    <glyph glyph-name="braceleft.case" horiz-adv-x="720" 
d="M223 207v199q0 90 -44 143t-87 61l-43 8v228q21 0 56 14q118 47 118 203v176q0 88 28 155q27 66 65 102q93 88 270 89l63 -2v-192q-16 2 -45 2q-30 1 -62 -9t-65 -52t-33 -113v-224q0 -170 -149 -254l-19 -6v-4q106 -35 150 -150q18 -48 18 -108v-246q0 -114 60 -144
t108 -30l37 2v-192q-27 -4 -67 -4q-173 0 -266 89q-38 36 -66 102t-27 157z" />
    <glyph glyph-name="braceright.case" horiz-adv-x="720" 
d="M109 53q166 0 165 174v246q0 121 59 181t111 77v4q-62 21 -115 84q-53 64 -55 176v224q0 110 -63 145q-49 27 -102 29l-37 -2v192q27 2 91 2q64 -1 134 -27q69 -26 107 -62t66 -102t28 -155v-176q0 -93 44 -147t87 -62l43 -8v-228q-21 0 -56 -14q-34 -14 -58 -34t-42 -64
q-18 -43 -18 -100v-199q0 -90 -28 -157q-28 -66 -66 -102t-108 -62t-161 -27l-63 4v192q16 -2 37 -2z" />
    <glyph glyph-name="at.case" horiz-adv-x="1648" 
d="M811 729q0 -84 55 -142t144 -59h157v402h-153q-90 0 -146 -58t-57 -143zM78 722q0 320 222 542t532 221q310 0 444 -125q135 -125 135 -320v-512h150v-186h-568q-199 0 -319 113t-121 267q0 154 120 266q120 110 320 110h174q-2 80 -90 130t-221 50q-219 0 -371 -166
q-151 -166 -151 -393t152 -386t403 -159v-203q-360 0 -586 215q-225 216 -225 536z" />
    <glyph glyph-name="guillemotleft.case" horiz-adv-x="1257" 
d="M430 281l-336 419l336 422h248l-336 -422l336 -419h-248zM553 700l336 422h248l-336 -422l336 -419h-248z" />
    <glyph glyph-name="guillemotright.case" horiz-adv-x="1257" 
d="M119 281l336 419l-336 422h248l335 -422l-335 -419h-248zM580 281l335 419l-335 422h247l336 -422l-336 -419h-247z" />
    <glyph glyph-name="guilsinglleft.case" horiz-adv-x="802" 
d="M430 281l-336 419l336 422h248l-336 -422l336 -419h-248z" />
    <glyph glyph-name="guilsinglright.case" horiz-adv-x="802" 
d="M119 281l336 419l-336 422h248l335 -422l-335 -419h-248z" />
    <glyph glyph-name="endash.case" horiz-adv-x="1357" 
d="M113 606v203h1132v-203h-1132z" />
    <glyph glyph-name="emdash.case" horiz-adv-x="1767" 
d="M113 606v203h1542v-203h-1542z" />
    <glyph glyph-name="periodcentered.case" horiz-adv-x="542" 
d="M145 578v260h252v-260h-252z" />
    <glyph glyph-name="questiondown.case" horiz-adv-x="974" 
d="M68 360q0 92 36 168q38 76 90 125t105 95q127 109 127 210v76h250v-94q0 -82 -35 -150t-84 -115q-49 -46 -98 -88q-119 -102 -119 -202q0 -72 57 -122t125 -50q109 0 205 66l29 22l145 -180q-16 -16 -47 -41t-131 -65t-207 -40q-182 1 -315 105t-133 280zM426 1212v242
h250v-242h-250z" />
    <glyph glyph-name="exclamdown.case" horiz-adv-x="679" 
d="M205 0l22 1034h228l20 -1034h-270zM215 1212v242h250v-242h-250z" />
    <glyph glyph-name="bullet.case" horiz-adv-x="960" 
d="M480 383q-142 0 -242 100q-100 101 -100 243t100 242t242 99q142 0 242 -99q100 -100 99 -242q0 -142 -99 -243q-100 -100 -242 -100z" />
    </font>
</defs>
</svg>
