<svg xmlns="http://www.w3.org/2000/svg" viewBox="5105 386 80 80"><defs><style>.a{fill:#46949d;}</style></defs><g transform="translate(4584 109)"><path class="a" d="M40,80A40,40,0,1,1,80,40,40.046,40.046,0,0,1,40,80ZM40,4A36,36,0,1,0,76,40,36.041,36.041,0,0,0,40,4Z" transform="translate(521 277)"/><path class="a" d="M29.105,33.926,1.528,6.35a2,2,0,0,1,0-2.829L12.136-7.086a2,2,0,0,1,2.828,0,2,2,0,0,1,0,2.829L5.771,4.935,31.934,31.1a2,2,0,1,1-2.829,2.829Z" transform="translate(547.671 333.52) rotate(-90)"/></g></svg>